<svg width="15" height="13" viewBox="0 0 15 13" fill="none" xmlns="http://www.w3.org/2000/svg">
<g id="&#235;&#167;&#136;&#236;&#157;&#180;/&#236;&#130;&#172;&#236;&#167;&#132;">
<g id="&#235;&#167;&#136;&#236;&#157;&#180;/&#236;&#136;&#152;&#236;&#160;&#149;">
<mask id="path-1-inside-1_687_2843" fill="white">
<path fill-rule="evenodd" clip-rule="evenodd" d="M10.1957 0.335999H4.80583L4.24917 1.72763H1.88792C1.19906 1.72763 0.640625 2.28607 0.640625 2.97493V11.4163C0.640625 12.1051 1.19906 12.6636 1.88792 12.6636H13.1129C13.8018 12.6636 14.3602 12.1051 14.3602 11.4163V2.97493C14.3602 2.28607 13.8018 1.72763 13.1129 1.72763H10.7523L10.1957 0.335999ZM9.82786 7.22646C9.82786 8.49495 8.79954 9.52327 7.53105 9.52327C6.26256 9.52327 5.23424 8.49495 5.23424 7.22646C5.23424 5.95796 6.26256 4.92965 7.53105 4.92965C8.79954 4.92965 9.82786 5.95796 9.82786 7.22646Z"/>
</mask>
<path d="M4.80583 0.335999V-0.833341H4.01415L3.72012 -0.0982833L4.80583 0.335999ZM10.1957 0.335999L11.2814 -0.098283L10.9874 -0.833341H10.1957V0.335999ZM4.24917 1.72763V2.89697H5.04086L5.33488 2.16192L4.24917 1.72763ZM10.7523 1.72763L9.66663 2.16192L9.96065 2.89697H10.7523V1.72763ZM4.80583 1.50534H10.1957V-0.833341H4.80583V1.50534ZM5.33488 2.16192L5.89153 0.77028L3.72012 -0.0982833L3.16347 1.29335L5.33488 2.16192ZM4.24917 0.558295H1.88792V2.89697H4.24917V0.558295ZM1.88792 0.558295C0.553249 0.558295 -0.528714 1.64026 -0.528714 2.97493H1.80996C1.80996 2.93188 1.84487 2.89697 1.88792 2.89697V0.558295ZM-0.528714 2.97493V11.4163H1.80996V2.97493H-0.528714ZM-0.528714 11.4163C-0.528714 12.751 0.553251 13.8329 1.88792 13.8329V11.4942C1.84487 11.4942 1.80996 11.4593 1.80996 11.4163H-0.528714ZM1.88792 13.8329H13.1129V11.4942H1.88792V13.8329ZM13.1129 13.8329C14.4476 13.8329 15.5296 12.751 15.5296 11.4163H13.1909C13.1909 11.4593 13.156 11.4942 13.1129 11.4942V13.8329ZM15.5296 11.4163V2.97493H13.1909V11.4163H15.5296ZM15.5296 2.97493C15.5296 1.64026 14.4476 0.558295 13.1129 0.558295V2.89697C13.156 2.89697 13.1909 2.93188 13.1909 2.97493H15.5296ZM13.1129 0.558295H10.7523V2.89697H13.1129V0.558295ZM9.10997 0.77028L9.66663 2.16192L11.838 1.29335L11.2814 -0.098283L9.10997 0.77028ZM7.53105 10.6926C9.44535 10.6926 10.9972 9.14076 10.9972 7.22646H8.65852C8.65852 7.84914 8.15374 8.35393 7.53105 8.35393V10.6926ZM4.0649 7.22646C4.0649 9.14076 5.61675 10.6926 7.53105 10.6926V8.35393C6.90837 8.35393 6.40358 7.84914 6.40358 7.22646H4.0649ZM7.53105 3.76031C5.61675 3.76031 4.0649 5.31216 4.0649 7.22646H6.40358C6.40358 6.60377 6.90837 6.09899 7.53105 6.09899V3.76031ZM10.9972 7.22646C10.9972 5.31216 9.44535 3.76031 7.53105 3.76031V6.09899C8.15373 6.09899 8.65852 6.60377 8.65852 7.22646H10.9972Z" fill="white" mask="url(#path-1-inside-1_687_2843)"/>
</g>
</g>
</svg>
