<svg width="40" height="40" viewBox="0 0 40 40" fill="none" xmlns="http://www.w3.org/2000/svg">
<g clip-path="url(#clip0_670_5050)">
<path fill-rule="evenodd" clip-rule="evenodd" d="M8.00009 0.342834C8.44192 0.342834 8.80009 0.701007 8.80009 1.14283V8.28569C8.80009 8.72752 8.44192 9.08569 8.00009 9.08569C7.55826 9.08569 7.20009 8.72752 7.20009 8.28569V1.14283C7.20009 0.701007 7.55826 0.342834 8.00009 0.342834ZM15.1429 0.342834C15.5848 0.342834 15.9429 0.701007 15.9429 1.14283V8.28569C15.9429 8.72752 15.5848 9.08569 15.1429 9.08569C14.7011 9.08569 14.3429 8.72752 14.3429 8.28569V1.14283C14.3429 0.701007 14.7011 0.342834 15.1429 0.342834ZM23.0858 1.14283C23.0858 0.701007 22.7276 0.342834 22.2858 0.342834C21.844 0.342834 21.4858 0.701007 21.4858 1.14283V8.28569C21.4858 8.72752 21.844 9.08569 22.2858 9.08569C22.7276 9.08569 23.0858 8.72752 23.0858 8.28569V1.14283ZM26.7995 13.0286H4.6281C3.74445 13.0286 3.0281 13.745 3.0281 14.6286V30.4001C3.0281 34.8183 6.60983 38.4001 11.0281 38.4001H20.3995C24.8178 38.4001 28.3995 34.8183 28.3995 30.4001V14.6286C28.3995 13.745 27.6832 13.0286 26.7995 13.0286ZM4.6281 11.4286C2.86079 11.4286 1.4281 12.8613 1.4281 14.6286V30.4001C1.4281 35.702 5.72617 40.0001 11.0281 40.0001H20.3995C25.1567 40.0001 29.1057 36.5398 29.867 31.999C29.9113 31.9996 29.9556 32 30.0001 32C34.734 32 38.5715 28.1624 38.5715 23.4285C38.5715 18.6947 34.734 14.8571 30.0001 14.8571C29.9999 14.8571 29.9997 14.8571 29.9995 14.8571V14.6286C29.9995 12.8613 28.5668 11.4286 26.7995 11.4286H4.6281ZM36.9715 23.4285C36.9715 19.6356 33.9425 16.5502 30.1715 16.4592V30.3979C33.9425 30.3069 36.9715 27.2215 36.9715 23.4285Z" fill="#212121"/>
<path fill-rule="evenodd" clip-rule="evenodd" d="M8.00009 0.342834C8.44192 0.342834 8.80009 0.701007 8.80009 1.14283V8.28569C8.80009 8.72752 8.44192 9.08569 8.00009 9.08569C7.55826 9.08569 7.20009 8.72752 7.20009 8.28569V1.14283C7.20009 0.701007 7.55826 0.342834 8.00009 0.342834ZM15.1429 0.342834C15.5848 0.342834 15.9429 0.701007 15.9429 1.14283V8.28569C15.9429 8.72752 15.5848 9.08569 15.1429 9.08569C14.7011 9.08569 14.3429 8.72752 14.3429 8.28569V1.14283C14.3429 0.701007 14.7011 0.342834 15.1429 0.342834ZM23.0858 1.14283C23.0858 0.701007 22.7276 0.342834 22.2858 0.342834C21.844 0.342834 21.4858 0.701007 21.4858 1.14283V8.28569C21.4858 8.72752 21.844 9.08569 22.2858 9.08569C22.7276 9.08569 23.0858 8.72752 23.0858 8.28569V1.14283ZM26.7995 13.0286H4.6281C3.74445 13.0286 3.0281 13.745 3.0281 14.6286V30.4001C3.0281 34.8183 6.60983 38.4001 11.0281 38.4001H20.3995C24.8178 38.4001 28.3995 34.8183 28.3995 30.4001V14.6286C28.3995 13.745 27.6832 13.0286 26.7995 13.0286ZM4.6281 11.4286C2.86079 11.4286 1.4281 12.8613 1.4281 14.6286V30.4001C1.4281 35.702 5.72617 40.0001 11.0281 40.0001H20.3995C25.1567 40.0001 29.1057 36.5398 29.867 31.999C29.9113 31.9996 29.9556 32 30.0001 32C34.734 32 38.5715 28.1624 38.5715 23.4285C38.5715 18.6947 34.734 14.8571 30.0001 14.8571C29.9999 14.8571 29.9997 14.8571 29.9995 14.8571V14.6286C29.9995 12.8613 28.5668 11.4286 26.7995 11.4286H4.6281ZM36.9715 23.4285C36.9715 19.6356 33.9425 16.5502 30.1715 16.4592V30.3979C33.9425 30.3069 36.9715 27.2215 36.9715 23.4285Z" fill="black" fill-opacity="0.2"/>
<path fill-rule="evenodd" clip-rule="evenodd" d="M8.00009 0.342834C8.44192 0.342834 8.80009 0.701007 8.80009 1.14283V8.28569C8.80009 8.72752 8.44192 9.08569 8.00009 9.08569C7.55826 9.08569 7.20009 8.72752 7.20009 8.28569V1.14283C7.20009 0.701007 7.55826 0.342834 8.00009 0.342834ZM15.1429 0.342834C15.5848 0.342834 15.9429 0.701007 15.9429 1.14283V8.28569C15.9429 8.72752 15.5848 9.08569 15.1429 9.08569C14.7011 9.08569 14.3429 8.72752 14.3429 8.28569V1.14283C14.3429 0.701007 14.7011 0.342834 15.1429 0.342834ZM23.0858 1.14283C23.0858 0.701007 22.7276 0.342834 22.2858 0.342834C21.844 0.342834 21.4858 0.701007 21.4858 1.14283V8.28569C21.4858 8.72752 21.844 9.08569 22.2858 9.08569C22.7276 9.08569 23.0858 8.72752 23.0858 8.28569V1.14283ZM26.7995 13.0286H4.6281C3.74445 13.0286 3.0281 13.745 3.0281 14.6286V30.4001C3.0281 34.8183 6.60983 38.4001 11.0281 38.4001H20.3995C24.8178 38.4001 28.3995 34.8183 28.3995 30.4001V14.6286C28.3995 13.745 27.6832 13.0286 26.7995 13.0286ZM4.6281 11.4286C2.86079 11.4286 1.4281 12.8613 1.4281 14.6286V30.4001C1.4281 35.702 5.72617 40.0001 11.0281 40.0001H20.3995C25.1567 40.0001 29.1057 36.5398 29.867 31.999C29.9113 31.9996 29.9556 32 30.0001 32C34.734 32 38.5715 28.1624 38.5715 23.4285C38.5715 18.6947 34.734 14.8571 30.0001 14.8571C29.9999 14.8571 29.9997 14.8571 29.9995 14.8571V14.6286C29.9995 12.8613 28.5668 11.4286 26.7995 11.4286H4.6281ZM36.9715 23.4285C36.9715 19.6356 33.9425 16.5502 30.1715 16.4592V30.3979C33.9425 30.3069 36.9715 27.2215 36.9715 23.4285Z" fill="black" fill-opacity="0.2"/>
<path fill-rule="evenodd" clip-rule="evenodd" d="M8.00009 0.342834C8.44192 0.342834 8.80009 0.701007 8.80009 1.14283V8.28569C8.80009 8.72752 8.44192 9.08569 8.00009 9.08569C7.55826 9.08569 7.20009 8.72752 7.20009 8.28569V1.14283C7.20009 0.701007 7.55826 0.342834 8.00009 0.342834ZM15.1429 0.342834C15.5848 0.342834 15.9429 0.701007 15.9429 1.14283V8.28569C15.9429 8.72752 15.5848 9.08569 15.1429 9.08569C14.7011 9.08569 14.3429 8.72752 14.3429 8.28569V1.14283C14.3429 0.701007 14.7011 0.342834 15.1429 0.342834ZM23.0858 1.14283C23.0858 0.701007 22.7276 0.342834 22.2858 0.342834C21.844 0.342834 21.4858 0.701007 21.4858 1.14283V8.28569C21.4858 8.72752 21.844 9.08569 22.2858 9.08569C22.7276 9.08569 23.0858 8.72752 23.0858 8.28569V1.14283ZM26.7995 13.0286H4.6281C3.74445 13.0286 3.0281 13.745 3.0281 14.6286V30.4001C3.0281 34.8183 6.60983 38.4001 11.0281 38.4001H20.3995C24.8178 38.4001 28.3995 34.8183 28.3995 30.4001V14.6286C28.3995 13.745 27.6832 13.0286 26.7995 13.0286ZM4.6281 11.4286C2.86079 11.4286 1.4281 12.8613 1.4281 14.6286V30.4001C1.4281 35.702 5.72617 40.0001 11.0281 40.0001H20.3995C25.1567 40.0001 29.1057 36.5398 29.867 31.999C29.9113 31.9996 29.9556 32 30.0001 32C34.734 32 38.5715 28.1624 38.5715 23.4285C38.5715 18.6947 34.734 14.8571 30.0001 14.8571C29.9999 14.8571 29.9997 14.8571 29.9995 14.8571V14.6286C29.9995 12.8613 28.5668 11.4286 26.7995 11.4286H4.6281ZM36.9715 23.4285C36.9715 19.6356 33.9425 16.5502 30.1715 16.4592V30.3979C33.9425 30.3069 36.9715 27.2215 36.9715 23.4285Z" fill="black" fill-opacity="0.2"/>
</g>
<defs>
<clipPath id="clip0_670_5050">
<rect width="40" height="40" fill="white"/>
</clipPath>
</defs>
</svg>
