<svg width="36" height="43" viewBox="0 0 38 45" fill="none" xmlns="http://www.w3.org/2000/svg">
<g id="Group">
<g id="Vector">
<path d="M13.5651 9.84673C16.0324 9.84673 18.0326 7.86633 18.0326 5.42337C18.0326 2.98041 16.0324 1 13.5651 1C11.0978 1 9.09766 2.98041 9.09766 5.42337C9.09766 7.86633 11.0978 9.84673 13.5651 9.84673Z" stroke="#212121" stroke-width="1.45507" stroke-linecap="round" stroke-linejoin="round"/>
<path d="M13.5651 9.84673C16.0324 9.84673 18.0326 7.86633 18.0326 5.42337C18.0326 2.98041 16.0324 1 13.5651 1C11.0978 1 9.09766 2.98041 9.09766 5.42337C9.09766 7.86633 11.0978 9.84673 13.5651 9.84673Z" stroke="black" stroke-opacity="0.2" stroke-width="1.45507" stroke-linecap="round" stroke-linejoin="round"/>
<path d="M13.5651 9.84673C16.0324 9.84673 18.0326 7.86633 18.0326 5.42337C18.0326 2.98041 16.0324 1 13.5651 1C11.0978 1 9.09766 2.98041 9.09766 5.42337C9.09766 7.86633 11.0978 9.84673 13.5651 9.84673Z" stroke="black" stroke-opacity="0.2" stroke-width="1.45507" stroke-linecap="round" stroke-linejoin="round"/>
<path d="M13.5651 9.84673C16.0324 9.84673 18.0326 7.86633 18.0326 5.42337C18.0326 2.98041 16.0324 1 13.5651 1C11.0978 1 9.09766 2.98041 9.09766 5.42337C9.09766 7.86633 11.0978 9.84673 13.5651 9.84673Z" stroke="black" stroke-opacity="0.2" stroke-width="1.45507" stroke-linecap="round" stroke-linejoin="round"/>
</g>
<g id="Vector_2">
<path d="M33.2629 13.8065L29.0086 22.7912H20.6065C20.6065 22.7912 18.926 22.9049 17.803 20.0155C16.68 17.1261 15.598 13.4251 13.5733 12.9949C11.5486 12.5647 8.8189 12.9949 8.8189 12.9949C8.8189 12.9949 6.83518 13.3033 6.71222 16.1765C6.58926 19.0496 6.27777 29.9579 6.27777 29.9579C6.27777 29.9579 6.03186 32.8392 9.24515 33.0827C11.5158 33.2531 14.2454 33.1882 15.6554 33.1314C16.6882 33.0908 17.6227 33.805 17.7784 34.8195C17.8194 35.0793 17.844 35.3796 17.844 35.7204V43.9909" stroke="#212121" stroke-width="1.45507" stroke-linecap="round" stroke-linejoin="round"/>
<path d="M33.2629 13.8065L29.0086 22.7912H20.6065C20.6065 22.7912 18.926 22.9049 17.803 20.0155C16.68 17.1261 15.598 13.4251 13.5733 12.9949C11.5486 12.5647 8.8189 12.9949 8.8189 12.9949C8.8189 12.9949 6.83518 13.3033 6.71222 16.1765C6.58926 19.0496 6.27777 29.9579 6.27777 29.9579C6.27777 29.9579 6.03186 32.8392 9.24515 33.0827C11.5158 33.2531 14.2454 33.1882 15.6554 33.1314C16.6882 33.0908 17.6227 33.805 17.7784 34.8195C17.8194 35.0793 17.844 35.3796 17.844 35.7204V43.9909" stroke="black" stroke-opacity="0.2" stroke-width="1.45507" stroke-linecap="round" stroke-linejoin="round"/>
<path d="M33.2629 13.8065L29.0086 22.7912H20.6065C20.6065 22.7912 18.926 22.9049 17.803 20.0155C16.68 17.1261 15.598 13.4251 13.5733 12.9949C11.5486 12.5647 8.8189 12.9949 8.8189 12.9949C8.8189 12.9949 6.83518 13.3033 6.71222 16.1765C6.58926 19.0496 6.27777 29.9579 6.27777 29.9579C6.27777 29.9579 6.03186 32.8392 9.24515 33.0827C11.5158 33.2531 14.2454 33.1882 15.6554 33.1314C16.6882 33.0908 17.6227 33.805 17.7784 34.8195C17.8194 35.0793 17.844 35.3796 17.844 35.7204V43.9909" stroke="black" stroke-opacity="0.2" stroke-width="1.45507" stroke-linecap="round" stroke-linejoin="round"/>
<path d="M33.2629 13.8065L29.0086 22.7912H20.6065C20.6065 22.7912 18.926 22.9049 17.803 20.0155C16.68 17.1261 15.598 13.4251 13.5733 12.9949C11.5486 12.5647 8.8189 12.9949 8.8189 12.9949C8.8189 12.9949 6.83518 13.3033 6.71222 16.1765C6.58926 19.0496 6.27777 29.9579 6.27777 29.9579C6.27777 29.9579 6.03186 32.8392 9.24515 33.0827C11.5158 33.2531 14.2454 33.1882 15.6554 33.1314C16.6882 33.0908 17.6227 33.805 17.7784 34.8195C17.8194 35.0793 17.844 35.3796 17.844 35.7204V43.9909" stroke="black" stroke-opacity="0.2" stroke-width="1.45507" stroke-linecap="round" stroke-linejoin="round"/>
</g>
<g id="Vector_3">
<path d="M14.3136 20.7471L14.0021 26.6719C14.0021 26.6719 13.8546 27.9462 16.0186 28.4007C18.1827 28.8552 22.5928 29.7155 22.5928 32.1342V44.0002" stroke="#212121" stroke-width="1.45507" stroke-linecap="round" stroke-linejoin="round"/>
<path d="M14.3136 20.7471L14.0021 26.6719C14.0021 26.6719 13.8546 27.9462 16.0186 28.4007C18.1827 28.8552 22.5928 29.7155 22.5928 32.1342V44.0002" stroke="black" stroke-opacity="0.2" stroke-width="1.45507" stroke-linecap="round" stroke-linejoin="round"/>
<path d="M14.3136 20.7471L14.0021 26.6719C14.0021 26.6719 13.8546 27.9462 16.0186 28.4007C18.1827 28.8552 22.5928 29.7155 22.5928 32.1342V44.0002" stroke="black" stroke-opacity="0.2" stroke-width="1.45507" stroke-linecap="round" stroke-linejoin="round"/>
<path d="M14.3136 20.7471L14.0021 26.6719C14.0021 26.6719 13.8546 27.9462 16.0186 28.4007C18.1827 28.8552 22.5928 29.7155 22.5928 32.1342V44.0002" stroke="black" stroke-opacity="0.2" stroke-width="1.45507" stroke-linecap="round" stroke-linejoin="round"/>
</g>
<g id="Vector_4">
<path d="M19.7656 26.1289H36.9961" stroke="#212121" stroke-width="1.45507" stroke-linecap="round" stroke-linejoin="round"/>
<path d="M19.7656 26.1289H36.9961" stroke="black" stroke-opacity="0.2" stroke-width="1.45507" stroke-linecap="round" stroke-linejoin="round"/>
<path d="M19.7656 26.1289H36.9961" stroke="black" stroke-opacity="0.2" stroke-width="1.45507" stroke-linecap="round" stroke-linejoin="round"/>
<path d="M19.7656 26.1289H36.9961" stroke="black" stroke-opacity="0.2" stroke-width="1.45507" stroke-linecap="round" stroke-linejoin="round"/>
</g>
<g id="Vector_5">
<path d="M1.07992 17.0059C1.07992 17.0059 -0.387381 33.0436 9.25252 33.1004" stroke="#212121" stroke-width="1.45507" stroke-linecap="round" stroke-linejoin="round"/>
<path d="M1.07992 17.0059C1.07992 17.0059 -0.387381 33.0436 9.25252 33.1004" stroke="black" stroke-opacity="0.2" stroke-width="1.45507" stroke-linecap="round" stroke-linejoin="round"/>
<path d="M1.07992 17.0059C1.07992 17.0059 -0.387381 33.0436 9.25252 33.1004" stroke="black" stroke-opacity="0.2" stroke-width="1.45507" stroke-linecap="round" stroke-linejoin="round"/>
<path d="M1.07992 17.0059C1.07992 17.0059 -0.387381 33.0436 9.25252 33.1004" stroke="black" stroke-opacity="0.2" stroke-width="1.45507" stroke-linecap="round" stroke-linejoin="round"/>
</g>
</g>
</svg>
