<svg width="36" height="43" viewBox="0 0 38 45" fill="none" xmlns="http://www.w3.org/2000/svg">
<g id="Group">
<path id="Vector" d="M13.655 9.84673C16.1223 9.84673 18.1224 7.86633 18.1224 5.42337C18.1224 2.98041 16.1223 1 13.655 1C11.1877 1 9.1875 2.98041 9.1875 5.42337C9.1875 7.86633 11.1877 9.84673 13.655 9.84673Z" stroke="#4E32BB" stroke-width="1.45507" stroke-linecap="round" stroke-linejoin="round"/>
<path id="Vector_2" d="M33.3567 13.8065L29.1023 22.7912H20.7002C20.7002 22.7912 19.0198 22.9049 17.8968 20.0155C16.7738 17.1261 15.6917 13.4251 13.667 12.9949C11.6423 12.5647 8.91265 12.9949 8.91265 12.9949C8.91265 12.9949 6.92893 13.3033 6.80597 16.1765C6.68301 19.0496 6.37152 29.9579 6.37152 29.9579C6.37152 29.9579 6.12561 32.8392 9.3389 33.0827C11.6095 33.2531 14.3392 33.1882 15.7491 33.1314C16.782 33.0908 17.7164 33.805 17.8722 34.8195C17.9132 35.0793 17.9378 35.3796 17.9378 35.7204V43.9909" stroke="#4E32BB" stroke-width="1.45507" stroke-linecap="round" stroke-linejoin="round"/>
<path id="Vector_3" d="M14.3996 20.7471L14.0881 26.6719C14.0881 26.6719 13.9405 27.9462 16.1046 28.4007C18.2686 28.8552 22.6787 29.7155 22.6787 32.1342V44.0002" stroke="#4E32BB" stroke-width="1.45507" stroke-linecap="round" stroke-linejoin="round"/>
<g id="Vector_4">
<path d="M19.8594 26.1289H37.0899" stroke="#212121" stroke-width="1.45507" stroke-linecap="round" stroke-linejoin="round"/>
<path d="M19.8594 26.1289H37.0899" stroke="black" stroke-opacity="0.2" stroke-width="1.45507" stroke-linecap="round" stroke-linejoin="round"/>
<path d="M19.8594 26.1289H37.0899" stroke="black" stroke-opacity="0.2" stroke-width="1.45507" stroke-linecap="round" stroke-linejoin="round"/>
<path d="M19.8594 26.1289H37.0899" stroke="black" stroke-opacity="0.2" stroke-width="1.45507" stroke-linecap="round" stroke-linejoin="round"/>
</g>
<g id="Vector_5">
<path d="M1.17367 17.0059C1.17367 17.0059 -0.293631 33.0436 9.34627 33.1004" stroke="#212121" stroke-width="1.45507" stroke-linecap="round" stroke-linejoin="round"/>
<path d="M1.17367 17.0059C1.17367 17.0059 -0.293631 33.0436 9.34627 33.1004" stroke="black" stroke-opacity="0.2" stroke-width="1.45507" stroke-linecap="round" stroke-linejoin="round"/>
<path d="M1.17367 17.0059C1.17367 17.0059 -0.293631 33.0436 9.34627 33.1004" stroke="black" stroke-opacity="0.2" stroke-width="1.45507" stroke-linecap="round" stroke-linejoin="round"/>
<path d="M1.17367 17.0059C1.17367 17.0059 -0.293631 33.0436 9.34627 33.1004" stroke="black" stroke-opacity="0.2" stroke-width="1.45507" stroke-linecap="round" stroke-linejoin="round"/>
</g>
</g>
</svg>
