<svg width="134" height="137" viewBox="0 0 134 137" fill="none" xmlns="http://www.w3.org/2000/svg">
<g filter="url(#filter0_d_875_6637)">
<rect width="114" height="114" rx="57" transform="matrix(-1 0 0 1 124 3)" fill="white"/>
<rect x="-0.3" y="0.3" width="113.4" height="113.4" rx="56.7" transform="matrix(-1 0 0 1 123.4 3)" stroke="#E6E6E6" stroke-width="0.6"/>
</g>
<circle cx="67.0902" cy="60.0894" r="22.8246" stroke="#565656" stroke-width="4.5"/>
<circle cx="67.0894" cy="60.0894" r="7.77982" stroke="#565656" stroke-width="4.5"/>
<path d="M69.3408 30C69.3408 28.7574 68.3335 27.75 67.0908 27.75C65.8482 27.75 64.8408 28.7574 64.8408 30H69.3408ZM64.8408 30V35.9267H69.3408V30H64.8408Z" fill="#565656"/>
<path d="M69.3408 91.0898C69.3408 92.3325 68.3335 93.3398 67.0908 93.3398C65.8482 93.3398 64.8408 92.3325 64.8408 91.0898H69.3408ZM64.8408 91.0898V85.1631H69.3408V91.0898H64.8408Z" fill="#565656"/>
<path d="M98.0898 62.3396C99.3325 62.3396 100.34 61.3322 100.34 60.0896C100.34 58.847 99.3325 57.8396 98.0898 57.8396V62.3396ZM98.0898 57.8396H92.1631V62.3396H98.0898V57.8396Z" fill="#565656"/>
<path d="M37 62.3396C35.7574 62.3396 34.75 61.3322 34.75 60.0896C34.75 58.847 35.7574 57.8396 37 57.8396V62.3396ZM37 57.8396H42.9267V62.3396H37V57.8396Z" fill="#565656"/>
<defs>
<filter id="filter0_d_875_6637" x="0.0309992" y="3" width="133.938" height="133.938" filterUnits="userSpaceOnUse" color-interpolation-filters="sRGB">
<feFlood flood-opacity="0" result="BackgroundImageFix"/>
<feColorMatrix in="SourceAlpha" type="matrix" values="0 0 0 0 0 0 0 0 0 0 0 0 0 0 0 0 0 0 127 0" result="hardAlpha"/>
<feOffset dy="9.969"/>
<feGaussianBlur stdDeviation="4.9845"/>
<feComposite in2="hardAlpha" operator="out"/>
<feColorMatrix type="matrix" values="0 0 0 0 0 0 0 0 0 0 0 0 0 0 0 0 0 0 0.2 0"/>
<feBlend mode="normal" in2="BackgroundImageFix" result="effect1_dropShadow_875_6637"/>
<feBlend mode="normal" in="SourceGraphic" in2="effect1_dropShadow_875_6637" result="shape"/>
</filter>
</defs>
</svg>
