<svg width="36" height="43" viewBox="0 0 36 43" fill="none" xmlns="http://www.w3.org/2000/svg">
<g id="Group 1000011324">
<g id="Vector">
<path d="M20.8848 8.1948H15.313C14.5955 8.1948 14.0612 7.51549 14.2368 6.82091L14.7939 4.5769C14.9161 4.08078 15.3588 3.7373 15.8702 3.7373H20.3276C20.839 3.7373 21.2817 4.08841 21.4039 4.5769L21.961 6.82091C22.1366 7.52312 21.6023 8.1948 20.8848 8.1948Z" stroke="#212121" stroke-width="1.52654" stroke-miterlimit="10"/>
<path d="M20.8848 8.1948H15.313C14.5955 8.1948 14.0612 7.51549 14.2368 6.82091L14.7939 4.5769C14.9161 4.08078 15.3588 3.7373 15.8702 3.7373H20.3276C20.839 3.7373 21.2817 4.08841 21.4039 4.5769L21.961 6.82091C22.1366 7.52312 21.6023 8.1948 20.8848 8.1948Z" stroke="black" stroke-opacity="0.2" stroke-width="1.52654" stroke-miterlimit="10"/>
<path d="M20.8848 8.1948H15.313C14.5955 8.1948 14.0612 7.51549 14.2368 6.82091L14.7939 4.5769C14.9161 4.08078 15.3588 3.7373 15.8702 3.7373H20.3276C20.839 3.7373 21.2817 4.08841 21.4039 4.5769L21.961 6.82091C22.1366 7.52312 21.6023 8.1948 20.8848 8.1948Z" stroke="black" stroke-opacity="0.2" stroke-width="1.52654" stroke-miterlimit="10"/>
<path d="M20.8848 8.1948H15.313C14.5955 8.1948 14.0612 7.51549 14.2368 6.82091L14.7939 4.5769C14.9161 4.08078 15.3588 3.7373 15.8702 3.7373H20.3276C20.839 3.7373 21.2817 4.08841 21.4039 4.5769L21.961 6.82091C22.1366 7.52312 21.6023 8.1948 20.8848 8.1948Z" stroke="black" stroke-opacity="0.2" stroke-width="1.52654" stroke-miterlimit="10"/>
</g>
<g id="Vector_2">
<path d="M18.0977 3.36351V1.4248" stroke="#212121" stroke-width="1.52654" stroke-miterlimit="10" stroke-linecap="round"/>
<path d="M18.0977 3.36351V1.4248" stroke="black" stroke-opacity="0.2" stroke-width="1.52654" stroke-miterlimit="10" stroke-linecap="round"/>
<path d="M18.0977 3.36351V1.4248" stroke="black" stroke-opacity="0.2" stroke-width="1.52654" stroke-miterlimit="10" stroke-linecap="round"/>
<path d="M18.0977 3.36351V1.4248" stroke="black" stroke-opacity="0.2" stroke-width="1.52654" stroke-miterlimit="10" stroke-linecap="round"/>
</g>
<g id="Vector_3">
<path d="M18.0977 11.3623V13.6521" stroke="#212121" stroke-width="1.52654" stroke-miterlimit="10" stroke-linecap="round"/>
<path d="M18.0977 11.3623V13.6521" stroke="black" stroke-opacity="0.2" stroke-width="1.52654" stroke-miterlimit="10" stroke-linecap="round"/>
<path d="M18.0977 11.3623V13.6521" stroke="black" stroke-opacity="0.2" stroke-width="1.52654" stroke-miterlimit="10" stroke-linecap="round"/>
<path d="M18.0977 11.3623V13.6521" stroke="black" stroke-opacity="0.2" stroke-width="1.52654" stroke-miterlimit="10" stroke-linecap="round"/>
</g>
<path id="Vector_4" d="M18.0977 27.6201V42.107" stroke="black" stroke-width="1.52654" stroke-miterlimit="10" stroke-linecap="round"/>
<path id="Vector_5" d="M24.1112 27.6201H12.082" stroke="black" stroke-width="1.52654" stroke-miterlimit="10" stroke-linecap="round"/>
<g id="Vector_6">
<path d="M13.5259 10.4004L12.3047 12.3391" stroke="#212121" stroke-width="1.52654" stroke-miterlimit="10" stroke-linecap="round"/>
<path d="M13.5259 10.4004L12.3047 12.3391" stroke="black" stroke-opacity="0.2" stroke-width="1.52654" stroke-miterlimit="10" stroke-linecap="round"/>
<path d="M13.5259 10.4004L12.3047 12.3391" stroke="black" stroke-opacity="0.2" stroke-width="1.52654" stroke-miterlimit="10" stroke-linecap="round"/>
<path d="M13.5259 10.4004L12.3047 12.3391" stroke="black" stroke-opacity="0.2" stroke-width="1.52654" stroke-miterlimit="10" stroke-linecap="round"/>
</g>
<g id="Vector_7">
<path d="M22.668 10.4004L23.8892 12.3391" stroke="#212121" stroke-width="1.52654" stroke-miterlimit="10" stroke-linecap="round"/>
<path d="M22.668 10.4004L23.8892 12.3391" stroke="black" stroke-opacity="0.2" stroke-width="1.52654" stroke-miterlimit="10" stroke-linecap="round"/>
<path d="M22.668 10.4004L23.8892 12.3391" stroke="black" stroke-opacity="0.2" stroke-width="1.52654" stroke-miterlimit="10" stroke-linecap="round"/>
<path d="M22.668 10.4004L23.8892 12.3391" stroke="black" stroke-opacity="0.2" stroke-width="1.52654" stroke-miterlimit="10" stroke-linecap="round"/>
</g>
<path id="Vector_8" d="M4.11414 19.1169C5.83403 19.1169 7.22827 17.7227 7.22827 16.0028C7.22827 14.2829 5.83403 12.8887 4.11414 12.8887C2.39425 12.8887 1 14.2829 1 16.0028C1 17.7227 2.39425 19.1169 4.11414 19.1169Z" stroke="black" stroke-width="1.52654" stroke-miterlimit="10" stroke-linecap="round"/>
<path id="Vector_9" d="M7.22827 27.5138V26.3918C7.22827 24.3767 5.83149 22.751 4.11414 22.751C2.39678 22.751 1 24.3844 1 26.3918V33.0017H9.76233V42.1151" stroke="black" stroke-width="1.52654" stroke-linecap="round" stroke-linejoin="round"/>
<path id="Vector_10" d="M32.079 19.1169C33.7989 19.1169 35.1931 17.7227 35.1931 16.0028C35.1931 14.2829 33.7989 12.8887 32.079 12.8887C30.3591 12.8887 28.9648 14.2829 28.9648 16.0028C28.9648 17.7227 30.3591 19.1169 32.079 19.1169Z" stroke="black" stroke-width="1.52654" stroke-miterlimit="10" stroke-linecap="round"/>
<path id="Vector_11" d="M28.9675 27.5138V26.3918C28.9675 24.3767 30.3642 22.751 32.0816 22.751C33.799 22.751 35.1957 24.3844 35.1957 26.3918V33.0017H28.9675H26.4258V42.1151" stroke="black" stroke-width="1.52654" stroke-linecap="round" stroke-linejoin="round"/>
</g>
</svg>
