<svg width="93" height="120" viewBox="0 0 93 120" fill="none" xmlns="http://www.w3.org/2000/svg">
<g filter="url(#filter0_d_2389_17882)">
<path d="M80.2129 37.1663C80.2129 58.1342 46.2129 95.6559 46.2129 95.6559C46.2129 95.6559 12.2129 58.1342 12.2129 37.1663C12.2129 16.1985 26.567 0.772156 46.2129 0.772156C65.8588 0.772156 80.2129 16.1985 80.2129 37.1663Z" fill="#4E32BB"/>
<path d="M32.2582 21.4817H44.6326C45.5102 21.4817 46.214 22.1933 46.214 23.0631V52.0341H30.6768V23.071C30.6768 22.1933 31.3884 21.4896 32.2582 21.4896V21.4817Z" stroke="white" stroke-width="2.96511" stroke-miterlimit="10"/>
<path d="M47.7953 31.0573H60.1697C61.0474 31.0573 61.7511 31.7689 61.7511 32.6387V52.0344H46.2139V32.6387C46.2139 31.761 46.9255 31.0573 47.7953 31.0573Z" stroke="white" stroke-width="2.96511" stroke-miterlimit="10"/>
<path d="M50.9663 36.8926H56.9993" stroke="white" stroke-width="2.96511" stroke-miterlimit="10" stroke-linecap="round"/>
<path d="M50.9656 41.5494H56.9986" stroke="white" stroke-width="2.22383" stroke-miterlimit="10" stroke-linecap="round"/>
<path d="M50.9663 46.2065H56.9993" stroke="white" stroke-width="2.96511" stroke-miterlimit="10" stroke-linecap="round"/>
<path d="M41.003 43.2414H35.8477V52.0418H41.003V43.2414Z" stroke="white" stroke-width="2.96511" stroke-miterlimit="10" stroke-linecap="round"/>
<path d="M37.3186 26.3449H34.9861V28.6775H37.3186V26.3449Z" fill="white"/>
<path d="M41.8968 26.3449H39.5642V28.6775H41.8968V26.3449Z" fill="white"/>
<path d="M37.3186 31.397H34.9861V33.7296H37.3186V31.397Z" fill="white"/>
<path d="M41.8968 31.3972H39.5642V33.7298H41.8968V31.3972Z" fill="white"/>
<path d="M37.3186 36.4415H34.9861V38.7741H37.3186V36.4415Z" fill="white"/>
<path d="M41.8968 36.4417H39.5642V38.7743H41.8968V36.4417Z" fill="white"/>
<path d="M25.031 52.0424H67.3966" stroke="white" stroke-width="2.96511" stroke-miterlimit="10" stroke-linecap="round"/>
</g>
<defs>
<filter id="filter0_d_2389_17882" x="0.352426" y="0.772156" width="91.7209" height="118.605" filterUnits="userSpaceOnUse" color-interpolation-filters="sRGB">
<feFlood flood-opacity="0" result="BackgroundImageFix"/>
<feColorMatrix in="SourceAlpha" type="matrix" values="0 0 0 0 0 0 0 0 0 0 0 0 0 0 0 0 0 0 127 0" result="hardAlpha"/>
<feOffset dy="11.8605"/>
<feGaussianBlur stdDeviation="5.93023"/>
<feComposite in2="hardAlpha" operator="out"/>
<feColorMatrix type="matrix" values="0 0 0 0 0 0 0 0 0 0 0 0 0 0 0 0 0 0 0.25 0"/>
<feBlend mode="normal" in2="BackgroundImageFix" result="effect1_dropShadow_2389_17882"/>
<feBlend mode="normal" in="SourceGraphic" in2="effect1_dropShadow_2389_17882" result="shape"/>
</filter>
</defs>
</svg>
