<svg width="15" height="19" viewBox="0 0 15 19" fill="none" xmlns="http://www.w3.org/2000/svg">
<path d="M2.59506 1.39761L3.25669 1.01563C4.22812 0.454769 5.47051 0.787666 6.03137 1.7591L7.26828 3.9015C7.82914 4.87293 7.49624 6.11532 6.52481 6.67618L5.98396 6.98844C5.70566 7.14912 5.61023 7.50527 5.7709 7.78358L8.42663 12.3834C8.58731 12.6617 8.94346 12.7572 9.22177 12.5965L9.76262 12.2842C10.734 11.7234 11.9764 12.0563 12.5373 13.0277L13.7742 15.1701C14.3351 16.1415 14.0022 17.3839 13.0307 17.9448L12.3691 18.3268C11.4922 18.8331 10.4255 18.9378 9.49193 18.5457C7.04015 17.5247 4.64438 15.4003 2.95574 12.4755C1.26711 9.55068 0.625166 6.41366 0.96166 3.78293C1.0888 2.77835 1.71815 1.9039 2.59506 1.39761Z" fill="#919191"/>
</svg>
