<svg width="76" height="104" viewBox="0 0 76 104" fill="none" xmlns="http://www.w3.org/2000/svg">
<g filter="url(#filter0_d_2386_14614)">
<path d="M72 36.8223C72 58.0368 38 96 38 96C38 96 4 58.0368 4 36.8223C4 15.6078 18.3541 0 38 0C57.6459 0 72 15.6078 72 36.8223Z" fill="#4E32BB"/>
<path d="M24.0453 20.9531H36.4197C37.2974 20.9531 38.0011 21.6731 38.0011 22.5531V51.865H22.4639V22.5611C22.4639 21.6731 23.1755 20.9611 24.0453 20.9611V20.9531Z" stroke="white" stroke-width="0.999998" stroke-miterlimit="10"/>
<path d="M39.5824 30.6415H51.9568C52.8345 30.6415 53.5382 31.3615 53.5382 32.2415V51.8654H38.001V32.2415C38.001 31.3535 38.7126 30.6415 39.5824 30.6415Z" stroke="white" stroke-width="0.999998" stroke-miterlimit="10"/>
<path d="M42.7532 36.5453H48.7862" stroke="white" stroke-width="0.999998" stroke-miterlimit="10" stroke-linecap="round"/>
<path d="M42.7532 41.257H48.7862" stroke="white" stroke-width="0.749999" stroke-miterlimit="10" stroke-linecap="round"/>
<path d="M42.7532 45.9688H48.7862" stroke="white" stroke-width="0.999998" stroke-miterlimit="10" stroke-linecap="round"/>
<path d="M32.7904 42.9688H27.635V51.8727H32.7904V42.9688Z" stroke="white" stroke-width="0.999998" stroke-miterlimit="10" stroke-linecap="round"/>
<path d="M29.1058 25.8735H26.7732V28.2335H29.1058V25.8735Z" fill="white"/>
<path d="M33.6839 25.8735H31.3513V28.2335H33.6839V25.8735Z" fill="white"/>
<path d="M29.1058 30.9851H26.7732V33.3451H29.1058V30.9851Z" fill="white"/>
<path d="M33.6839 30.9852H31.3513V33.3452H33.6839V30.9852Z" fill="white"/>
<path d="M29.1058 36.0891H26.7732V38.449H29.1058V36.0891Z" fill="white"/>
<path d="M33.6839 36.0891H31.3513V38.4491H33.6839V36.0891Z" fill="white"/>
<path d="M16.8181 51.8734H59.1837" stroke="white" stroke-width="0.999998" stroke-miterlimit="10" stroke-linecap="round"/>
</g>
<defs>
<filter id="filter0_d_2386_14614" x="0" y="0" width="76" height="104" filterUnits="userSpaceOnUse" color-interpolation-filters="sRGB">
<feFlood flood-opacity="0" result="BackgroundImageFix"/>
<feColorMatrix in="SourceAlpha" type="matrix" values="0 0 0 0 0 0 0 0 0 0 0 0 0 0 0 0 0 0 127 0" result="hardAlpha"/>
<feOffset dy="4"/>
<feGaussianBlur stdDeviation="2"/>
<feComposite in2="hardAlpha" operator="out"/>
<feColorMatrix type="matrix" values="0 0 0 0 0 0 0 0 0 0 0 0 0 0 0 0 0 0 0.25 0"/>
<feBlend mode="normal" in2="BackgroundImageFix" result="effect1_dropShadow_2386_14614"/>
<feBlend mode="normal" in="SourceGraphic" in2="effect1_dropShadow_2386_14614" result="shape"/>
</filter>
</defs>
</svg>
