<svg width="31" height="40" viewBox="0 0 31 40" fill="none" xmlns="http://www.w3.org/2000/svg">
<g filter="url(#filter0_d_956_4468)">
<path d="M26.9333 12.2741C26.9333 19.3456 15.4667 32 15.4667 32C15.4667 32 4 19.3456 4 12.2741C4 5.20262 8.84099 0 15.4667 0C22.0923 0 26.9333 5.20262 26.9333 12.2741Z" fill="#4E32BB"/>
<path d="M10.7603 6.98438H14.9336C15.2296 6.98438 15.4669 7.22437 15.4669 7.51771V17.2883H10.2269V7.52037C10.2269 7.22437 10.4669 6.98704 10.7603 6.98704V6.98438Z" stroke="white" stroke-width="0.999998" stroke-miterlimit="10"/>
<path d="M16.0003 10.2138H20.1736C20.4696 10.2138 20.7069 10.4538 20.7069 10.7471V17.2884H15.4669V10.7471C15.4669 10.4511 15.7069 10.2138 16.0003 10.2138Z" stroke="white" stroke-width="0.999998" stroke-miterlimit="10"/>
<path d="M17.0697 12.1818H19.1043" stroke="white" stroke-width="0.999998" stroke-miterlimit="10" stroke-linecap="round"/>
<path d="M17.0696 13.7523H19.1043" stroke="white" stroke-width="0.749999" stroke-miterlimit="10" stroke-linecap="round"/>
<path d="M17.0697 15.3229H19.1043" stroke="white" stroke-width="0.999998" stroke-miterlimit="10" stroke-linecap="round"/>
<path d="M13.7096 14.3229H11.971V17.2909H13.7096V14.3229Z" stroke="white" stroke-width="0.999998" stroke-miterlimit="10" stroke-linecap="round"/>
<path d="M12.467 8.62451H11.6803V9.41118H12.467V8.62451Z" fill="white"/>
<path d="M14.011 8.62451H13.2243V9.41118H14.011V8.62451Z" fill="white"/>
<path d="M12.4669 10.3284H11.6803V11.115H12.4669V10.3284Z" fill="white"/>
<path d="M14.011 10.3284H13.2243V11.1151H14.011V10.3284Z" fill="white"/>
<path d="M12.4669 12.0297H11.6803V12.8163H12.4669V12.0297Z" fill="white"/>
<path d="M14.011 12.0297H13.2243V12.8164H14.011V12.0297Z" fill="white"/>
<path d="M8.32292 17.2911H22.6109" stroke="white" stroke-width="0.999998" stroke-miterlimit="10" stroke-linecap="round"/>
</g>
<defs>
<filter id="filter0_d_956_4468" x="0" y="0" width="30.9333" height="40" filterUnits="userSpaceOnUse" color-interpolation-filters="sRGB">
<feFlood flood-opacity="0" result="BackgroundImageFix"/>
<feColorMatrix in="SourceAlpha" type="matrix" values="0 0 0 0 0 0 0 0 0 0 0 0 0 0 0 0 0 0 127 0" result="hardAlpha"/>
<feOffset dy="4"/>
<feGaussianBlur stdDeviation="2"/>
<feComposite in2="hardAlpha" operator="out"/>
<feColorMatrix type="matrix" values="0 0 0 0 0 0 0 0 0 0 0 0 0 0 0 0 0 0 0.25 0"/>
<feBlend mode="normal" in2="BackgroundImageFix" result="effect1_dropShadow_956_4468"/>
<feBlend mode="normal" in="SourceGraphic" in2="effect1_dropShadow_956_4468" result="shape"/>
</filter>
</defs>
</svg>
