<svg width="92" height="120" viewBox="0 0 92 120" fill="none" xmlns="http://www.w3.org/2000/svg">
<g filter="url(#filter0_d_2389_17898)">
<path d="M79.938 37.1663C79.938 58.1342 45.938 95.6559 45.938 95.6559C45.938 95.6559 11.938 58.1342 11.938 37.1663C11.938 16.1985 26.2921 0.772156 45.938 0.772156C65.5839 0.772156 79.938 16.1985 79.938 37.1663Z" fill="#696969"/>
<path d="M31.9825 22.0541H44.3569C45.2346 22.0541 45.9383 22.7658 45.9383 23.6355V52.6066H30.4011V23.6434C30.4011 22.7658 31.1128 22.062 31.9825 22.062V22.0541Z" stroke="white" stroke-width="2.96511" stroke-miterlimit="10"/>
<path d="M47.5196 31.6298H59.894C60.7717 31.6298 61.4754 32.3414 61.4754 33.2112V52.6069H45.9382V33.2112C45.9382 32.3335 46.6499 31.6298 47.5196 31.6298Z" stroke="white" stroke-width="2.96511" stroke-miterlimit="10"/>
<path d="M50.6907 37.465H56.7237" stroke="white" stroke-width="2.96511" stroke-miterlimit="10" stroke-linecap="round"/>
<path d="M50.6899 42.1219H56.723" stroke="white" stroke-width="2.22383" stroke-miterlimit="10" stroke-linecap="round"/>
<path d="M50.6907 46.7789H56.7237" stroke="white" stroke-width="2.96511" stroke-miterlimit="10" stroke-linecap="round"/>
<path d="M40.7274 43.8138H35.572V52.6143H40.7274V43.8138Z" stroke="white" stroke-width="2.96511" stroke-miterlimit="10" stroke-linecap="round"/>
<path d="M37.043 26.9174H34.7104V29.2499H37.043V26.9174Z" fill="white"/>
<path d="M41.6211 26.9174H39.2886V29.2499H41.6211V26.9174Z" fill="white"/>
<path d="M37.043 31.9695H34.7104V34.302H37.043V31.9695Z" fill="white"/>
<path d="M41.6211 31.9697H39.2886V34.3022H41.6211V31.9697Z" fill="white"/>
<path d="M37.043 37.014H34.7104V39.3465H37.043V37.014Z" fill="white"/>
<path d="M41.6211 37.0142H39.2886V39.3467H41.6211V37.0142Z" fill="white"/>
<path d="M24.7554 52.6149H67.121" stroke="white" stroke-width="2.96511" stroke-miterlimit="10" stroke-linecap="round"/>
</g>
<defs>
<filter id="filter0_d_2389_17898" x="0.0775232" y="0.772156" width="91.7209" height="118.605" filterUnits="userSpaceOnUse" color-interpolation-filters="sRGB">
<feFlood flood-opacity="0" result="BackgroundImageFix"/>
<feColorMatrix in="SourceAlpha" type="matrix" values="0 0 0 0 0 0 0 0 0 0 0 0 0 0 0 0 0 0 127 0" result="hardAlpha"/>
<feOffset dy="11.8605"/>
<feGaussianBlur stdDeviation="5.93023"/>
<feComposite in2="hardAlpha" operator="out"/>
<feColorMatrix type="matrix" values="0 0 0 0 0 0 0 0 0 0 0 0 0 0 0 0 0 0 0.25 0"/>
<feBlend mode="normal" in2="BackgroundImageFix" result="effect1_dropShadow_2389_17898"/>
<feBlend mode="normal" in="SourceGraphic" in2="effect1_dropShadow_2389_17898" result="shape"/>
</filter>
</defs>
</svg>
