<svg width="40" height="40" viewBox="0 0 40 40" fill="none" xmlns="http://www.w3.org/2000/svg">
<rect x="7.8" y="0.8" width="24.4" height="38.4" stroke="#212121" stroke-width="1.6"/>
<rect x="7.8" y="0.8" width="24.4" height="38.4" stroke="black" stroke-opacity="0.2" stroke-width="1.6"/>
<rect x="7.8" y="0.8" width="24.4" height="38.4" stroke="black" stroke-opacity="0.2" stroke-width="1.6"/>
<rect x="7.8" y="0.8" width="24.4" height="38.4" stroke="black" stroke-opacity="0.2" stroke-width="1.6"/>
<path d="M16.5224 12.4457L17.2802 12.1378C18.3927 11.6857 19.657 12.2438 20.1038 13.3842L21.0892 15.8994C21.536 17.0398 20.9962 18.3311 19.8837 18.7833L19.2643 19.035C18.9456 19.1645 18.7909 19.5347 18.9189 19.8614L21.0346 25.2616C21.1626 25.5884 21.5251 25.7484 21.8438 25.6188L22.4632 25.3671C23.5757 24.915 24.84 25.4731 25.2868 26.6135L26.2722 29.1287C26.719 30.2692 26.1793 31.5604 25.0668 32.0126L24.309 32.3205C23.3048 32.7287 22.1603 32.6721 21.2317 32.0991C18.7916 30.6039 16.5773 27.9235 15.2321 24.4898C13.8868 21.0561 13.681 17.5595 14.4342 14.7666C14.7203 13.6998 15.5182 12.8539 16.5224 12.4457Z" stroke="#212121" stroke-width="1.6" stroke-miterlimit="10" stroke-linecap="round"/>
<path d="M16.5224 12.4457L17.2802 12.1378C18.3927 11.6857 19.657 12.2438 20.1038 13.3842L21.0892 15.8994C21.536 17.0398 20.9962 18.3311 19.8837 18.7833L19.2643 19.035C18.9456 19.1645 18.7909 19.5347 18.9189 19.8614L21.0346 25.2616C21.1626 25.5884 21.5251 25.7484 21.8438 25.6188L22.4632 25.3671C23.5757 24.915 24.84 25.4731 25.2868 26.6135L26.2722 29.1287C26.719 30.2692 26.1793 31.5604 25.0668 32.0126L24.309 32.3205C23.3048 32.7287 22.1603 32.6721 21.2317 32.0991C18.7916 30.6039 16.5773 27.9235 15.2321 24.4898C13.8868 21.0561 13.681 17.5595 14.4342 14.7666C14.7203 13.6998 15.5182 12.8539 16.5224 12.4457Z" stroke="black" stroke-opacity="0.2" stroke-width="1.6" stroke-miterlimit="10" stroke-linecap="round"/>
<path d="M16.5224 12.4457L17.2802 12.1378C18.3927 11.6857 19.657 12.2438 20.1038 13.3842L21.0892 15.8994C21.536 17.0398 20.9962 18.3311 19.8837 18.7833L19.2643 19.035C18.9456 19.1645 18.7909 19.5347 18.9189 19.8614L21.0346 25.2616C21.1626 25.5884 21.5251 25.7484 21.8438 25.6188L22.4632 25.3671C23.5757 24.915 24.84 25.4731 25.2868 26.6135L26.2722 29.1287C26.719 30.2692 26.1793 31.5604 25.0668 32.0126L24.309 32.3205C23.3048 32.7287 22.1603 32.6721 21.2317 32.0991C18.7916 30.6039 16.5773 27.9235 15.2321 24.4898C13.8868 21.0561 13.681 17.5595 14.4342 14.7666C14.7203 13.6998 15.5182 12.8539 16.5224 12.4457Z" stroke="black" stroke-opacity="0.2" stroke-width="1.6" stroke-miterlimit="10" stroke-linecap="round"/>
<path d="M16.5224 12.4457L17.2802 12.1378C18.3927 11.6857 19.657 12.2438 20.1038 13.3842L21.0892 15.8994C21.536 17.0398 20.9962 18.3311 19.8837 18.7833L19.2643 19.035C18.9456 19.1645 18.7909 19.5347 18.9189 19.8614L21.0346 25.2616C21.1626 25.5884 21.5251 25.7484 21.8438 25.6188L22.4632 25.3671C23.5757 24.915 24.84 25.4731 25.2868 26.6135L26.2722 29.1287C26.719 30.2692 26.1793 31.5604 25.0668 32.0126L24.309 32.3205C23.3048 32.7287 22.1603 32.6721 21.2317 32.0991C18.7916 30.6039 16.5773 27.9235 15.2321 24.4898C13.8868 21.0561 13.681 17.5595 14.4342 14.7666C14.7203 13.6998 15.5182 12.8539 16.5224 12.4457Z" stroke="black" stroke-opacity="0.2" stroke-width="1.6" stroke-miterlimit="10" stroke-linecap="round"/>
<path d="M7.93481 5.65732H32.1029" stroke="#212121" stroke-width="1.6"/>
<path d="M7.93481 5.65732H32.1029" stroke="black" stroke-opacity="0.2" stroke-width="1.6"/>
<path d="M7.93481 5.65732H32.1029" stroke="black" stroke-opacity="0.2" stroke-width="1.6"/>
<path d="M7.93481 5.65732H32.1029" stroke="black" stroke-opacity="0.2" stroke-width="1.6"/>
</svg>
