<svg width="40" height="40" viewBox="0 0 40 40" fill="none" xmlns="http://www.w3.org/2000/svg">
<path fill-rule="evenodd" clip-rule="evenodd" d="M9.6 3.6C9.15817 3.6 8.8 3.95817 8.8 4.4V10.8H31.2V4.4C31.2 3.95817 30.8418 3.6 30.4 3.6H9.6ZM8 12.4L8.00125 12.4H31.9987L32 12.4L32.0012 12.4H37.6C38.0418 12.4 38.4 12.7582 38.4 13.2V29.2C38.4 29.6418 38.0418 30 37.6 30H32V19.6H35.2C35.6418 19.6 36 19.2418 36 18.8C36 18.3582 35.6418 18 35.2 18H31.2H8.8H4.8C4.35817 18 4 18.3582 4 18.8C4 19.2418 4.35817 19.6 4.8 19.6H8V30H2.4C1.95817 30 1.6 29.6418 1.6 29.2V13.2C1.6 12.7582 1.95817 12.4 2.4 12.4H7.99875L8 12.4ZM8 31.6H2.4C1.07452 31.6 0 30.5255 0 29.2V13.2C0 11.8745 1.07452 10.8 2.4 10.8H7.2V4.4C7.2 3.07452 8.27451 2 9.6 2H30.4C31.7255 2 32.8 3.07452 32.8 4.4V10.8H37.6C38.9255 10.8 40 11.8745 40 13.2V29.2C40 30.5255 38.9255 31.6 37.6 31.6H32V34.8C32 36.1255 30.9255 37.2 29.6 37.2H10.4C9.07452 37.2 8 36.1255 8 34.8V31.6ZM9.6 19.6V34.8C9.6 35.2418 9.95817 35.6 10.4 35.6H29.6C30.0418 35.6 30.4 35.2418 30.4 34.8V19.6H9.6ZM12.8 23.6C12.8 23.1582 13.1582 22.8 13.6 22.8H26.4C26.8418 22.8 27.2 23.1582 27.2 23.6C27.2 24.0418 26.8418 24.4 26.4 24.4H13.6C13.1582 24.4 12.8 24.0418 12.8 23.6ZM28 14C27.5582 14 27.2 14.3582 27.2 14.8C27.2 15.2418 27.5582 15.6 28 15.6H31.2C31.6418 15.6 32 15.2418 32 14.8C32 14.3582 31.6418 14 31.2 14H28ZM12.8 28.4C12.8 27.9582 13.1582 27.6 13.6 27.6H26.4C26.8418 27.6 27.2 27.9582 27.2 28.4C27.2 28.8418 26.8418 29.2 26.4 29.2H13.6C13.1582 29.2 12.8 28.8418 12.8 28.4ZM13.6 32.4C13.1582 32.4 12.8 32.7582 12.8 33.2C12.8 33.6418 13.1582 34 13.6 34H26.4C26.8418 34 27.2 33.6418 27.2 33.2C27.2 32.7582 26.8418 32.4 26.4 32.4H13.6Z" fill="#212121"/>
<path fill-rule="evenodd" clip-rule="evenodd" d="M9.6 3.6C9.15817 3.6 8.8 3.95817 8.8 4.4V10.8H31.2V4.4C31.2 3.95817 30.8418 3.6 30.4 3.6H9.6ZM8 12.4L8.00125 12.4H31.9987L32 12.4L32.0012 12.4H37.6C38.0418 12.4 38.4 12.7582 38.4 13.2V29.2C38.4 29.6418 38.0418 30 37.6 30H32V19.6H35.2C35.6418 19.6 36 19.2418 36 18.8C36 18.3582 35.6418 18 35.2 18H31.2H8.8H4.8C4.35817 18 4 18.3582 4 18.8C4 19.2418 4.35817 19.6 4.8 19.6H8V30H2.4C1.95817 30 1.6 29.6418 1.6 29.2V13.2C1.6 12.7582 1.95817 12.4 2.4 12.4H7.99875L8 12.4ZM8 31.6H2.4C1.07452 31.6 0 30.5255 0 29.2V13.2C0 11.8745 1.07452 10.8 2.4 10.8H7.2V4.4C7.2 3.07452 8.27451 2 9.6 2H30.4C31.7255 2 32.8 3.07452 32.8 4.4V10.8H37.6C38.9255 10.8 40 11.8745 40 13.2V29.2C40 30.5255 38.9255 31.6 37.6 31.6H32V34.8C32 36.1255 30.9255 37.2 29.6 37.2H10.4C9.07452 37.2 8 36.1255 8 34.8V31.6ZM9.6 19.6V34.8C9.6 35.2418 9.95817 35.6 10.4 35.6H29.6C30.0418 35.6 30.4 35.2418 30.4 34.8V19.6H9.6ZM12.8 23.6C12.8 23.1582 13.1582 22.8 13.6 22.8H26.4C26.8418 22.8 27.2 23.1582 27.2 23.6C27.2 24.0418 26.8418 24.4 26.4 24.4H13.6C13.1582 24.4 12.8 24.0418 12.8 23.6ZM28 14C27.5582 14 27.2 14.3582 27.2 14.8C27.2 15.2418 27.5582 15.6 28 15.6H31.2C31.6418 15.6 32 15.2418 32 14.8C32 14.3582 31.6418 14 31.2 14H28ZM12.8 28.4C12.8 27.9582 13.1582 27.6 13.6 27.6H26.4C26.8418 27.6 27.2 27.9582 27.2 28.4C27.2 28.8418 26.8418 29.2 26.4 29.2H13.6C13.1582 29.2 12.8 28.8418 12.8 28.4ZM13.6 32.4C13.1582 32.4 12.8 32.7582 12.8 33.2C12.8 33.6418 13.1582 34 13.6 34H26.4C26.8418 34 27.2 33.6418 27.2 33.2C27.2 32.7582 26.8418 32.4 26.4 32.4H13.6Z" fill="black" fill-opacity="0.2"/>
<path fill-rule="evenodd" clip-rule="evenodd" d="M9.6 3.6C9.15817 3.6 8.8 3.95817 8.8 4.4V10.8H31.2V4.4C31.2 3.95817 30.8418 3.6 30.4 3.6H9.6ZM8 12.4L8.00125 12.4H31.9987L32 12.4L32.0012 12.4H37.6C38.0418 12.4 38.4 12.7582 38.4 13.2V29.2C38.4 29.6418 38.0418 30 37.6 30H32V19.6H35.2C35.6418 19.6 36 19.2418 36 18.8C36 18.3582 35.6418 18 35.2 18H31.2H8.8H4.8C4.35817 18 4 18.3582 4 18.8C4 19.2418 4.35817 19.6 4.8 19.6H8V30H2.4C1.95817 30 1.6 29.6418 1.6 29.2V13.2C1.6 12.7582 1.95817 12.4 2.4 12.4H7.99875L8 12.4ZM8 31.6H2.4C1.07452 31.6 0 30.5255 0 29.2V13.2C0 11.8745 1.07452 10.8 2.4 10.8H7.2V4.4C7.2 3.07452 8.27451 2 9.6 2H30.4C31.7255 2 32.8 3.07452 32.8 4.4V10.8H37.6C38.9255 10.8 40 11.8745 40 13.2V29.2C40 30.5255 38.9255 31.6 37.6 31.6H32V34.8C32 36.1255 30.9255 37.2 29.6 37.2H10.4C9.07452 37.2 8 36.1255 8 34.8V31.6ZM9.6 19.6V34.8C9.6 35.2418 9.95817 35.6 10.4 35.6H29.6C30.0418 35.6 30.4 35.2418 30.4 34.8V19.6H9.6ZM12.8 23.6C12.8 23.1582 13.1582 22.8 13.6 22.8H26.4C26.8418 22.8 27.2 23.1582 27.2 23.6C27.2 24.0418 26.8418 24.4 26.4 24.4H13.6C13.1582 24.4 12.8 24.0418 12.8 23.6ZM28 14C27.5582 14 27.2 14.3582 27.2 14.8C27.2 15.2418 27.5582 15.6 28 15.6H31.2C31.6418 15.6 32 15.2418 32 14.8C32 14.3582 31.6418 14 31.2 14H28ZM12.8 28.4C12.8 27.9582 13.1582 27.6 13.6 27.6H26.4C26.8418 27.6 27.2 27.9582 27.2 28.4C27.2 28.8418 26.8418 29.2 26.4 29.2H13.6C13.1582 29.2 12.8 28.8418 12.8 28.4ZM13.6 32.4C13.1582 32.4 12.8 32.7582 12.8 33.2C12.8 33.6418 13.1582 34 13.6 34H26.4C26.8418 34 27.2 33.6418 27.2 33.2C27.2 32.7582 26.8418 32.4 26.4 32.4H13.6Z" fill="black" fill-opacity="0.2"/>
<path fill-rule="evenodd" clip-rule="evenodd" d="M9.6 3.6C9.15817 3.6 8.8 3.95817 8.8 4.4V10.8H31.2V4.4C31.2 3.95817 30.8418 3.6 30.4 3.6H9.6ZM8 12.4L8.00125 12.4H31.9987L32 12.4L32.0012 12.4H37.6C38.0418 12.4 38.4 12.7582 38.4 13.2V29.2C38.4 29.6418 38.0418 30 37.6 30H32V19.6H35.2C35.6418 19.6 36 19.2418 36 18.8C36 18.3582 35.6418 18 35.2 18H31.2H8.8H4.8C4.35817 18 4 18.3582 4 18.8C4 19.2418 4.35817 19.6 4.8 19.6H8V30H2.4C1.95817 30 1.6 29.6418 1.6 29.2V13.2C1.6 12.7582 1.95817 12.4 2.4 12.4H7.99875L8 12.4ZM8 31.6H2.4C1.07452 31.6 0 30.5255 0 29.2V13.2C0 11.8745 1.07452 10.8 2.4 10.8H7.2V4.4C7.2 3.07452 8.27451 2 9.6 2H30.4C31.7255 2 32.8 3.07452 32.8 4.4V10.8H37.6C38.9255 10.8 40 11.8745 40 13.2V29.2C40 30.5255 38.9255 31.6 37.6 31.6H32V34.8C32 36.1255 30.9255 37.2 29.6 37.2H10.4C9.07452 37.2 8 36.1255 8 34.8V31.6ZM9.6 19.6V34.8C9.6 35.2418 9.95817 35.6 10.4 35.6H29.6C30.0418 35.6 30.4 35.2418 30.4 34.8V19.6H9.6ZM12.8 23.6C12.8 23.1582 13.1582 22.8 13.6 22.8H26.4C26.8418 22.8 27.2 23.1582 27.2 23.6C27.2 24.0418 26.8418 24.4 26.4 24.4H13.6C13.1582 24.4 12.8 24.0418 12.8 23.6ZM28 14C27.5582 14 27.2 14.3582 27.2 14.8C27.2 15.2418 27.5582 15.6 28 15.6H31.2C31.6418 15.6 32 15.2418 32 14.8C32 14.3582 31.6418 14 31.2 14H28ZM12.8 28.4C12.8 27.9582 13.1582 27.6 13.6 27.6H26.4C26.8418 27.6 27.2 27.9582 27.2 28.4C27.2 28.8418 26.8418 29.2 26.4 29.2H13.6C13.1582 29.2 12.8 28.8418 12.8 28.4ZM13.6 32.4C13.1582 32.4 12.8 32.7582 12.8 33.2C12.8 33.6418 13.1582 34 13.6 34H26.4C26.8418 34 27.2 33.6418 27.2 33.2C27.2 32.7582 26.8418 32.4 26.4 32.4H13.6Z" fill="black" fill-opacity="0.2"/>
</svg>
