<svg width="36" height="43" viewBox="0 0 38 45" fill="none" xmlns="http://www.w3.org/2000/svg">
<g id="&#236;&#152;&#136;&#236;&#149;&#189;/&#235;&#166;&#172;&#236;&#176;&#168;&#236;&#167;&#149;&#235;&#163;&#184;">
<g id="Vector">
<path d="M24.9527 43.9995H9.21886L6.9375 24.2568H24.9527V43.9995Z" stroke="#212121" stroke-width="1.45507" stroke-miterlimit="10"/>
<path d="M24.9527 43.9995H9.21886L6.9375 24.2568H24.9527V43.9995Z" stroke="black" stroke-opacity="0.2" stroke-width="1.45507" stroke-miterlimit="10"/>
<path d="M24.9527 43.9995H9.21886L6.9375 24.2568H24.9527V43.9995Z" stroke="black" stroke-opacity="0.2" stroke-width="1.45507" stroke-miterlimit="10"/>
<path d="M24.9527 43.9995H9.21886L6.9375 24.2568H24.9527V43.9995Z" stroke="black" stroke-opacity="0.2" stroke-width="1.45507" stroke-miterlimit="10"/>
</g>
<g id="Vector_2">
<path d="M35.4474 39.5088H24.9531V44.0007H35.4474V39.5088Z" stroke="#212121" stroke-width="1.45507" stroke-miterlimit="10"/>
<path d="M35.4474 39.5088H24.9531V44.0007H35.4474V39.5088Z" stroke="black" stroke-opacity="0.2" stroke-width="1.45507" stroke-miterlimit="10"/>
<path d="M35.4474 39.5088H24.9531V44.0007H35.4474V39.5088Z" stroke="black" stroke-opacity="0.2" stroke-width="1.45507" stroke-miterlimit="10"/>
<path d="M35.4474 39.5088H24.9531V44.0007H35.4474V39.5088Z" stroke="black" stroke-opacity="0.2" stroke-width="1.45507" stroke-miterlimit="10"/>
</g>
<g id="Vector_3">
<path d="M9.21773 44.0007H4.60938V39.5088H8.70062L9.21773 44.0007Z" stroke="#212121" stroke-width="1.45507" stroke-miterlimit="10"/>
<path d="M9.21773 44.0007H4.60938V39.5088H8.70062L9.21773 44.0007Z" stroke="black" stroke-opacity="0.2" stroke-width="1.45507" stroke-miterlimit="10"/>
<path d="M9.21773 44.0007H4.60938V39.5088H8.70062L9.21773 44.0007Z" stroke="black" stroke-opacity="0.2" stroke-width="1.45507" stroke-miterlimit="10"/>
<path d="M9.21773 44.0007H4.60938V39.5088H8.70062L9.21773 44.0007Z" stroke="black" stroke-opacity="0.2" stroke-width="1.45507" stroke-miterlimit="10"/>
</g>
<g id="Vector_4">
<path d="M11.7283 18.3984H25.9183C27.31 18.3984 28.4354 19.6318 28.4354 21.1569V24.2571H9.21875V21.1569C9.21875 19.6318 10.3442 18.3984 11.7359 18.3984H11.7283Z" stroke="#212121" stroke-width="1.45507" stroke-miterlimit="10"/>
<path d="M11.7283 18.3984H25.9183C27.31 18.3984 28.4354 19.6318 28.4354 21.1569V24.2571H9.21875V21.1569C9.21875 19.6318 10.3442 18.3984 11.7359 18.3984H11.7283Z" stroke="black" stroke-opacity="0.2" stroke-width="1.45507" stroke-miterlimit="10"/>
<path d="M11.7283 18.3984H25.9183C27.31 18.3984 28.4354 19.6318 28.4354 21.1569V24.2571H9.21875V21.1569C9.21875 19.6318 10.3442 18.3984 11.7359 18.3984H11.7283Z" stroke="black" stroke-opacity="0.2" stroke-width="1.45507" stroke-miterlimit="10"/>
<path d="M11.7283 18.3984H25.9183C27.31 18.3984 28.4354 19.6318 28.4354 21.1569V24.2571H9.21875V21.1569C9.21875 19.6318 10.3442 18.3984 11.7359 18.3984H11.7283Z" stroke="black" stroke-opacity="0.2" stroke-width="1.45507" stroke-miterlimit="10"/>
</g>
<g id="Vector_5">
<path d="M12.8884 18.3988L8.6983 2.97305C8.30286 1.51465 6.90363 0.681276 5.57283 1.11463L1.09375 2.57303L6.97967 24.2407" stroke="#212121" stroke-width="1.45507" stroke-miterlimit="10"/>
<path d="M12.8884 18.3988L8.6983 2.97305C8.30286 1.51465 6.90363 0.681276 5.57283 1.11463L1.09375 2.57303L6.97967 24.2407" stroke="black" stroke-opacity="0.2" stroke-width="1.45507" stroke-miterlimit="10"/>
<path d="M12.8884 18.3988L8.6983 2.97305C8.30286 1.51465 6.90363 0.681276 5.57283 1.11463L1.09375 2.57303L6.97967 24.2407" stroke="black" stroke-opacity="0.2" stroke-width="1.45507" stroke-miterlimit="10"/>
<path d="M12.8884 18.3988L8.6983 2.97305C8.30286 1.51465 6.90363 0.681276 5.57283 1.11463L1.09375 2.57303L6.97967 24.2407" stroke="black" stroke-opacity="0.2" stroke-width="1.45507" stroke-miterlimit="10"/>
</g>
<g id="Vector_6">
<path d="M13.8248 40.6502C14.9966 40.6502 15.9465 39.6092 15.9465 38.3251C15.9465 37.041 14.9966 36 13.8248 36C12.653 36 11.7031 37.041 11.7031 38.3251C11.7031 39.6092 12.653 40.6502 13.8248 40.6502Z" stroke="#212121" stroke-width="1.45507" stroke-miterlimit="10"/>
<path d="M13.8248 40.6502C14.9966 40.6502 15.9465 39.6092 15.9465 38.3251C15.9465 37.041 14.9966 36 13.8248 36C12.653 36 11.7031 37.041 11.7031 38.3251C11.7031 39.6092 12.653 40.6502 13.8248 40.6502Z" stroke="black" stroke-opacity="0.2" stroke-width="1.45507" stroke-miterlimit="10"/>
<path d="M13.8248 40.6502C14.9966 40.6502 15.9465 39.6092 15.9465 38.3251C15.9465 37.041 14.9966 36 13.8248 36C12.653 36 11.7031 37.041 11.7031 38.3251C11.7031 39.6092 12.653 40.6502 13.8248 40.6502Z" stroke="black" stroke-opacity="0.2" stroke-width="1.45507" stroke-miterlimit="10"/>
<path d="M13.8248 40.6502C14.9966 40.6502 15.9465 39.6092 15.9465 38.3251C15.9465 37.041 14.9966 36 13.8248 36C12.653 36 11.7031 37.041 11.7031 38.3251C11.7031 39.6092 12.653 40.6502 13.8248 40.6502Z" stroke="black" stroke-opacity="0.2" stroke-width="1.45507" stroke-miterlimit="10"/>
</g>
<g id="Vector_7">
<path d="M24.9531 29.0742H27.7516C27.7516 29.0742 30.1242 28.6075 30.8238 30.8243C31.5235 33.041 33.1052 39.508 33.1052 39.508" stroke="#212121" stroke-width="1.45507" stroke-miterlimit="10"/>
<path d="M24.9531 29.0742H27.7516C27.7516 29.0742 30.1242 28.6075 30.8238 30.8243C31.5235 33.041 33.1052 39.508 33.1052 39.508" stroke="black" stroke-opacity="0.2" stroke-width="1.45507" stroke-miterlimit="10"/>
<path d="M24.9531 29.0742H27.7516C27.7516 29.0742 30.1242 28.6075 30.8238 30.8243C31.5235 33.041 33.1052 39.508 33.1052 39.508" stroke="black" stroke-opacity="0.2" stroke-width="1.45507" stroke-miterlimit="10"/>
<path d="M24.9531 29.0742H27.7516C27.7516 29.0742 30.1242 28.6075 30.8238 30.8243C31.5235 33.041 33.1052 39.508 33.1052 39.508" stroke="black" stroke-opacity="0.2" stroke-width="1.45507" stroke-miterlimit="10"/>
</g>
<g id="Vector_8">
<path d="M21.1016 11.0563C22.4856 9.08125 24.6529 7.79785 27.1092 7.79785C29.5654 7.79785 31.7327 9.08125 33.1168 11.0563" stroke="#212121" stroke-width="1.45507" stroke-miterlimit="10"/>
<path d="M21.1016 11.0563C22.4856 9.08125 24.6529 7.79785 27.1092 7.79785C29.5654 7.79785 31.7327 9.08125 33.1168 11.0563" stroke="black" stroke-opacity="0.2" stroke-width="1.45507" stroke-miterlimit="10"/>
<path d="M21.1016 11.0563C22.4856 9.08125 24.6529 7.79785 27.1092 7.79785C29.5654 7.79785 31.7327 9.08125 33.1168 11.0563" stroke="black" stroke-opacity="0.2" stroke-width="1.45507" stroke-miterlimit="10"/>
<path d="M21.1016 11.0563C22.4856 9.08125 24.6529 7.79785 27.1092 7.79785C29.5654 7.79785 31.7327 9.08125 33.1168 11.0563" stroke="black" stroke-opacity="0.2" stroke-width="1.45507" stroke-miterlimit="10"/>
</g>
<g id="Vector_9">
<path d="M37.0945 8.29871C34.8664 4.88188 31.2314 2.64844 27.1098 2.64844C22.9881 2.64844 19.3531 4.88188 17.125 8.29871" stroke="#212121" stroke-width="1.45507" stroke-miterlimit="10"/>
<path d="M37.0945 8.29871C34.8664 4.88188 31.2314 2.64844 27.1098 2.64844C22.9881 2.64844 19.3531 4.88188 17.125 8.29871" stroke="black" stroke-opacity="0.2" stroke-width="1.45507" stroke-miterlimit="10"/>
<path d="M37.0945 8.29871C34.8664 4.88188 31.2314 2.64844 27.1098 2.64844C22.9881 2.64844 19.3531 4.88188 17.125 8.29871" stroke="black" stroke-opacity="0.2" stroke-width="1.45507" stroke-miterlimit="10"/>
<path d="M37.0945 8.29871C34.8664 4.88188 31.2314 2.64844 27.1098 2.64844C22.9881 2.64844 19.3531 4.88188 17.125 8.29871" stroke="black" stroke-opacity="0.2" stroke-width="1.45507" stroke-miterlimit="10"/>
</g>
<g id="Vector_10">
<path d="M29.1611 13.8069C28.6364 13.2402 27.9064 12.8818 27.1079 12.8818C26.3094 12.8818 25.587 13.2319 25.0547 13.8069" stroke="#212121" stroke-width="1.45507" stroke-miterlimit="10"/>
<path d="M29.1611 13.8069C28.6364 13.2402 27.9064 12.8818 27.1079 12.8818C26.3094 12.8818 25.587 13.2319 25.0547 13.8069" stroke="black" stroke-opacity="0.2" stroke-width="1.45507" stroke-miterlimit="10"/>
<path d="M29.1611 13.8069C28.6364 13.2402 27.9064 12.8818 27.1079 12.8818C26.3094 12.8818 25.587 13.2319 25.0547 13.8069" stroke="black" stroke-opacity="0.2" stroke-width="1.45507" stroke-miterlimit="10"/>
<path d="M29.1611 13.8069C28.6364 13.2402 27.9064 12.8818 27.1079 12.8818C26.3094 12.8818 25.587 13.2319 25.0547 13.8069" stroke="black" stroke-opacity="0.2" stroke-width="1.45507" stroke-miterlimit="10"/>
</g>
<g id="Vector_11">
<path d="M22.2111 27.3818H19.9297V29.882H22.2111V27.3818Z" fill="#212121"/>
<path d="M22.2111 27.3818H19.9297V29.882H22.2111V27.3818Z" fill="black" fill-opacity="0.2"/>
<path d="M22.2111 27.3818H19.9297V29.882H22.2111V27.3818Z" fill="black" fill-opacity="0.2"/>
<path d="M22.2111 27.3818H19.9297V29.882H22.2111V27.3818Z" fill="black" fill-opacity="0.2"/>
</g>
</g>
</svg>
