<svg width="37" height="40" viewBox="0 0 37 40" fill="none" xmlns="http://www.w3.org/2000/svg">
<path d="M23.8304 38.5389H8.7777L6.59509 21.3036H23.8304V38.5389Z" stroke="#212121" stroke-width="1.45507" stroke-miterlimit="10"/>
<path d="M23.8304 38.5389H8.7777L6.59509 21.3036H23.8304V38.5389Z" stroke="black" stroke-opacity="0.2" stroke-width="1.45507" stroke-miterlimit="10"/>
<path d="M23.8304 38.5389H8.7777L6.59509 21.3036H23.8304V38.5389Z" stroke="black" stroke-opacity="0.2" stroke-width="1.45507" stroke-miterlimit="10"/>
<path d="M23.8304 38.5389H8.7777L6.59509 21.3036H23.8304V38.5389Z" stroke="black" stroke-opacity="0.2" stroke-width="1.45507" stroke-miterlimit="10"/>
<path d="M33.8705 34.6177H23.8304V38.5391H33.8705V34.6177Z" stroke="#212121" stroke-width="1.45507" stroke-miterlimit="10"/>
<path d="M33.8705 34.6177H23.8304V38.5391H33.8705V34.6177Z" stroke="black" stroke-opacity="0.2" stroke-width="1.45507" stroke-miterlimit="10"/>
<path d="M33.8705 34.6177H23.8304V38.5391H33.8705V34.6177Z" stroke="black" stroke-opacity="0.2" stroke-width="1.45507" stroke-miterlimit="10"/>
<path d="M33.8705 34.6177H23.8304V38.5391H33.8705V34.6177Z" stroke="black" stroke-opacity="0.2" stroke-width="1.45507" stroke-miterlimit="10"/>
<path d="M8.7702 38.5391H4.36133V34.6177H8.27548L8.7702 38.5391Z" stroke="#212121" stroke-width="1.45507" stroke-miterlimit="10"/>
<path d="M8.7702 38.5391H4.36133V34.6177H8.27548L8.7702 38.5391Z" stroke="black" stroke-opacity="0.2" stroke-width="1.45507" stroke-miterlimit="10"/>
<path d="M8.7702 38.5391H4.36133V34.6177H8.27548L8.7702 38.5391Z" stroke="black" stroke-opacity="0.2" stroke-width="1.45507" stroke-miterlimit="10"/>
<path d="M8.7702 38.5391H4.36133V34.6177H8.27548L8.7702 38.5391Z" stroke="black" stroke-opacity="0.2" stroke-width="1.45507" stroke-miterlimit="10"/>
<path d="M11.1786 16.1891H24.7544C26.0858 16.1891 27.1626 17.2659 27.1626 18.5973V21.3037H8.77771V18.5973C8.77771 17.2659 9.85447 16.1891 11.1859 16.1891H11.1786Z" stroke="#212121" stroke-width="1.45507" stroke-miterlimit="10"/>
<path d="M11.1786 16.1891H24.7544C26.0858 16.1891 27.1626 17.2659 27.1626 18.5973V21.3037H8.77771V18.5973C8.77771 17.2659 9.85447 16.1891 11.1859 16.1891H11.1786Z" stroke="black" stroke-opacity="0.2" stroke-width="1.45507" stroke-miterlimit="10"/>
<path d="M11.1786 16.1891H24.7544C26.0858 16.1891 27.1626 17.2659 27.1626 18.5973V21.3037H8.77771V18.5973C8.77771 17.2659 9.85447 16.1891 11.1859 16.1891H11.1786Z" stroke="black" stroke-opacity="0.2" stroke-width="1.45507" stroke-miterlimit="10"/>
<path d="M11.1786 16.1891H24.7544C26.0858 16.1891 27.1626 17.2659 27.1626 18.5973V21.3037H8.77771V18.5973C8.77771 17.2659 9.85447 16.1891 11.1859 16.1891H11.1786Z" stroke="black" stroke-opacity="0.2" stroke-width="1.45507" stroke-miterlimit="10"/>
<path d="M12.2841 16.1892L8.27537 2.72248C7.89705 1.44929 6.55838 0.721753 5.28519 1.10007L1 2.37326L6.63114 21.2892" stroke="#212121" stroke-width="1.45507" stroke-miterlimit="10"/>
<path d="M12.2841 16.1892L8.27537 2.72248C7.89705 1.44929 6.55838 0.721753 5.28519 1.10007L1 2.37326L6.63114 21.2892" stroke="black" stroke-opacity="0.2" stroke-width="1.45507" stroke-miterlimit="10"/>
<path d="M12.2841 16.1892L8.27537 2.72248C7.89705 1.44929 6.55838 0.721753 5.28519 1.10007L1 2.37326L6.63114 21.2892" stroke="black" stroke-opacity="0.2" stroke-width="1.45507" stroke-miterlimit="10"/>
<path d="M12.2841 16.1892L8.27537 2.72248C7.89705 1.44929 6.55838 0.721753 5.28519 1.10007L1 2.37326L6.63114 21.2892" stroke="black" stroke-opacity="0.2" stroke-width="1.45507" stroke-miterlimit="10"/>
<path d="M13.1791 35.6144C14.3002 35.6144 15.209 34.7056 15.209 33.5846C15.209 32.4636 14.3002 31.5548 13.1791 31.5548C12.0581 31.5548 11.1493 32.4636 11.1493 33.5846C11.1493 34.7056 12.0581 35.6144 13.1791 35.6144Z" stroke="#212121" stroke-width="1.45507" stroke-miterlimit="10"/>
<path d="M13.1791 35.6144C14.3002 35.6144 15.209 34.7056 15.209 33.5846C15.209 32.4636 14.3002 31.5548 13.1791 31.5548C12.0581 31.5548 11.1493 32.4636 11.1493 33.5846C11.1493 34.7056 12.0581 35.6144 13.1791 35.6144Z" stroke="black" stroke-opacity="0.2" stroke-width="1.45507" stroke-miterlimit="10"/>
<path d="M13.1791 35.6144C14.3002 35.6144 15.209 34.7056 15.209 33.5846C15.209 32.4636 14.3002 31.5548 13.1791 31.5548C12.0581 31.5548 11.1493 32.4636 11.1493 33.5846C11.1493 34.7056 12.0581 35.6144 13.1791 35.6144Z" stroke="black" stroke-opacity="0.2" stroke-width="1.45507" stroke-miterlimit="10"/>
<path d="M13.1791 35.6144C14.3002 35.6144 15.209 34.7056 15.209 33.5846C15.209 32.4636 14.3002 31.5548 13.1791 31.5548C12.0581 31.5548 11.1493 32.4636 11.1493 33.5846C11.1493 34.7056 12.0581 35.6144 13.1791 35.6144Z" stroke="black" stroke-opacity="0.2" stroke-width="1.45507" stroke-miterlimit="10"/>
<path d="M23.8304 25.5088H26.5078C26.5078 25.5088 28.7777 25.1014 29.447 27.0366C30.1164 28.9719 31.6296 34.6176 31.6296 34.6176" stroke="#212121" stroke-width="1.45507" stroke-miterlimit="10"/>
<path d="M23.8304 25.5088H26.5078C26.5078 25.5088 28.7777 25.1014 29.447 27.0366C30.1164 28.9719 31.6296 34.6176 31.6296 34.6176" stroke="black" stroke-opacity="0.2" stroke-width="1.45507" stroke-miterlimit="10"/>
<path d="M23.8304 25.5088H26.5078C26.5078 25.5088 28.7777 25.1014 29.447 27.0366C30.1164 28.9719 31.6296 34.6176 31.6296 34.6176" stroke="black" stroke-opacity="0.2" stroke-width="1.45507" stroke-miterlimit="10"/>
<path d="M23.8304 25.5088H26.5078C26.5078 25.5088 28.7777 25.1014 29.447 27.0366C30.1164 28.9719 31.6296 34.6176 31.6296 34.6176" stroke="black" stroke-opacity="0.2" stroke-width="1.45507" stroke-miterlimit="10"/>
<path d="M20.1416 9.77936C21.4657 8.0551 23.5392 6.93469 25.8891 6.93469C28.2391 6.93469 30.3126 8.0551 31.6367 9.77936" stroke="#212121" stroke-width="1.45507" stroke-miterlimit="10"/>
<path d="M20.1416 9.77936C21.4657 8.0551 23.5392 6.93469 25.8891 6.93469C28.2391 6.93469 30.3126 8.0551 31.6367 9.77936" stroke="black" stroke-opacity="0.2" stroke-width="1.45507" stroke-miterlimit="10"/>
<path d="M20.1416 9.77936C21.4657 8.0551 23.5392 6.93469 25.8891 6.93469C28.2391 6.93469 30.3126 8.0551 31.6367 9.77936" stroke="black" stroke-opacity="0.2" stroke-width="1.45507" stroke-miterlimit="10"/>
<path d="M20.1416 9.77936C21.4657 8.0551 23.5392 6.93469 25.8891 6.93469C28.2391 6.93469 30.3126 8.0551 31.6367 9.77936" stroke="black" stroke-opacity="0.2" stroke-width="1.45507" stroke-miterlimit="10"/>
<path d="M35.4417 7.37144C33.31 4.38854 29.8324 2.43874 25.8891 2.43874C21.9459 2.43874 18.4682 4.38854 16.3365 7.37144" stroke="#212121" stroke-width="1.45507" stroke-miterlimit="10"/>
<path d="M35.4417 7.37144C33.31 4.38854 29.8324 2.43874 25.8891 2.43874C21.9459 2.43874 18.4682 4.38854 16.3365 7.37144" stroke="black" stroke-opacity="0.2" stroke-width="1.45507" stroke-miterlimit="10"/>
<path d="M35.4417 7.37144C33.31 4.38854 29.8324 2.43874 25.8891 2.43874C21.9459 2.43874 18.4682 4.38854 16.3365 7.37144" stroke="black" stroke-opacity="0.2" stroke-width="1.45507" stroke-miterlimit="10"/>
<path d="M35.4417 7.37144C33.31 4.38854 29.8324 2.43874 25.8891 2.43874C21.9459 2.43874 18.4682 4.38854 16.3365 7.37144" stroke="black" stroke-opacity="0.2" stroke-width="1.45507" stroke-miterlimit="10"/>
<path d="M27.8536 12.1803C27.3516 11.6856 26.6532 11.3727 25.8893 11.3727C25.1254 11.3727 24.4342 11.6783 23.9249 12.1803" stroke="#212121" stroke-width="1.45507" stroke-miterlimit="10"/>
<path d="M27.8536 12.1803C27.3516 11.6856 26.6532 11.3727 25.8893 11.3727C25.1254 11.3727 24.4342 11.6783 23.9249 12.1803" stroke="black" stroke-opacity="0.2" stroke-width="1.45507" stroke-miterlimit="10"/>
<path d="M27.8536 12.1803C27.3516 11.6856 26.6532 11.3727 25.8893 11.3727C25.1254 11.3727 24.4342 11.6783 23.9249 12.1803" stroke="black" stroke-opacity="0.2" stroke-width="1.45507" stroke-miterlimit="10"/>
<path d="M27.8536 12.1803C27.3516 11.6856 26.6532 11.3727 25.8893 11.3727C25.1254 11.3727 24.4342 11.6783 23.9249 12.1803" stroke="black" stroke-opacity="0.2" stroke-width="1.45507" stroke-miterlimit="10"/>
<path d="M21.2037 24.0318H19.0211V26.2144H21.2037V24.0318Z" fill="#212121"/>
<path d="M21.2037 24.0318H19.0211V26.2144H21.2037V24.0318Z" fill="black" fill-opacity="0.2"/>
<path d="M21.2037 24.0318H19.0211V26.2144H21.2037V24.0318Z" fill="black" fill-opacity="0.2"/>
<path d="M21.2037 24.0318H19.0211V26.2144H21.2037V24.0318Z" fill="black" fill-opacity="0.2"/>
</svg>
