<svg width="36" height="43" viewBox="0 0 38 45" fill="none" xmlns="http://www.w3.org/2000/svg">
<g id="&#236;&#152;&#136;&#236;&#149;&#189;/&#235;&#166;&#172;&#236;&#176;&#168;&#236;&#167;&#149;&#235;&#163;&#184;">
<g id="Vector">
<path d="M24.8628 43.9995H9.12902L6.84766 24.2568H24.8628V43.9995Z" stroke="#212121" stroke-width="1.45507" stroke-miterlimit="10"/>
<path d="M24.8628 43.9995H9.12902L6.84766 24.2568H24.8628V43.9995Z" stroke="black" stroke-opacity="0.2" stroke-width="1.45507" stroke-miterlimit="10"/>
<path d="M24.8628 43.9995H9.12902L6.84766 24.2568H24.8628V43.9995Z" stroke="black" stroke-opacity="0.2" stroke-width="1.45507" stroke-miterlimit="10"/>
<path d="M24.8628 43.9995H9.12902L6.84766 24.2568H24.8628V43.9995Z" stroke="black" stroke-opacity="0.2" stroke-width="1.45507" stroke-miterlimit="10"/>
</g>
<g id="Vector_2">
<path d="M35.3537 39.5088H24.8594V44.0007H35.3537V39.5088Z" stroke="#212121" stroke-width="1.45507" stroke-miterlimit="10"/>
<path d="M35.3537 39.5088H24.8594V44.0007H35.3537V39.5088Z" stroke="black" stroke-opacity="0.2" stroke-width="1.45507" stroke-miterlimit="10"/>
<path d="M35.3537 39.5088H24.8594V44.0007H35.3537V39.5088Z" stroke="black" stroke-opacity="0.2" stroke-width="1.45507" stroke-miterlimit="10"/>
<path d="M35.3537 39.5088H24.8594V44.0007H35.3537V39.5088Z" stroke="black" stroke-opacity="0.2" stroke-width="1.45507" stroke-miterlimit="10"/>
</g>
<g id="Vector_3">
<path d="M9.12008 44.0007H4.51172V39.5088H8.60297L9.12008 44.0007Z" stroke="#212121" stroke-width="1.45507" stroke-miterlimit="10"/>
<path d="M9.12008 44.0007H4.51172V39.5088H8.60297L9.12008 44.0007Z" stroke="black" stroke-opacity="0.2" stroke-width="1.45507" stroke-miterlimit="10"/>
<path d="M9.12008 44.0007H4.51172V39.5088H8.60297L9.12008 44.0007Z" stroke="black" stroke-opacity="0.2" stroke-width="1.45507" stroke-miterlimit="10"/>
<path d="M9.12008 44.0007H4.51172V39.5088H8.60297L9.12008 44.0007Z" stroke="black" stroke-opacity="0.2" stroke-width="1.45507" stroke-miterlimit="10"/>
</g>
<g id="Vector_4">
<path d="M11.6384 18.3984H25.8285C27.2201 18.3984 28.3456 19.6318 28.3456 21.1569V24.2571H9.12891V21.1569C9.12891 19.6318 10.2544 18.3984 11.646 18.3984H11.6384Z" stroke="#212121" stroke-width="1.45507" stroke-miterlimit="10"/>
<path d="M11.6384 18.3984H25.8285C27.2201 18.3984 28.3456 19.6318 28.3456 21.1569V24.2571H9.12891V21.1569C9.12891 19.6318 10.2544 18.3984 11.646 18.3984H11.6384Z" stroke="black" stroke-opacity="0.2" stroke-width="1.45507" stroke-miterlimit="10"/>
<path d="M11.6384 18.3984H25.8285C27.2201 18.3984 28.3456 19.6318 28.3456 21.1569V24.2571H9.12891V21.1569C9.12891 19.6318 10.2544 18.3984 11.646 18.3984H11.6384Z" stroke="black" stroke-opacity="0.2" stroke-width="1.45507" stroke-miterlimit="10"/>
<path d="M11.6384 18.3984H25.8285C27.2201 18.3984 28.3456 19.6318 28.3456 21.1569V24.2571H9.12891V21.1569C9.12891 19.6318 10.2544 18.3984 11.646 18.3984H11.6384Z" stroke="black" stroke-opacity="0.2" stroke-width="1.45507" stroke-miterlimit="10"/>
</g>
<g id="Vector_5">
<path d="M12.7947 18.3988L8.60455 2.97305C8.20911 1.51465 6.80988 0.681276 5.47908 1.11463L1 2.57303L6.88592 24.2407" stroke="#212121" stroke-width="1.45507" stroke-miterlimit="10"/>
<path d="M12.7947 18.3988L8.60455 2.97305C8.20911 1.51465 6.80988 0.681276 5.47908 1.11463L1 2.57303L6.88592 24.2407" stroke="black" stroke-opacity="0.2" stroke-width="1.45507" stroke-miterlimit="10"/>
<path d="M12.7947 18.3988L8.60455 2.97305C8.20911 1.51465 6.80988 0.681276 5.47908 1.11463L1 2.57303L6.88592 24.2407" stroke="black" stroke-opacity="0.2" stroke-width="1.45507" stroke-miterlimit="10"/>
<path d="M12.7947 18.3988L8.60455 2.97305C8.20911 1.51465 6.80988 0.681276 5.47908 1.11463L1 2.57303L6.88592 24.2407" stroke="black" stroke-opacity="0.2" stroke-width="1.45507" stroke-miterlimit="10"/>
</g>
<g id="Vector_6">
<path d="M13.7271 40.6502C14.8989 40.6502 15.8488 39.6092 15.8488 38.3251C15.8488 37.041 14.8989 36 13.7271 36C12.5554 36 11.6055 37.041 11.6055 38.3251C11.6055 39.6092 12.5554 40.6502 13.7271 40.6502Z" stroke="#212121" stroke-width="1.45507" stroke-miterlimit="10"/>
<path d="M13.7271 40.6502C14.8989 40.6502 15.8488 39.6092 15.8488 38.3251C15.8488 37.041 14.8989 36 13.7271 36C12.5554 36 11.6055 37.041 11.6055 38.3251C11.6055 39.6092 12.5554 40.6502 13.7271 40.6502Z" stroke="black" stroke-opacity="0.2" stroke-width="1.45507" stroke-miterlimit="10"/>
<path d="M13.7271 40.6502C14.8989 40.6502 15.8488 39.6092 15.8488 38.3251C15.8488 37.041 14.8989 36 13.7271 36C12.5554 36 11.6055 37.041 11.6055 38.3251C11.6055 39.6092 12.5554 40.6502 13.7271 40.6502Z" stroke="black" stroke-opacity="0.2" stroke-width="1.45507" stroke-miterlimit="10"/>
<path d="M13.7271 40.6502C14.8989 40.6502 15.8488 39.6092 15.8488 38.3251C15.8488 37.041 14.8989 36 13.7271 36C12.5554 36 11.6055 37.041 11.6055 38.3251C11.6055 39.6092 12.5554 40.6502 13.7271 40.6502Z" stroke="black" stroke-opacity="0.2" stroke-width="1.45507" stroke-miterlimit="10"/>
</g>
<g id="Vector_7">
<path d="M24.8594 29.0742H27.6578C27.6578 29.0742 30.0305 28.6075 30.7301 30.8243C31.4297 33.041 33.0115 39.508 33.0115 39.508" stroke="#212121" stroke-width="1.45507" stroke-miterlimit="10"/>
<path d="M24.8594 29.0742H27.6578C27.6578 29.0742 30.0305 28.6075 30.7301 30.8243C31.4297 33.041 33.0115 39.508 33.0115 39.508" stroke="black" stroke-opacity="0.2" stroke-width="1.45507" stroke-miterlimit="10"/>
<path d="M24.8594 29.0742H27.6578C27.6578 29.0742 30.0305 28.6075 30.7301 30.8243C31.4297 33.041 33.0115 39.508 33.0115 39.508" stroke="black" stroke-opacity="0.2" stroke-width="1.45507" stroke-miterlimit="10"/>
<path d="M24.8594 29.0742H27.6578C27.6578 29.0742 30.0305 28.6075 30.7301 30.8243C31.4297 33.041 33.0115 39.508 33.0115 39.508" stroke="black" stroke-opacity="0.2" stroke-width="1.45507" stroke-miterlimit="10"/>
</g>
<path id="Vector_8" d="M21.0078 11.0563C22.3918 9.08125 24.5591 7.79785 27.0154 7.79785C29.4717 7.79785 31.639 9.08125 33.023 11.0563" stroke="#4E32BB" stroke-width="1.45507" stroke-miterlimit="10"/>
<path id="Vector_9" d="M36.9969 8.29871C34.7688 4.88188 31.1338 2.64844 27.0121 2.64844C22.8905 2.64844 19.2555 4.88188 17.0273 8.29871" stroke="#4E32BB" stroke-width="1.45507" stroke-miterlimit="10"/>
<path id="Vector_10" d="M29.0713 13.8069C28.5466 13.2402 27.8166 12.8818 27.0181 12.8818C26.2196 12.8818 25.4972 13.2319 24.9648 13.8069" stroke="#4E32BB" stroke-width="1.45507" stroke-miterlimit="10"/>
<g id="Vector_11">
<path d="M22.1173 27.3818H19.8359V29.882H22.1173V27.3818Z" fill="#212121"/>
<path d="M22.1173 27.3818H19.8359V29.882H22.1173V27.3818Z" fill="black" fill-opacity="0.2"/>
<path d="M22.1173 27.3818H19.8359V29.882H22.1173V27.3818Z" fill="black" fill-opacity="0.2"/>
<path d="M22.1173 27.3818H19.8359V29.882H22.1173V27.3818Z" fill="black" fill-opacity="0.2"/>
</g>
</g>
</svg>
