<svg width="40" height="23" viewBox="0 0 40 23" fill="none" xmlns="http://www.w3.org/2000/svg">
<g clip-path="url(#clip0_670_5033)">
<path d="M20.001 22.2231C25.8932 22.2231 30.6697 17.4222 30.6697 11.5001C30.6697 5.57797 25.8932 0.77713 20.001 0.77713C14.1088 0.77713 9.33228 5.57797 9.33228 11.5001C9.33228 17.4222 14.1088 22.2231 20.001 22.2231Z" stroke="#212121" stroke-width="1.6" stroke-miterlimit="10"/>
<path d="M20.001 22.2231C25.8932 22.2231 30.6697 17.4222 30.6697 11.5001C30.6697 5.57797 25.8932 0.77713 20.001 0.77713C14.1088 0.77713 9.33228 5.57797 9.33228 11.5001C9.33228 17.4222 14.1088 22.2231 20.001 22.2231Z" stroke="black" stroke-opacity="0.2" stroke-width="1.6" stroke-miterlimit="10"/>
<path d="M20.001 22.2231C25.8932 22.2231 30.6697 17.4222 30.6697 11.5001C30.6697 5.57797 25.8932 0.77713 20.001 0.77713C14.1088 0.77713 9.33228 5.57797 9.33228 11.5001C9.33228 17.4222 14.1088 22.2231 20.001 22.2231Z" stroke="black" stroke-opacity="0.2" stroke-width="1.6" stroke-miterlimit="10"/>
<path d="M20.001 22.2231C25.8932 22.2231 30.6697 17.4222 30.6697 11.5001C30.6697 5.57797 25.8932 0.77713 20.001 0.77713C14.1088 0.77713 9.33228 5.57797 9.33228 11.5001C9.33228 17.4222 14.1088 22.2231 20.001 22.2231Z" stroke="black" stroke-opacity="0.2" stroke-width="1.6" stroke-miterlimit="10"/>
<path d="M8.23418 6.69807L0.773804 2.37003V20.6302L8.23418 16.3021" stroke="#212121" stroke-width="1.6" stroke-linejoin="round"/>
<path d="M8.23418 6.69807L0.773804 2.37003V20.6302L8.23418 16.3021" stroke="black" stroke-opacity="0.2" stroke-width="1.6" stroke-linejoin="round"/>
<path d="M8.23418 6.69807L0.773804 2.37003V20.6302L8.23418 16.3021" stroke="black" stroke-opacity="0.2" stroke-width="1.6" stroke-linejoin="round"/>
<path d="M8.23418 6.69807L0.773804 2.37003V20.6302L8.23418 16.3021" stroke="black" stroke-opacity="0.2" stroke-width="1.6" stroke-linejoin="round"/>
<path d="M31.7673 6.69807L39.2277 2.37003V20.6302L31.7673 16.3021" stroke="#212121" stroke-width="1.6" stroke-linejoin="round"/>
<path d="M31.7673 6.69807L39.2277 2.37003V20.6302L31.7673 16.3021" stroke="black" stroke-opacity="0.2" stroke-width="1.6" stroke-linejoin="round"/>
<path d="M31.7673 6.69807L39.2277 2.37003V20.6302L31.7673 16.3021" stroke="black" stroke-opacity="0.2" stroke-width="1.6" stroke-linejoin="round"/>
<path d="M31.7673 6.69807L39.2277 2.37003V20.6302L31.7673 16.3021" stroke="black" stroke-opacity="0.2" stroke-width="1.6" stroke-linejoin="round"/>
</g>
<defs>
<clipPath id="clip0_670_5033">
<rect width="40" height="23" fill="white"/>
</clipPath>
</defs>
</svg>
