<svg width="40" height="40" viewBox="0 0 40 40" fill="none" xmlns="http://www.w3.org/2000/svg">
<g clip-path="url(#clip0_670_5039)">
<path fill-rule="evenodd" clip-rule="evenodd" d="M7.28101 0.996516C6.74148 -0.328268 4.86739 -0.333375 4.32066 0.988461L1.18222 8.57629C1.06192 8.86715 1 9.17884 1 9.4936V31.7687V36.6239C1 37.9493 2.07451 39.0239 3.4 39.0239H8.14827C9.47375 39.0239 10.5483 37.9493 10.5483 36.6239V31.7687V9.48907C10.5483 9.17871 10.4881 8.87129 10.371 8.58385L7.28101 0.996516ZM8.94827 30.9687V9.48907C8.94827 9.38562 8.9282 9.28314 8.88918 9.18733L5.79918 1.6L2.66074 9.18783C2.62064 9.28478 2.6 9.38868 2.6 9.4936V30.9687H8.94827ZM2.6 32.5687H8.94827V36.6239C8.94827 37.0657 8.59009 37.4239 8.14827 37.4239H3.4C2.95817 37.4239 2.6 37.0657 2.6 36.6239V32.5687ZM13.2842 1.72754C13.2842 0.84389 14.0005 0.127543 14.8842 0.127543H36.4064C37.2901 0.127543 38.0064 0.84389 38.0064 1.72754V37.4239C38.0064 38.3075 37.2901 39.0239 36.4064 39.0239H14.8842C14.0005 39.0239 13.2842 38.3075 13.2842 37.4239V1.72754ZM36.4064 1.72754H14.8842V37.4239L36.4064 37.4239V1.72754ZM19.8645 9.45162C19.4226 9.45162 19.0645 9.80979 19.0645 10.2516C19.0645 10.6934 19.4226 11.0516 19.8645 11.0516H32.1481C32.59 11.0516 32.9481 10.6934 32.9481 10.2516C32.9481 9.80979 32.59 9.45162 32.1481 9.45162H19.8645Z" fill="#212121"/>
<path fill-rule="evenodd" clip-rule="evenodd" d="M7.28101 0.996516C6.74148 -0.328268 4.86739 -0.333375 4.32066 0.988461L1.18222 8.57629C1.06192 8.86715 1 9.17884 1 9.4936V31.7687V36.6239C1 37.9493 2.07451 39.0239 3.4 39.0239H8.14827C9.47375 39.0239 10.5483 37.9493 10.5483 36.6239V31.7687V9.48907C10.5483 9.17871 10.4881 8.87129 10.371 8.58385L7.28101 0.996516ZM8.94827 30.9687V9.48907C8.94827 9.38562 8.9282 9.28314 8.88918 9.18733L5.79918 1.6L2.66074 9.18783C2.62064 9.28478 2.6 9.38868 2.6 9.4936V30.9687H8.94827ZM2.6 32.5687H8.94827V36.6239C8.94827 37.0657 8.59009 37.4239 8.14827 37.4239H3.4C2.95817 37.4239 2.6 37.0657 2.6 36.6239V32.5687ZM13.2842 1.72754C13.2842 0.84389 14.0005 0.127543 14.8842 0.127543H36.4064C37.2901 0.127543 38.0064 0.84389 38.0064 1.72754V37.4239C38.0064 38.3075 37.2901 39.0239 36.4064 39.0239H14.8842C14.0005 39.0239 13.2842 38.3075 13.2842 37.4239V1.72754ZM36.4064 1.72754H14.8842V37.4239L36.4064 37.4239V1.72754ZM19.8645 9.45162C19.4226 9.45162 19.0645 9.80979 19.0645 10.2516C19.0645 10.6934 19.4226 11.0516 19.8645 11.0516H32.1481C32.59 11.0516 32.9481 10.6934 32.9481 10.2516C32.9481 9.80979 32.59 9.45162 32.1481 9.45162H19.8645Z" fill="black" fill-opacity="0.2"/>
<path fill-rule="evenodd" clip-rule="evenodd" d="M7.28101 0.996516C6.74148 -0.328268 4.86739 -0.333375 4.32066 0.988461L1.18222 8.57629C1.06192 8.86715 1 9.17884 1 9.4936V31.7687V36.6239C1 37.9493 2.07451 39.0239 3.4 39.0239H8.14827C9.47375 39.0239 10.5483 37.9493 10.5483 36.6239V31.7687V9.48907C10.5483 9.17871 10.4881 8.87129 10.371 8.58385L7.28101 0.996516ZM8.94827 30.9687V9.48907C8.94827 9.38562 8.9282 9.28314 8.88918 9.18733L5.79918 1.6L2.66074 9.18783C2.62064 9.28478 2.6 9.38868 2.6 9.4936V30.9687H8.94827ZM2.6 32.5687H8.94827V36.6239C8.94827 37.0657 8.59009 37.4239 8.14827 37.4239H3.4C2.95817 37.4239 2.6 37.0657 2.6 36.6239V32.5687ZM13.2842 1.72754C13.2842 0.84389 14.0005 0.127543 14.8842 0.127543H36.4064C37.2901 0.127543 38.0064 0.84389 38.0064 1.72754V37.4239C38.0064 38.3075 37.2901 39.0239 36.4064 39.0239H14.8842C14.0005 39.0239 13.2842 38.3075 13.2842 37.4239V1.72754ZM36.4064 1.72754H14.8842V37.4239L36.4064 37.4239V1.72754ZM19.8645 9.45162C19.4226 9.45162 19.0645 9.80979 19.0645 10.2516C19.0645 10.6934 19.4226 11.0516 19.8645 11.0516H32.1481C32.59 11.0516 32.9481 10.6934 32.9481 10.2516C32.9481 9.80979 32.59 9.45162 32.1481 9.45162H19.8645Z" fill="black" fill-opacity="0.2"/>
<path fill-rule="evenodd" clip-rule="evenodd" d="M7.28101 0.996516C6.74148 -0.328268 4.86739 -0.333375 4.32066 0.988461L1.18222 8.57629C1.06192 8.86715 1 9.17884 1 9.4936V31.7687V36.6239C1 37.9493 2.07451 39.0239 3.4 39.0239H8.14827C9.47375 39.0239 10.5483 37.9493 10.5483 36.6239V31.7687V9.48907C10.5483 9.17871 10.4881 8.87129 10.371 8.58385L7.28101 0.996516ZM8.94827 30.9687V9.48907C8.94827 9.38562 8.9282 9.28314 8.88918 9.18733L5.79918 1.6L2.66074 9.18783C2.62064 9.28478 2.6 9.38868 2.6 9.4936V30.9687H8.94827ZM2.6 32.5687H8.94827V36.6239C8.94827 37.0657 8.59009 37.4239 8.14827 37.4239H3.4C2.95817 37.4239 2.6 37.0657 2.6 36.6239V32.5687ZM13.2842 1.72754C13.2842 0.84389 14.0005 0.127543 14.8842 0.127543H36.4064C37.2901 0.127543 38.0064 0.84389 38.0064 1.72754V37.4239C38.0064 38.3075 37.2901 39.0239 36.4064 39.0239H14.8842C14.0005 39.0239 13.2842 38.3075 13.2842 37.4239V1.72754ZM36.4064 1.72754H14.8842V37.4239L36.4064 37.4239V1.72754ZM19.8645 9.45162C19.4226 9.45162 19.0645 9.80979 19.0645 10.2516C19.0645 10.6934 19.4226 11.0516 19.8645 11.0516H32.1481C32.59 11.0516 32.9481 10.6934 32.9481 10.2516C32.9481 9.80979 32.59 9.45162 32.1481 9.45162H19.8645Z" fill="black" fill-opacity="0.2"/>
</g>
<defs>
<clipPath id="clip0_670_5039">
<rect width="40" height="40" fill="white"/>
</clipPath>
</defs>
</svg>
