<svg width="36" height="41" viewBox="0 0 36 41" fill="none" xmlns="http://www.w3.org/2000/svg">
<path d="M17.9962 14.2606C20.2319 14.2606 22.0442 12.4482 22.0442 10.2126C22.0442 7.9769 20.2319 6.16455 17.9962 6.16455C15.7606 6.16455 13.9482 7.9769 13.9482 10.2126C13.9482 12.4482 15.7606 14.2606 17.9962 14.2606Z" stroke="#756F96" stroke-width="1.5" stroke-miterlimit="10"/>
<path d="M24.044 21.4127C24.644 21.4127 25.132 20.8847 25.036 20.2927C24.5 16.8847 21.548 14.2847 17.996 14.2847C14.444 14.2847 11.492 16.8847 10.956 20.2927C10.86 20.8847 11.348 21.4127 11.948 21.4127H24.044Z" stroke="#756F96" stroke-width="1.5" stroke-miterlimit="10"/>
<path d="M34.8279 1.59668H1.17188V39.7727H34.8279V1.59668Z" stroke="#756F96" stroke-width="1.5" stroke-miterlimit="10"/>
<path d="M14.1235 27.6208H29.3555" stroke="#756F96" stroke-width="1.5" stroke-miterlimit="10" stroke-linecap="round"/>
<path d="M14.1235 31.2688H29.3555" stroke="#756F96" stroke-width="1.5" stroke-miterlimit="10" stroke-linecap="round"/>
<path d="M14.1235 34.9087H29.3555" stroke="#756F96" stroke-width="1.5" stroke-miterlimit="10" stroke-linecap="round"/>
<path d="M6.64355 27.6208H10.2836" stroke="#756F96" stroke-width="1.5" stroke-miterlimit="10" stroke-linecap="round"/>
<path d="M6.64355 31.2688H10.2836" stroke="#756F96" stroke-width="1.5" stroke-miterlimit="10" stroke-linecap="round"/>
<path d="M6.64355 34.9087H10.2836" stroke="#756F96" stroke-width="1.5" stroke-miterlimit="10" stroke-linecap="round"/>
</svg>
