<svg width="41" height="40" viewBox="0 0 41 40" fill="none" xmlns="http://www.w3.org/2000/svg">
<path d="M15.8797 19.0983C20.6735 19.0983 24.5597 15.2121 24.5597 10.4183C24.5597 5.62445 20.6735 1.73828 15.8797 1.73828C11.0859 1.73828 7.19971 5.62445 7.19971 10.4183C7.19971 15.2121 11.0859 19.0983 15.8797 19.0983Z" stroke="#756F96" stroke-width="1.5" stroke-miterlimit="10"/>
<path d="M28.8499 34.4382C30.1399 34.4382 31.1799 33.3082 30.9799 32.0382C29.8299 24.7382 23.4999 19.1482 15.8799 19.1482C8.25986 19.1482 1.92986 24.7282 0.769857 32.0282C0.569857 33.2982 1.60986 34.4282 2.89986 34.4282H28.8399L28.8499 34.4382Z" stroke="#756F96" stroke-width="1.5" stroke-miterlimit="10"/>
<path d="M30 39.0879C35.5228 39.0879 40 34.6107 40 29.0879C40 23.565 35.5228 19.0879 30 19.0879C24.4772 19.0879 20 23.565 20 29.0879C20 34.6107 24.4772 39.0879 30 39.0879Z" fill="white" stroke="#756F96" stroke-width="1.5" stroke-miterlimit="10" stroke-linecap="round"/>
<path d="M25.5298 29.0878L29.3298 32.9778L34.2998 24.7778" fill="white"/>
<path d="M25.5298 29.0878L29.3298 32.9778L34.2998 24.7778" stroke="#756F96" stroke-width="1.5" stroke-linecap="round" stroke-linejoin="round"/>
</svg>
