<svg width="24" height="28" viewBox="0 0 24 28" fill="none" xmlns="http://www.w3.org/2000/svg">
<g id="Group">
<g id="Vector">
<path d="M8.68447 6.20537C10.1894 6.20537 11.4095 4.98535 11.4095 3.48037C11.4095 1.9754 10.1894 0.755371 8.68447 0.755371C7.1795 0.755371 5.95947 1.9754 5.95947 3.48037C5.95947 4.98535 7.1795 6.20537 8.68447 6.20537Z" stroke="#212121" stroke-linecap="round" stroke-linejoin="round"/>
<path d="M8.68447 6.20537C10.1894 6.20537 11.4095 4.98535 11.4095 3.48037C11.4095 1.9754 10.1894 0.755371 8.68447 0.755371C7.1795 0.755371 5.95947 1.9754 5.95947 3.48037C5.95947 4.98535 7.1795 6.20537 8.68447 6.20537Z" stroke="black" stroke-opacity="0.2" stroke-linecap="round" stroke-linejoin="round"/>
<path d="M8.68447 6.20537C10.1894 6.20537 11.4095 4.98535 11.4095 3.48037C11.4095 1.9754 10.1894 0.755371 8.68447 0.755371C7.1795 0.755371 5.95947 1.9754 5.95947 3.48037C5.95947 4.98535 7.1795 6.20537 8.68447 6.20537Z" stroke="black" stroke-opacity="0.2" stroke-linecap="round" stroke-linejoin="round"/>
<path d="M8.68447 6.20537C10.1894 6.20537 11.4095 4.98535 11.4095 3.48037C11.4095 1.9754 10.1894 0.755371 8.68447 0.755371C7.1795 0.755371 5.95947 1.9754 5.95947 3.48037C5.95947 4.98535 7.1795 6.20537 8.68447 6.20537Z" stroke="black" stroke-opacity="0.2" stroke-linecap="round" stroke-linejoin="round"/>
</g>
<path id="Vector_2" d="M20.6995 8.64537L18.1045 14.1804H12.9795C12.9795 14.1804 11.9545 14.2504 11.2695 12.4704C10.5845 10.6904 9.92446 8.41037 8.68946 8.14537C7.45446 7.88037 5.78946 8.14537 5.78946 8.14537C5.78946 8.14537 4.57946 8.33536 4.50446 10.1054C4.42946 11.8754 4.23946 18.5954 4.23946 18.5954C4.23946 18.5954 4.08946 20.3704 6.04946 20.5204C7.43446 20.6254 9.09946 20.5854 9.95946 20.5504C10.5895 20.5254 11.1595 20.9654 11.2545 21.5904C11.2795 21.7504 11.2945 21.9354 11.2945 22.1454V27.2404" stroke="#4E32BB" stroke-linecap="round" stroke-linejoin="round"/>
<g id="Vector_3">
<path d="M9.13905 12.9204L8.94905 16.5704C8.94905 16.5704 8.85905 17.3554 10.1791 17.6354C11.4991 17.9154 14.1891 18.4454 14.1891 19.9354V27.2454" stroke="#212121" stroke-linecap="round" stroke-linejoin="round"/>
<path d="M9.13905 12.9204L8.94905 16.5704C8.94905 16.5704 8.85905 17.3554 10.1791 17.6354C11.4991 17.9154 14.1891 18.4454 14.1891 19.9354V27.2454" stroke="black" stroke-opacity="0.2" stroke-linecap="round" stroke-linejoin="round"/>
<path d="M9.13905 12.9204L8.94905 16.5704C8.94905 16.5704 8.85905 17.3554 10.1791 17.6354C11.4991 17.9154 14.1891 18.4454 14.1891 19.9354V27.2454" stroke="black" stroke-opacity="0.2" stroke-linecap="round" stroke-linejoin="round"/>
<path d="M9.13905 12.9204L8.94905 16.5704C8.94905 16.5704 8.85905 17.3554 10.1791 17.6354C11.4991 17.9154 14.1891 18.4454 14.1891 19.9354V27.2454" stroke="black" stroke-opacity="0.2" stroke-linecap="round" stroke-linejoin="round"/>
</g>
<g id="Vector_4">
<path d="M12.4692 16.2354H22.9792" stroke="#212121" stroke-linecap="round" stroke-linejoin="round"/>
<path d="M12.4692 16.2354H22.9792" stroke="black" stroke-opacity="0.2" stroke-linecap="round" stroke-linejoin="round"/>
<path d="M12.4692 16.2354H22.9792" stroke="black" stroke-opacity="0.2" stroke-linecap="round" stroke-linejoin="round"/>
<path d="M12.4692 16.2354H22.9792" stroke="black" stroke-opacity="0.2" stroke-linecap="round" stroke-linejoin="round"/>
</g>
<g id="Vector_5">
<path d="M1.06925 10.6155C1.06925 10.6155 0.174254 20.4955 6.05425 20.5305" stroke="#212121" stroke-linecap="round" stroke-linejoin="round"/>
<path d="M1.06925 10.6155C1.06925 10.6155 0.174254 20.4955 6.05425 20.5305" stroke="black" stroke-opacity="0.2" stroke-linecap="round" stroke-linejoin="round"/>
<path d="M1.06925 10.6155C1.06925 10.6155 0.174254 20.4955 6.05425 20.5305" stroke="black" stroke-opacity="0.2" stroke-linecap="round" stroke-linejoin="round"/>
<path d="M1.06925 10.6155C1.06925 10.6155 0.174254 20.4955 6.05425 20.5305" stroke="black" stroke-opacity="0.2" stroke-linecap="round" stroke-linejoin="round"/>
</g>
</g>
</svg>
