<svg width="16" height="16" viewBox="0 0 16 16" fill="none" xmlns="http://www.w3.org/2000/svg">
<g id="&#236;&#157;&#180;&#236;&#154;&#169;&#234;&#176;&#128;&#236;&#157;&#180;&#235;&#147;&#156;/&#236;&#156;&#160;&#236;&#132;&#160;&#235;&#158;&#156;">
<path id="Vector" d="M12.6621 9.37627V5.05042C12.6621 3.76181 11.6183 2.7207 10.3324 2.7207C9.04381 2.7207 8.0027 3.7645 8.0027 5.05042V7.98544V10.942C8.0027 12.2306 6.9589 13.2717 5.67298 13.2717C4.38437 13.2717 3.34326 12.2279 3.34326 10.942V6.61343" stroke="#756F96" stroke-width="0.8" stroke-miterlimit="10"/>
<path id="Vector_2" d="M4.42484 3.48486H2.25115C2.04017 3.48486 1.86914 3.65589 1.86914 3.86687V6.23156C1.86914 6.44254 2.04017 6.61357 2.25115 6.61357H4.42484C4.63581 6.61357 4.80685 6.44254 4.80685 6.23156V3.86687C4.80685 3.65589 4.63581 3.48486 4.42484 3.48486Z" stroke="#756F96" stroke-width="0.8" stroke-miterlimit="10"/>
<path id="Vector_3" d="M2.93714 1.92188H3.74151C3.85988 1.92188 3.95403 2.01872 3.95403 2.1344V3.48488H2.72461V2.1344C2.72461 2.01603 2.82146 1.92188 2.93714 1.92188Z" stroke="#756F96" stroke-width="0.8" stroke-miterlimit="10"/>
<path id="Vector_4" d="M11.5752 12.5078H13.7488C13.9598 12.5078 14.1309 12.3368 14.1309 12.1258V9.76111C14.1309 9.55013 13.9598 9.3791 13.7488 9.3791H11.5752C11.3642 9.3791 11.1932 9.55013 11.1932 9.76111V12.1258C11.1932 12.3368 11.3642 12.5078 11.5752 12.5078Z" stroke="#756F96" stroke-width="0.8" stroke-miterlimit="10"/>
<path id="Vector_5" d="M13.0658 14.0708H12.2614C12.1431 14.0708 12.0489 13.974 12.0489 13.8583V12.5078H13.2783V13.8583C13.2783 13.9766 13.1815 14.0708 13.0658 14.0708Z" stroke="#756F96" stroke-width="0.8" stroke-miterlimit="10"/>
</g>
</svg>
