<svg width="29" height="34" viewBox="0 0 29 34" fill="none" xmlns="http://www.w3.org/2000/svg">
<g id="Group 1000011324">
<path id="Vector" d="M16.8024 6.13135H12.3889C11.8206 6.13135 11.3974 5.59327 11.5364 5.0431L11.9778 3.26563C12.0745 2.87265 12.4252 2.60059 12.8302 2.60059H16.361C16.7661 2.60059 17.1168 2.87869 17.2135 3.26563L17.6548 5.0431C17.7939 5.59932 17.3707 6.13135 16.8024 6.13135Z" stroke="#4E32BB" stroke-miterlimit="10"/>
<path id="Vector_2" d="M14.5952 2.30419V0.768555" stroke="#4E32BB" stroke-miterlimit="10" stroke-linecap="round"/>
<path id="Vector_3" d="M14.5952 8.6416V10.4553" stroke="#4E32BB" stroke-miterlimit="10" stroke-linecap="round"/>
<path id="Vector_4" d="M14.5952 21.519V32.994" stroke="black" stroke-miterlimit="10" stroke-linecap="round"/>
<path id="Vector_5" d="M19.3603 21.519H9.83203" stroke="black" stroke-miterlimit="10" stroke-linecap="round"/>
<path id="Vector_6" d="M10.9737 7.87915L10.0063 9.41479" stroke="#4E32BB" stroke-miterlimit="10" stroke-linecap="round"/>
<path id="Vector_7" d="M18.2168 7.87915L19.1841 9.41479" stroke="#4E32BB" stroke-miterlimit="10" stroke-linecap="round"/>
<path id="Vector_8" d="M3.51897 14.7828C4.8813 14.7828 5.98569 13.6784 5.98569 12.3161C5.98569 10.9537 4.8813 9.84937 3.51897 9.84937C2.15663 9.84937 1.05225 10.9537 1.05225 12.3161C1.05225 13.6784 2.15663 14.7828 3.51897 14.7828Z" stroke="black" stroke-miterlimit="10" stroke-linecap="round"/>
<path id="Vector_9" d="M5.98569 21.4347V20.546C5.98569 18.9499 4.87929 17.6621 3.51897 17.6621C2.15864 17.6621 1.05225 18.9559 1.05225 20.546V25.7817H7.99292V33.0004" stroke="black" stroke-linecap="round" stroke-linejoin="round"/>
<path id="Vector_10" d="M25.6713 14.7828C27.0336 14.7828 28.138 13.6784 28.138 12.3161C28.138 10.9537 27.0336 9.84937 25.6713 9.84937C24.309 9.84937 23.2046 10.9537 23.2046 12.3161C23.2046 13.6784 24.309 14.7828 25.6713 14.7828Z" stroke="black" stroke-miterlimit="10" stroke-linecap="round"/>
<path id="Vector_11" d="M23.2042 21.4347V20.546C23.2042 18.9499 24.3106 17.6621 25.6709 17.6621C27.0312 17.6621 28.1376 18.9559 28.1376 20.546V25.7817H23.2042H21.1909V33.0004" stroke="black" stroke-linecap="round" stroke-linejoin="round"/>
</g>
</svg>
