<svg width="26" height="28" viewBox="0 0 26 28" fill="none" xmlns="http://www.w3.org/2000/svg">
<g id="&#236;&#152;&#136;&#236;&#149;&#189;/&#235;&#166;&#172;&#236;&#176;&#168;&#236;&#167;&#149;&#235;&#163;&#184;">
<g id="Vector">
<path d="M16.6902 26.7986H6.34521L4.84521 14.9536H16.6902V26.7986Z" stroke="#212121" stroke-miterlimit="10"/>
<path d="M16.6902 26.7986H6.34521L4.84521 14.9536H16.6902V26.7986Z" stroke="black" stroke-opacity="0.2" stroke-miterlimit="10"/>
<path d="M16.6902 26.7986H6.34521L4.84521 14.9536H16.6902V26.7986Z" stroke="black" stroke-opacity="0.2" stroke-miterlimit="10"/>
<path d="M16.6902 26.7986H6.34521L4.84521 14.9536H16.6902V26.7986Z" stroke="black" stroke-opacity="0.2" stroke-miterlimit="10"/>
</g>
<g id="Vector_2">
<path d="M23.5904 24.1038H16.6904V26.7988H23.5904V24.1038Z" stroke="#212121" stroke-miterlimit="10"/>
<path d="M23.5904 24.1038H16.6904V26.7988H23.5904V24.1038Z" stroke="black" stroke-opacity="0.2" stroke-miterlimit="10"/>
<path d="M23.5904 24.1038H16.6904V26.7988H23.5904V24.1038Z" stroke="black" stroke-opacity="0.2" stroke-miterlimit="10"/>
<path d="M23.5904 24.1038H16.6904V26.7988H23.5904V24.1038Z" stroke="black" stroke-opacity="0.2" stroke-miterlimit="10"/>
</g>
<g id="Vector_3">
<path d="M6.34006 26.7988H3.31006V24.1038H6.00006L6.34006 26.7988Z" stroke="#212121" stroke-miterlimit="10"/>
<path d="M6.34006 26.7988H3.31006V24.1038H6.00006L6.34006 26.7988Z" stroke="black" stroke-opacity="0.2" stroke-miterlimit="10"/>
<path d="M6.34006 26.7988H3.31006V24.1038H6.00006L6.34006 26.7988Z" stroke="black" stroke-opacity="0.2" stroke-miterlimit="10"/>
<path d="M6.34006 26.7988H3.31006V24.1038H6.00006L6.34006 26.7988Z" stroke="black" stroke-opacity="0.2" stroke-miterlimit="10"/>
</g>
<g id="Vector_4">
<path d="M7.99522 11.4387H17.3252C18.2402 11.4387 18.9802 12.1787 18.9802 13.0937V14.9537H6.34521V13.0937C6.34521 12.1787 7.08522 11.4387 8.00022 11.4387H7.99522Z" stroke="#212121" stroke-miterlimit="10"/>
<path d="M7.99522 11.4387H17.3252C18.2402 11.4387 18.9802 12.1787 18.9802 13.0937V14.9537H6.34521V13.0937C6.34521 12.1787 7.08522 11.4387 8.00022 11.4387H7.99522Z" stroke="black" stroke-opacity="0.2" stroke-miterlimit="10"/>
<path d="M7.99522 11.4387H17.3252C18.2402 11.4387 18.9802 12.1787 18.9802 13.0937V14.9537H6.34521V13.0937C6.34521 12.1787 7.08522 11.4387 8.00022 11.4387H7.99522Z" stroke="black" stroke-opacity="0.2" stroke-miterlimit="10"/>
<path d="M7.99522 11.4387H17.3252C18.2402 11.4387 18.9802 12.1787 18.9802 13.0937V14.9537H6.34521V13.0937C6.34521 12.1787 7.08522 11.4387 8.00022 11.4387H7.99522Z" stroke="black" stroke-opacity="0.2" stroke-miterlimit="10"/>
</g>
<g id="Vector_5">
<path d="M8.755 11.4388L6 2.18377C5.74 1.30877 4.82 0.808775 3.945 1.06877L1 1.94377L4.87 14.9438" stroke="#212121" stroke-miterlimit="10"/>
<path d="M8.755 11.4388L6 2.18377C5.74 1.30877 4.82 0.808775 3.945 1.06877L1 1.94377L4.87 14.9438" stroke="black" stroke-opacity="0.2" stroke-miterlimit="10"/>
<path d="M8.755 11.4388L6 2.18377C5.74 1.30877 4.82 0.808775 3.945 1.06877L1 1.94377L4.87 14.9438" stroke="black" stroke-opacity="0.2" stroke-miterlimit="10"/>
<path d="M8.755 11.4388L6 2.18377C5.74 1.30877 4.82 0.808775 3.945 1.06877L1 1.94377L4.87 14.9438" stroke="black" stroke-opacity="0.2" stroke-miterlimit="10"/>
</g>
<g id="Vector_6">
<path d="M9.3701 24.7888C10.1405 24.7888 10.7651 24.1642 10.7651 23.3938C10.7651 22.6233 10.1405 21.9988 9.3701 21.9988C8.59966 21.9988 7.9751 22.6233 7.9751 23.3938C7.9751 24.1642 8.59966 24.7888 9.3701 24.7888Z" stroke="#212121" stroke-miterlimit="10"/>
<path d="M9.3701 24.7888C10.1405 24.7888 10.7651 24.1642 10.7651 23.3938C10.7651 22.6233 10.1405 21.9988 9.3701 21.9988C8.59966 21.9988 7.9751 22.6233 7.9751 23.3938C7.9751 24.1642 8.59966 24.7888 9.3701 24.7888Z" stroke="black" stroke-opacity="0.2" stroke-miterlimit="10"/>
<path d="M9.3701 24.7888C10.1405 24.7888 10.7651 24.1642 10.7651 23.3938C10.7651 22.6233 10.1405 21.9988 9.3701 21.9988C8.59966 21.9988 7.9751 22.6233 7.9751 23.3938C7.9751 24.1642 8.59966 24.7888 9.3701 24.7888Z" stroke="black" stroke-opacity="0.2" stroke-miterlimit="10"/>
<path d="M9.3701 24.7888C10.1405 24.7888 10.7651 24.1642 10.7651 23.3938C10.7651 22.6233 10.1405 21.9988 9.3701 21.9988C8.59966 21.9988 7.9751 22.6233 7.9751 23.3938C7.9751 24.1642 8.59966 24.7888 9.3701 24.7888Z" stroke="black" stroke-opacity="0.2" stroke-miterlimit="10"/>
</g>
<g id="Vector_7">
<path d="M16.6904 17.8437H18.5304C18.5304 17.8437 20.0904 17.5637 20.5504 18.8937C21.0104 20.2237 22.0504 24.1037 22.0504 24.1037" stroke="#212121" stroke-miterlimit="10"/>
<path d="M16.6904 17.8437H18.5304C18.5304 17.8437 20.0904 17.5637 20.5504 18.8937C21.0104 20.2237 22.0504 24.1037 22.0504 24.1037" stroke="black" stroke-opacity="0.2" stroke-miterlimit="10"/>
<path d="M16.6904 17.8437H18.5304C18.5304 17.8437 20.0904 17.5637 20.5504 18.8937C21.0104 20.2237 22.0504 24.1037 22.0504 24.1037" stroke="black" stroke-opacity="0.2" stroke-miterlimit="10"/>
<path d="M16.6904 17.8437H18.5304C18.5304 17.8437 20.0904 17.5637 20.5504 18.8937C21.0104 20.2237 22.0504 24.1037 22.0504 24.1037" stroke="black" stroke-opacity="0.2" stroke-miterlimit="10"/>
</g>
<path id="Vector_8" d="M14.1553 7.03361C15.0653 5.84861 16.4903 5.07861 18.1053 5.07861C19.7203 5.07861 21.1453 5.84861 22.0553 7.03361" stroke="#4E32BB" stroke-miterlimit="10"/>
<path id="Vector_9" d="M24.67 5.37877C23.205 3.32877 20.815 1.98877 18.105 1.98877C15.395 1.98877 13.005 3.32877 11.54 5.37877" stroke="#4E32BB" stroke-miterlimit="10"/>
<path id="Vector_10" d="M19.4549 8.68366C19.1099 8.34366 18.6299 8.12866 18.1049 8.12866C17.5799 8.12866 17.1049 8.33866 16.7549 8.68366" stroke="#4E32BB" stroke-miterlimit="10"/>
<g id="Vector_11">
<path d="M14.8848 16.8286H13.3848V18.3286H14.8848V16.8286Z" fill="#212121"/>
<path d="M14.8848 16.8286H13.3848V18.3286H14.8848V16.8286Z" fill="black" fill-opacity="0.2"/>
<path d="M14.8848 16.8286H13.3848V18.3286H14.8848V16.8286Z" fill="black" fill-opacity="0.2"/>
<path d="M14.8848 16.8286H13.3848V18.3286H14.8848V16.8286Z" fill="black" fill-opacity="0.2"/>
</g>
</g>
</svg>
