<svg width="15" height="15" viewBox="0 0 15 15" fill="none" xmlns="http://www.w3.org/2000/svg">
<g id="&#236;&#178;&#180;&#237;&#129;&#172;">
<path id="Exclude" fill-rule="evenodd" clip-rule="evenodd" d="M7.61719 14.5C11.4832 14.5 14.6172 11.366 14.6172 7.5C14.6172 3.63401 11.4832 0.5 7.61719 0.5C3.75119 0.5 0.617188 3.63401 0.617188 7.5C0.617188 11.366 3.75119 14.5 7.61719 14.5ZM10.9771 5.85997C11.1759 5.66116 11.1759 5.33882 10.9771 5.14001C10.7783 4.9412 10.4559 4.9412 10.2571 5.14001L6.61711 8.78003L4.97709 7.14001C4.77828 6.9412 4.45594 6.9412 4.25713 7.14001C4.05832 7.33882 4.05832 7.66116 4.25713 7.85997L6.61711 10.22L10.9771 5.85997Z" fill="#373737"/>
</g>
</svg>
