<svg width="36" height="24" viewBox="0 0 36 24" fill="none" xmlns="http://www.w3.org/2000/svg">
<g id="navi">
<path id="Subtract" d="M29.2936 11.824C29.2936 18.3543 23.9998 23.6481 17.4696 23.6481C10.9393 23.6481 5.64552 18.3543 5.64552 11.824C5.64552 5.29381 10.9393 0 17.4696 0C23.9998 0 29.2936 5.29381 29.2936 11.824Z" fill="#373737"/>
<path id="Ellipse 3688" d="M26.567 5.32966C30.3377 4.82661 32.9859 5.19065 33.4839 6.51927C34.3846 8.92234 27.9098 13.5709 19.022 16.9021C10.1343 20.2333 2.19914 20.9857 1.29844 18.5827C0.768663 17.1692 2.7906 14.9789 6.35438 12.7367" stroke="#373737" stroke-width="2"/>
<path id="Vector 1898 (Stroke)" fill-rule="evenodd" clip-rule="evenodd" d="M34.7086 11.2574C24.4579 18.1546 12.9397 21.1195 2.29229 23.1524L2.0453 21.6977C12.6518 19.6725 23.95 16.7467 33.9653 10.0079L34.7086 11.2574Z" fill="white"/>
</g>
</svg>
