<svg width="21" height="24" viewBox="0 0 21 24" fill="none" xmlns="http://www.w3.org/2000/svg">
<g id="navi">
<rect id="Rectangle 42694" x="5.37461" y="12.6" width="15" height="10.8" rx="1.2" stroke="#373737" stroke-width="1.2"/>
<path id="Rectangle 42693" d="M1.17466 1.8C1.17466 1.13726 1.71192 0.6 2.37466 0.6H16.7747C17.4374 0.6 17.9747 1.13726 17.9747 1.8V23.4H2.37466C1.71192 23.4 1.17466 22.8627 1.17466 22.2V1.8Z" fill="white" stroke="#373737" stroke-width="1.2"/>
<path id="Vector 1911" d="M4.77461 5.39999H14.3746" stroke="#373737" stroke-width="1.2" stroke-linecap="round"/>
<path id="Vector 1912" d="M4.77461 9H10.7746" stroke="#373737" stroke-width="1.2" stroke-linecap="round"/>
<path id="Rectangle 42694_2" d="M17.9746 12.6H19.1746C19.8374 12.6 20.3746 13.1373 20.3746 13.8V22.2C20.3746 22.8627 19.8374 23.4 19.1746 23.4C18.5119 23.4 17.9746 22.8627 17.9746 22.2V12.6Z" stroke="#373737" stroke-width="1.2"/>
</g>
</svg>
