<svg width="14" height="14" viewBox="0 0 14 14" fill="none" xmlns="http://www.w3.org/2000/svg">
<rect width="14" height="14" fill="#1E1E1E"/>
<g id="0507 &#62; 0. &#237;&#154;&#140;&#236;&#155;&#144;&#234;&#176;&#128;&#236;&#158;&#133;">
<path d="M-3406 -2024C-3406 -2025.1 -3405.1 -2026 -3404 -2026H6022C6023.1 -2026 6024 -2025.1 6024 -2024V2385C6024 2386.1 6023.1 2387 6022 2387H-3404C-3405.1 2387 -3406 2386.1 -3406 2385V-2024Z" fill="#2C2C2C"/>
<path d="M-3404 -2025H6022V-2027H-3404V-2025ZM6023 -2024V2385H6025V-2024H6023ZM6022 2386H-3404V2388H6022V2386ZM-3405 2385V-2024H-3407V2385H-3405ZM-3404 2386C-3404.55 2386 -3405 2385.55 -3405 2385H-3407C-3407 2386.66 -3405.66 2388 -3404 2388V2386ZM6023 2385C6023 2385.55 6022.55 2386 6022 2386V2388C6023.66 2388 6025 2386.66 6025 2385H6023ZM6022 -2025C6022.55 -2025 6023 -2024.55 6023 -2024H6025C6025 -2025.66 6023.66 -2027 6022 -2027V-2025ZM-3404 -2027C-3405.66 -2027 -3407 -2025.66 -3407 -2024H-3405C-3405 -2024.55 -3404.55 -2025 -3404 -2025V-2027Z" fill="white" fill-opacity="0.1"/>
<g id="0.&#237;&#154;&#140;&#236;&#155;&#144;&#234;&#176;&#128;&#236;&#158;&#133;/4-2" clip-path="url(#clip0_0_1)">
<rect width="393" height="852" transform="translate(-16 -425)" fill="white"/>
<g id="Group 1000011269">
<circle id="Ellipse 3710" cx="7" cy="7" r="7" fill="#E4E0F5"/>
<path id="!" d="M7.3245 3L7.24247 9.09375H6.2581L6.17607 3H7.3245ZM6.75028 11.5547C6.34013 11.5547 5.98857 11.2148 6.00028 10.793C5.98857 10.3828 6.34013 10.043 6.75028 10.043C7.16044 10.043 7.50028 10.3828 7.50028 10.793C7.50028 11.2148 7.16044 11.5547 6.75028 11.5547Z" fill="#2F1E70"/>
</g>
</g>
</g>
<defs>
<clipPath id="clip0_0_1">
<rect width="393" height="852" fill="white" transform="translate(-16 -425)"/>
</clipPath>
</defs>
</svg>
