<svg width="20" height="19" viewBox="0 0 20 19" fill="none" xmlns="http://www.w3.org/2000/svg">
<g id="Group 1000011478">
<g id="Group 1000011472">
<g id="Subtract">
<mask id="path-1-inside-1_1554_9978" fill="white">
<path fill-rule="evenodd" clip-rule="evenodd" d="M8.98629 1.63477C4.57558 1.63477 1 5.21035 1 9.62106C1 14.0318 4.57558 17.6074 8.98629 17.6074C12.4719 17.6074 15.4371 15.3741 16.5268 12.2589C16.618 11.9983 16.9032 11.8609 17.1639 11.9521C17.4245 12.0433 17.5619 12.3285 17.4707 12.5891C16.2451 16.093 12.91 18.6074 8.98629 18.6074C4.0233 18.6074 0 14.5841 0 9.62106C0 4.65807 4.0233 0.634766 8.98629 0.634766C13.0578 0.634766 16.4958 3.34217 17.6004 7.05378C17.6792 7.31845 17.5285 7.59686 17.2638 7.67563C16.9991 7.7544 16.7207 7.6037 16.6419 7.33903C15.66 4.03978 12.6034 1.63477 8.98629 1.63477Z"/>
</mask>
<path fill-rule="evenodd" clip-rule="evenodd" d="M8.98629 1.63477C4.57558 1.63477 1 5.21035 1 9.62106C1 14.0318 4.57558 17.6074 8.98629 17.6074C12.4719 17.6074 15.4371 15.3741 16.5268 12.2589C16.618 11.9983 16.9032 11.8609 17.1639 11.9521C17.4245 12.0433 17.5619 12.3285 17.4707 12.5891C16.2451 16.093 12.91 18.6074 8.98629 18.6074C4.0233 18.6074 0 14.5841 0 9.62106C0 4.65807 4.0233 0.634766 8.98629 0.634766C13.0578 0.634766 16.4958 3.34217 17.6004 7.05378C17.6792 7.31845 17.5285 7.59686 17.2638 7.67563C16.9991 7.7544 16.7207 7.6037 16.6419 7.33903C15.66 4.03978 12.6034 1.63477 8.98629 1.63477Z" fill="white"/>
<path d="M16.5268 12.2589L17.099 12.4591V12.4591L16.5268 12.2589ZM17.1639 11.9521L17.364 11.3799V11.3799L17.1639 11.9521ZM17.4707 12.5891L18.0429 12.7893V12.7893L17.4707 12.5891ZM17.6004 7.05378L17.0194 7.22669V7.22669L17.6004 7.05378ZM17.2638 7.67563L17.0909 7.09465L17.0909 7.09465L17.2638 7.67563ZM16.6419 7.33903L16.0609 7.51194V7.51194L16.6419 7.33903ZM1.60616 9.62106C1.60616 5.54513 4.91036 2.24093 8.98629 2.24093V1.0286C4.24081 1.0286 0.393836 4.87558 0.393836 9.62106H1.60616ZM8.98629 17.0012C4.91036 17.0012 1.60616 13.697 1.60616 9.62106H0.393836C0.393836 14.3665 4.24081 18.2135 8.98629 18.2135V17.0012ZM15.9546 12.0588C14.9474 14.9383 12.2064 17.0012 8.98629 17.0012V18.2135C12.7373 18.2135 15.9268 15.81 17.099 12.4591L15.9546 12.0588ZM17.364 11.3799C16.7873 11.1782 16.1564 11.4821 15.9546 12.0588L17.099 12.4591C17.0796 12.5144 17.0191 12.5436 16.9637 12.5242L17.364 11.3799ZM18.0429 12.7893C18.2446 12.2126 17.9407 11.5816 17.364 11.3799L16.9637 12.5242C16.9084 12.5049 16.8792 12.4443 16.8986 12.389L18.0429 12.7893ZM8.98629 19.2135C13.1756 19.2135 16.7348 16.5287 18.0429 12.7893L16.8986 12.389C15.7553 15.6573 12.6443 18.0012 8.98629 18.0012V19.2135ZM-0.606164 9.62106C-0.606164 14.9188 3.68852 19.2135 8.98629 19.2135V18.0012C4.35808 18.0012 0.606164 14.2493 0.606164 9.62106H-0.606164ZM8.98629 0.0286018C3.68852 0.0286018 -0.606164 4.32329 -0.606164 9.62106H0.606164C0.606164 4.99284 4.35808 1.24093 8.98629 1.24093V0.0286018ZM18.1814 6.88087C17.0024 2.91937 13.3334 0.0286018 8.98629 0.0286018V1.24093C12.7823 1.24093 15.9891 3.76496 17.0194 7.22669L18.1814 6.88087ZM17.4367 8.25661C18.0222 8.08235 18.3556 7.46641 18.1814 6.88087L17.0194 7.22669C17.0027 7.17049 17.0347 7.11138 17.0909 7.09465L17.4367 8.25661ZM16.0609 7.51194C16.2352 8.09747 16.8512 8.43088 17.4367 8.25661L17.0909 7.09465C17.1471 7.07793 17.2062 7.10993 17.2229 7.16612L16.0609 7.51194ZM8.98629 2.24093C12.328 2.24093 15.1535 4.46273 16.0609 7.51194L17.2229 7.16612C16.1666 3.61683 12.8788 1.0286 8.98629 1.0286V2.24093Z" fill="#4E32BB" mask="url(#path-1-inside-1_1554_9978)"/>
</g>
<path id="Vector 3373" d="M19.1225 2.04669L17.5943 7.24984C17.5 7.57104 17.1631 7.75496 16.8419 7.66062L11.7932 6.17781" stroke="#4E32BB" stroke-linecap="round"/>
</g>
</g>
</svg>
