<svg width="30" height="20" viewBox="0 0 30 20" fill="none" xmlns="http://www.w3.org/2000/svg">
<g id="navi">
<path id="Ellipse 3686" d="M24.8489 10C24.8489 15.5228 20.3717 20 14.8489 20C9.32603 20 4.84888 15.5228 4.84888 10C4.84888 4.47715 9.32603 0 14.8489 0C20.3717 0 24.8489 4.47715 24.8489 10Z" fill="white"/>
<path id="Subtract" fill-rule="evenodd" clip-rule="evenodd" d="M23.2493 12.9126C22.0434 16.3913 18.7377 18.8889 14.8486 18.8889C13.2561 18.8889 11.7614 18.4701 10.4686 17.7366C9.98305 17.8693 9.49792 17.9976 9.01346 18.1219C10.6557 19.3038 12.6708 20 14.8486 20C19.6192 20 23.6095 16.6595 24.6081 12.1901C24.1575 12.4385 23.7045 12.6792 23.2493 12.9126ZM9.2574 16.9106C7.24572 15.2809 5.95974 12.7906 5.95974 10C5.95974 5.0908 9.93944 1.11111 14.8486 1.11111C19.7578 1.11111 23.7375 5.0908 23.7375 10C23.7375 10.4988 23.6964 10.988 23.6175 11.4645C24.0195 11.2483 24.4195 11.026 24.8173 10.7975C24.8381 10.5344 24.8486 10.2684 24.8486 10C24.8486 4.47715 20.3715 0 14.8486 0C9.32579 0 4.84863 4.47715 4.84863 10C4.84863 12.8501 6.04094 15.4217 7.95396 17.2432C8.3881 17.1354 8.82265 17.0246 9.2574 16.9106Z" fill="#212121"/>
<path id="Ellipse 3688" d="M22.4686 4.83117C25.6576 4.40571 27.8974 4.7136 28.3185 5.83726C29.0803 7.86961 23.6043 11.8011 16.0876 14.6184C8.5709 17.4357 1.8599 18.0721 1.09815 16.0397C0.650097 14.8443 2.36012 12.9918 5.37413 11.0955" stroke="#212121"/>
</g>
</svg>
