<svg width="23" height="23" viewBox="0 0 23 23" fill="none" xmlns="http://www.w3.org/2000/svg">
<path d="M15.9946 9.16211V15.6067H14.6505V10.435H14.6149L13.1372 11.3607V10.1769L14.7306 9.16211H15.9946Z" fill="#212121"/>
<path d="M11.3426 14.8235C10.9242 14.8235 10.586 14.4852 10.5949 14.0758C10.586 13.6663 10.9242 13.337 11.3426 13.337C11.7342 13.337 12.0814 13.6663 12.0814 14.0758C12.0814 14.4852 11.7342 14.8235 11.3426 14.8235ZM11.3426 11.4321C10.9242 11.4321 10.586 11.0938 10.5949 10.6844C10.586 10.2749 10.9242 9.94556 11.3426 9.94556C11.7342 9.94556 12.0814 10.2749 12.0814 10.6844C12.0814 11.0938 11.7342 11.4321 11.3426 11.4321Z" fill="#212121"/>
<path d="M9.06417 9.16211V15.6067H7.72007V10.435H7.68447L6.20685 11.3607V10.1769L7.80018 9.16211H9.06417Z" fill="#212121"/>
<mask id="path-4-inside-1_505_2019" fill="white">
<path fill-rule="evenodd" clip-rule="evenodd" d="M20.8379 18.0479C22.0181 16.2951 22.7068 14.1841 22.7068 11.9121C22.7068 5.83698 17.782 0.912109 11.7068 0.912109C5.63172 0.912109 0.706848 5.83698 0.706848 11.9121C0.706848 17.9872 5.63172 22.9121 11.7068 22.9121C13.669 22.9121 15.5112 22.3983 17.1063 21.498L20.7302 22.5262C21.3226 22.6943 21.8749 22.158 21.7242 21.5609L20.8379 18.0479Z"/>
</mask>
<path d="M20.8379 18.0479L19.5937 17.2102L19.2197 17.7656L19.3835 18.4149L20.8379 18.0479ZM17.1063 21.498L17.5157 20.0549L16.9138 19.8842L16.3689 20.1917L17.1063 21.498ZM20.7302 22.5262L21.1396 21.0832L21.1396 21.0832L20.7302 22.5262ZM21.7242 21.5609L23.1786 21.1939L21.7242 21.5609ZM21.2068 11.9121C21.2068 13.8764 20.6123 15.6972 19.5937 17.2102L22.0822 18.8857C23.4238 16.8931 24.2068 14.4918 24.2068 11.9121H21.2068ZM11.7068 2.41211C16.9536 2.41211 21.2068 6.6654 21.2068 11.9121H24.2068C24.2068 5.00855 18.6104 -0.587891 11.7068 -0.587891V2.41211ZM2.20685 11.9121C2.20685 6.6654 6.46014 2.41211 11.7068 2.41211V-0.587891C4.80329 -0.587891 -0.793152 5.00855 -0.793152 11.9121H2.20685ZM11.7068 21.4121C6.46014 21.4121 2.20685 17.1588 2.20685 11.9121H-0.793152C-0.793152 18.8157 4.80329 24.4121 11.7068 24.4121V21.4121ZM16.3689 20.1917C14.993 20.9684 13.404 21.4121 11.7068 21.4121V24.4121C13.9341 24.4121 16.0295 23.8283 17.8436 22.8042L16.3689 20.1917ZM21.1396 21.0832L17.5157 20.0549L16.6968 22.941L20.3207 23.9692L21.1396 21.0832ZM20.2698 21.9278C20.138 21.4053 20.6212 20.9361 21.1396 21.0832L20.3207 23.9692C22.024 24.4525 23.6118 22.9107 23.1786 21.1939L20.2698 21.9278ZM19.3835 18.4149L20.2698 21.9278L23.1786 21.1939L22.2924 17.681L19.3835 18.4149Z" fill="#212121" mask="url(#path-4-inside-1_505_2019)"/>
</svg>
