<svg width="37" height="42" viewBox="0 0 37 42" fill="none" xmlns="http://www.w3.org/2000/svg">
<path d="M32.2477 21.6694C30.5089 21.6694 29.1048 22.9862 29.1048 24.6086V27.9262C29.1048 29.5486 27.7006 30.8654 25.9618 30.8654H10.4289C8.69007 30.8654 7.28592 29.5486 7.28592 27.9262V24.6086C7.28592 22.9862 5.88178 21.6694 4.14296 21.6694C2.40415 21.6694 1 22.9862 1 24.6086V29.4104V30.1597C1 33.6083 3.99018 36.402 7.67152 36.402H28.7119C32.4005 36.402 35.3834 33.6083 35.3834 30.1597V29.4104V24.6086C35.3834 22.9862 33.9793 21.6694 32.2404 21.6694H32.2477Z" stroke="#212121" stroke-width="1.45507" stroke-miterlimit="10"/>
<path d="M32.2477 21.6694C30.5089 21.6694 29.1048 22.9862 29.1048 24.6086V27.9262C29.1048 29.5486 27.7006 30.8654 25.9618 30.8654H10.4289C8.69007 30.8654 7.28592 29.5486 7.28592 27.9262V24.6086C7.28592 22.9862 5.88178 21.6694 4.14296 21.6694C2.40415 21.6694 1 22.9862 1 24.6086V29.4104V30.1597C1 33.6083 3.99018 36.402 7.67152 36.402H28.7119C32.4005 36.402 35.3834 33.6083 35.3834 30.1597V29.4104V24.6086C35.3834 22.9862 33.9793 21.6694 32.2404 21.6694H32.2477Z" stroke="black" stroke-opacity="0.2" stroke-width="1.45507" stroke-miterlimit="10"/>
<path d="M32.2477 21.6694C30.5089 21.6694 29.1048 22.9862 29.1048 24.6086V27.9262C29.1048 29.5486 27.7006 30.8654 25.9618 30.8654H10.4289C8.69007 30.8654 7.28592 29.5486 7.28592 27.9262V24.6086C7.28592 22.9862 5.88178 21.6694 4.14296 21.6694C2.40415 21.6694 1 22.9862 1 24.6086V29.4104V30.1597C1 33.6083 3.99018 36.402 7.67152 36.402H28.7119C32.4005 36.402 35.3834 33.6083 35.3834 30.1597V29.4104V24.6086C35.3834 22.9862 33.9793 21.6694 32.2404 21.6694H32.2477Z" stroke="black" stroke-opacity="0.2" stroke-width="1.45507" stroke-miterlimit="10"/>
<path d="M32.2477 21.6694C30.5089 21.6694 29.1048 22.9862 29.1048 24.6086V27.9262C29.1048 29.5486 27.7006 30.8654 25.9618 30.8654H10.4289C8.69007 30.8654 7.28592 29.5486 7.28592 27.9262V24.6086C7.28592 22.9862 5.88178 21.6694 4.14296 21.6694C2.40415 21.6694 1 22.9862 1 24.6086V29.4104V30.1597C1 33.6083 3.99018 36.402 7.67152 36.402H28.7119C32.4005 36.402 35.3834 33.6083 35.3834 30.1597V29.4104V24.6086C35.3834 22.9862 33.9793 21.6694 32.2404 21.6694H32.2477Z" stroke="black" stroke-opacity="0.2" stroke-width="1.45507" stroke-miterlimit="10"/>
<path d="M5.50342 21.9604L6.01269 19.1448C6.49287 17.3187 8.85736 15.9873 11.622 15.9873H24.7759C27.5405 15.9873 29.905 17.3187 30.3852 19.1448L30.8945 21.9604" stroke="#212121" stroke-width="1.45507" stroke-miterlimit="10"/>
<path d="M5.50342 21.9604L6.01269 19.1448C6.49287 17.3187 8.85736 15.9873 11.622 15.9873H24.7759C27.5405 15.9873 29.905 17.3187 30.3852 19.1448L30.8945 21.9604" stroke="black" stroke-opacity="0.2" stroke-width="1.45507" stroke-miterlimit="10"/>
<path d="M5.50342 21.9604L6.01269 19.1448C6.49287 17.3187 8.85736 15.9873 11.622 15.9873H24.7759C27.5405 15.9873 29.905 17.3187 30.3852 19.1448L30.8945 21.9604" stroke="black" stroke-opacity="0.2" stroke-width="1.45507" stroke-miterlimit="10"/>
<path d="M5.50342 21.9604L6.01269 19.1448C6.49287 17.3187 8.85736 15.9873 11.622 15.9873H24.7759C27.5405 15.9873 29.905 17.3187 30.3852 19.1448L30.8945 21.9604" stroke="black" stroke-opacity="0.2" stroke-width="1.45507" stroke-miterlimit="10"/>
<path d="M9.46853 36.3947L8.65369 40.9636" stroke="#212121" stroke-width="1.45507" stroke-miterlimit="10"/>
<path d="M9.46853 36.3947L8.65369 40.9636" stroke="black" stroke-opacity="0.2" stroke-width="1.45507" stroke-miterlimit="10"/>
<path d="M9.46853 36.3947L8.65369 40.9636" stroke="black" stroke-opacity="0.2" stroke-width="1.45507" stroke-miterlimit="10"/>
<path d="M9.46853 36.3947L8.65369 40.9636" stroke="black" stroke-opacity="0.2" stroke-width="1.45507" stroke-miterlimit="10"/>
<path d="M26.9296 36.3947L27.7444 40.9636" stroke="#212121" stroke-width="1.45507" stroke-miterlimit="10"/>
<path d="M26.9296 36.3947L27.7444 40.9636" stroke="black" stroke-opacity="0.2" stroke-width="1.45507" stroke-miterlimit="10"/>
<path d="M26.9296 36.3947L27.7444 40.9636" stroke="black" stroke-opacity="0.2" stroke-width="1.45507" stroke-miterlimit="10"/>
<path d="M26.9296 36.3947L27.7444 40.9636" stroke="black" stroke-opacity="0.2" stroke-width="1.45507" stroke-miterlimit="10"/>
<path d="M20.8546 7.45327H15.5436C14.8597 7.45327 14.3504 6.80576 14.5178 6.1437L15.0489 4.00474C15.1653 3.53184 15.5873 3.20445 16.0747 3.20445H20.3235C20.811 3.20445 21.2329 3.53912 21.3494 4.00474L21.8805 6.1437C22.0478 6.81304 21.5385 7.45327 20.8546 7.45327Z" stroke="#212121" stroke-width="1.45507" stroke-miterlimit="10"/>
<path d="M20.8546 7.45327H15.5436C14.8597 7.45327 14.3504 6.80576 14.5178 6.1437L15.0489 4.00474C15.1653 3.53184 15.5873 3.20445 16.0747 3.20445H20.3235C20.811 3.20445 21.2329 3.53912 21.3494 4.00474L21.8805 6.1437C22.0478 6.81304 21.5385 7.45327 20.8546 7.45327Z" stroke="black" stroke-opacity="0.2" stroke-width="1.45507" stroke-miterlimit="10"/>
<path d="M20.8546 7.45327H15.5436C14.8597 7.45327 14.3504 6.80576 14.5178 6.1437L15.0489 4.00474C15.1653 3.53184 15.5873 3.20445 16.0747 3.20445H20.3235C20.811 3.20445 21.2329 3.53912 21.3494 4.00474L21.8805 6.1437C22.0478 6.81304 21.5385 7.45327 20.8546 7.45327Z" stroke="black" stroke-opacity="0.2" stroke-width="1.45507" stroke-miterlimit="10"/>
<path d="M20.8546 7.45327H15.5436C14.8597 7.45327 14.3504 6.80576 14.5178 6.1437L15.0489 4.00474C15.1653 3.53184 15.5873 3.20445 16.0747 3.20445H20.3235C20.811 3.20445 21.2329 3.53912 21.3494 4.00474L21.8805 6.1437C22.0478 6.81304 21.5385 7.45327 20.8546 7.45327Z" stroke="black" stroke-opacity="0.2" stroke-width="1.45507" stroke-miterlimit="10"/>
<path d="M18.1991 2.84794V1" stroke="#212121" stroke-width="1.45507" stroke-miterlimit="10" stroke-linecap="round"/>
<path d="M18.1991 2.84794V1" stroke="black" stroke-opacity="0.2" stroke-width="1.45507" stroke-miterlimit="10" stroke-linecap="round"/>
<path d="M18.1991 2.84794V1" stroke="black" stroke-opacity="0.2" stroke-width="1.45507" stroke-miterlimit="10" stroke-linecap="round"/>
<path d="M18.1991 2.84794V1" stroke="black" stroke-opacity="0.2" stroke-width="1.45507" stroke-miterlimit="10" stroke-linecap="round"/>
<path d="M18.1991 10.4725V12.6551" stroke="#212121" stroke-width="1.45507" stroke-miterlimit="10" stroke-linecap="round"/>
<path d="M18.1991 10.4725V12.6551" stroke="black" stroke-opacity="0.2" stroke-width="1.45507" stroke-miterlimit="10" stroke-linecap="round"/>
<path d="M18.1991 10.4725V12.6551" stroke="black" stroke-opacity="0.2" stroke-width="1.45507" stroke-miterlimit="10" stroke-linecap="round"/>
<path d="M18.1991 10.4725V12.6551" stroke="black" stroke-opacity="0.2" stroke-width="1.45507" stroke-miterlimit="10" stroke-linecap="round"/>
<path d="M13.8413 9.55585L12.6772 11.4038" stroke="#212121" stroke-width="1.45507" stroke-miterlimit="10" stroke-linecap="round"/>
<path d="M13.8413 9.55585L12.6772 11.4038" stroke="black" stroke-opacity="0.2" stroke-width="1.45507" stroke-miterlimit="10" stroke-linecap="round"/>
<path d="M13.8413 9.55585L12.6772 11.4038" stroke="black" stroke-opacity="0.2" stroke-width="1.45507" stroke-miterlimit="10" stroke-linecap="round"/>
<path d="M13.8413 9.55585L12.6772 11.4038" stroke="black" stroke-opacity="0.2" stroke-width="1.45507" stroke-miterlimit="10" stroke-linecap="round"/>
<path d="M22.5573 9.55585L23.7213 11.4038" stroke="#212121" stroke-width="1.45507" stroke-miterlimit="10" stroke-linecap="round"/>
<path d="M22.5573 9.55585L23.7213 11.4038" stroke="black" stroke-opacity="0.2" stroke-width="1.45507" stroke-miterlimit="10" stroke-linecap="round"/>
<path d="M22.5573 9.55585L23.7213 11.4038" stroke="black" stroke-opacity="0.2" stroke-width="1.45507" stroke-miterlimit="10" stroke-linecap="round"/>
<path d="M22.5573 9.55585L23.7213 11.4038" stroke="black" stroke-opacity="0.2" stroke-width="1.45507" stroke-miterlimit="10" stroke-linecap="round"/>
</svg>
