<svg width="24" height="23" viewBox="0 0 24 23" fill="none" xmlns="http://www.w3.org/2000/svg">
<g id="all/&#236;&#149;&#140;&#235;&#166;&#188;">
<path id="Subtract" fill-rule="evenodd" clip-rule="evenodd" d="M8.71206 18.1621C8.23288 18.1621 7.86671 18.5979 8.02655 19.0496C8.67259 20.8754 10.2278 22.1621 12.0436 22.1621C13.8595 22.1621 15.4147 20.8754 16.0607 19.0496C16.2206 18.5979 15.8544 18.1621 15.3752 18.1621C15.0182 18.1621 14.716 18.4114 14.5797 18.7413C14.0809 19.9485 13.0387 20.6621 12.0436 20.6621C11.0486 20.6621 10.0064 19.9485 9.50764 18.7413C9.37131 18.4114 9.06907 18.1621 8.71206 18.1621Z" fill="#212121"/>
<path id="Vector 1885" d="M2.91217 12.1621L1.41217 16.1621" stroke="#212121" stroke-width="1.5" stroke-linecap="round" stroke-linejoin="round"/>
<path id="Vector 1886" d="M21.0259 12.1622L22.5916 16.137" stroke="#212121" stroke-width="1.5" stroke-linecap="round" stroke-linejoin="round"/>
<path id="Rectangle 42684" d="M5.91971 6.83311C6.29476 3.73907 8.92082 1.41211 12.0375 1.41211C15.2106 1.41211 17.8651 3.82161 18.1713 6.97993L19.0859 16.4121H4.75857L5.91971 6.83311Z" stroke="#212121" stroke-width="1.5"/>
</g>
</svg>
