<svg width="40" height="40" viewBox="0 0 40 40" fill="none" xmlns="http://www.w3.org/2000/svg">
<rect x="3" y="10.3632" width="28.2424" height="19.2577" stroke="#212121" stroke-width="1.6" stroke-linejoin="round"/>
<rect x="3" y="10.3632" width="28.2424" height="19.2577" stroke="black" stroke-opacity="0.2" stroke-width="1.6" stroke-linejoin="round"/>
<rect x="3" y="10.3632" width="28.2424" height="19.2577" stroke="black" stroke-opacity="0.2" stroke-width="1.6" stroke-linejoin="round"/>
<rect x="3" y="10.3632" width="28.2424" height="19.2577" stroke="black" stroke-opacity="0.2" stroke-width="1.6" stroke-linejoin="round"/>
<rect x="12.5564" y="10.3632" width="9.12914" height="9.83214" stroke="#212121" stroke-width="1.6" stroke-linejoin="round"/>
<rect x="12.5564" y="10.3632" width="9.12914" height="9.83214" stroke="black" stroke-opacity="0.2" stroke-width="1.6" stroke-linejoin="round"/>
<rect x="12.5564" y="10.3632" width="9.12914" height="9.83214" stroke="black" stroke-opacity="0.2" stroke-width="1.6" stroke-linejoin="round"/>
<rect x="12.5564" y="10.3632" width="9.12914" height="9.83214" stroke="black" stroke-opacity="0.2" stroke-width="1.6" stroke-linejoin="round"/>
<rect x="12.5564" y="7.15924" width="9.12914" height="3.20391" stroke="#212121" stroke-width="1.6" stroke-linejoin="round"/>
<rect x="12.5564" y="7.15924" width="9.12914" height="3.20391" stroke="black" stroke-opacity="0.2" stroke-width="1.6" stroke-linejoin="round"/>
<rect x="12.5564" y="7.15924" width="9.12914" height="3.20391" stroke="black" stroke-opacity="0.2" stroke-width="1.6" stroke-linejoin="round"/>
<rect x="12.5564" y="7.15924" width="9.12914" height="3.20391" stroke="black" stroke-opacity="0.2" stroke-width="1.6" stroke-linejoin="round"/>
<path d="M6.92256 3H27.3198L31.2424 10.3631H3L6.92256 3Z" stroke="#212121" stroke-width="1.6" stroke-linejoin="round"/>
<path d="M6.92256 3H27.3198L31.2424 10.3631H3L6.92256 3Z" stroke="black" stroke-opacity="0.2" stroke-width="1.6" stroke-linejoin="round"/>
<path d="M6.92256 3H27.3198L31.2424 10.3631H3L6.92256 3Z" stroke="black" stroke-opacity="0.2" stroke-width="1.6" stroke-linejoin="round"/>
<path d="M6.92256 3H27.3198L31.2424 10.3631H3L6.92256 3Z" stroke="black" stroke-opacity="0.2" stroke-width="1.6" stroke-linejoin="round"/>
<ellipse cx="30.2519" cy="28.9013" rx="7.7482" ry="8.09866" fill="white"/>
<ellipse cx="30.2519" cy="28.9013" rx="7.7482" ry="8.09866" stroke="#212121" stroke-width="1.6"/>
<ellipse cx="30.2519" cy="28.9013" rx="7.7482" ry="8.09866" stroke="black" stroke-opacity="0.2" stroke-width="1.6"/>
<ellipse cx="30.2519" cy="28.9013" rx="7.7482" ry="8.09866" stroke="black" stroke-opacity="0.2" stroke-width="1.6"/>
<ellipse cx="30.2519" cy="28.9013" rx="7.7482" ry="8.09866" stroke="black" stroke-opacity="0.2" stroke-width="1.6"/>
<path d="M26.8092 29.4771L29.3895 32.1748L33.674 26.2388" stroke="#212121" stroke-width="1.6" stroke-linecap="round" stroke-linejoin="round"/>
<path d="M26.8092 29.4771L29.3895 32.1748L33.674 26.2388" stroke="black" stroke-opacity="0.2" stroke-width="1.6" stroke-linecap="round" stroke-linejoin="round"/>
<path d="M26.8092 29.4771L29.3895 32.1748L33.674 26.2388" stroke="black" stroke-opacity="0.2" stroke-width="1.6" stroke-linecap="round" stroke-linejoin="round"/>
<path d="M26.8092 29.4771L29.3895 32.1748L33.674 26.2388" stroke="black" stroke-opacity="0.2" stroke-width="1.6" stroke-linecap="round" stroke-linejoin="round"/>
</svg>
