<svg width="14" height="17" viewBox="0 0 14 17" fill="none" xmlns="http://www.w3.org/2000/svg">
<path d="M9.80078 2.59961L11.8008 4.19961" stroke="#212121" stroke-width="0.8" stroke-linecap="round" stroke-linejoin="round"/>
<path d="M9.80078 2.59961L11.8008 4.19961" stroke="black" stroke-opacity="0.2" stroke-width="0.8" stroke-linecap="round" stroke-linejoin="round"/>
<path d="M9.80078 2.59961L11.8008 4.19961" stroke="black" stroke-opacity="0.2" stroke-width="0.8" stroke-linecap="round" stroke-linejoin="round"/>
<path d="M9.80078 2.59961L11.8008 4.19961" stroke="black" stroke-opacity="0.2" stroke-width="0.8" stroke-linecap="round" stroke-linejoin="round"/>
<mask id="path-2-outside-1_1598_8881" maskUnits="userSpaceOnUse" x="0" y="0" width="14" height="16" fill="black">
<rect fill="white" width="14" height="16"/>
<path fill-rule="evenodd" clip-rule="evenodd" d="M11.4639 1.08775C11.2897 0.951868 11.0306 0.976521 10.8852 1.14281L2.01351 11.2872C1.97819 11.3101 1.94972 11.3438 1.93453 11.3865L1.0113 13.9837C0.951885 14.1509 1.13823 14.2989 1.30237 14.2149L3.85287 12.9099C3.89613 12.8877 3.92696 12.8541 3.94458 12.8159L12.8278 2.65828C12.9732 2.49199 12.9499 2.24703 12.7758 2.11115L11.4639 1.08775Z"/>
</mask>
<path d="M10.8852 1.14281L10.283 0.616166L10.8852 1.14281ZM11.4639 1.08775L10.9718 1.71852L10.9718 1.71852L11.4639 1.08775ZM2.01351 11.2872L2.44921 11.9581L2.54249 11.8976L2.61571 11.8138L2.01351 11.2872ZM1.93453 11.3865L2.68832 11.6545L2.68832 11.6545L1.93453 11.3865ZM1.0113 13.9837L1.76509 14.2517L1.76509 14.2517L1.0113 13.9837ZM1.30237 14.2149L1.66677 14.9271H1.66677L1.30237 14.2149ZM3.85287 12.9099L4.21728 13.6221H4.21728L3.85287 12.9099ZM3.94458 12.8159L3.34238 12.2892L3.26635 12.3762L3.21801 12.4811L3.94458 12.8159ZM12.8278 2.65828L12.2256 2.13164V2.13164L12.8278 2.65828ZM12.7758 2.11115L13.2678 1.48038V1.48038L12.7758 2.11115ZM11.4874 1.66946C11.3534 1.82264 11.1323 1.84368 10.9718 1.71852L11.956 0.456984C11.4472 0.0600513 10.7078 0.130401 10.283 0.616166L11.4874 1.66946ZM2.61571 11.8138L11.4874 1.66946L10.283 0.616166L1.41131 10.7605L2.61571 11.8138ZM2.68832 11.6545C2.6405 11.789 2.55062 11.8923 2.44921 11.9581L1.57782 10.6162C1.40577 10.728 1.25894 10.8986 1.18074 11.1186L2.68832 11.6545ZM1.76509 14.2517L2.68832 11.6545L1.18074 11.1186L0.25751 13.7158L1.76509 14.2517ZM0.937971 13.5027C1.15554 13.3914 1.40297 13.434 1.57049 13.567C1.74283 13.7038 1.86457 13.9719 1.76509 14.2517L0.25751 13.7158C0.098619 14.1628 0.283824 14.5884 0.57551 14.82C0.862388 15.0478 1.28506 15.1224 1.66677 14.9271L0.937971 13.5027ZM3.48847 12.1977L0.93797 13.5027L1.66677 14.9271L4.21728 13.6221L3.48847 12.1977ZM3.21801 12.4811C3.27551 12.3563 3.37233 12.2571 3.48847 12.1977L4.21728 13.6221C4.41993 13.5184 4.57841 13.3519 4.67114 13.1507L3.21801 12.4811ZM12.2256 2.13164L3.34238 12.2892L4.54678 13.3425L13.43 3.18493L12.2256 2.13164ZM12.2837 2.74191C12.0956 2.5952 12.0686 2.31119 12.2256 2.13164L13.43 3.18493C13.8779 2.67279 13.8043 1.89886 13.2678 1.48038L12.2837 2.74191ZM10.9718 1.71852L12.2837 2.74191L13.2678 1.48038L11.956 0.456983L10.9718 1.71852Z" fill="#212121" mask="url(#path-2-outside-1_1598_8881)"/>
<path d="M10.8852 1.14281L10.283 0.616166L10.8852 1.14281ZM11.4639 1.08775L10.9718 1.71852L10.9718 1.71852L11.4639 1.08775ZM2.01351 11.2872L2.44921 11.9581L2.54249 11.8976L2.61571 11.8138L2.01351 11.2872ZM1.93453 11.3865L2.68832 11.6545L2.68832 11.6545L1.93453 11.3865ZM1.0113 13.9837L1.76509 14.2517L1.76509 14.2517L1.0113 13.9837ZM1.30237 14.2149L1.66677 14.9271H1.66677L1.30237 14.2149ZM3.85287 12.9099L4.21728 13.6221H4.21728L3.85287 12.9099ZM3.94458 12.8159L3.34238 12.2892L3.26635 12.3762L3.21801 12.4811L3.94458 12.8159ZM12.8278 2.65828L12.2256 2.13164V2.13164L12.8278 2.65828ZM12.7758 2.11115L13.2678 1.48038V1.48038L12.7758 2.11115ZM11.4874 1.66946C11.3534 1.82264 11.1323 1.84368 10.9718 1.71852L11.956 0.456984C11.4472 0.0600513 10.7078 0.130401 10.283 0.616166L11.4874 1.66946ZM2.61571 11.8138L11.4874 1.66946L10.283 0.616166L1.41131 10.7605L2.61571 11.8138ZM2.68832 11.6545C2.6405 11.789 2.55062 11.8923 2.44921 11.9581L1.57782 10.6162C1.40577 10.728 1.25894 10.8986 1.18074 11.1186L2.68832 11.6545ZM1.76509 14.2517L2.68832 11.6545L1.18074 11.1186L0.25751 13.7158L1.76509 14.2517ZM0.937971 13.5027C1.15554 13.3914 1.40297 13.434 1.57049 13.567C1.74283 13.7038 1.86457 13.9719 1.76509 14.2517L0.25751 13.7158C0.098619 14.1628 0.283824 14.5884 0.57551 14.82C0.862388 15.0478 1.28506 15.1224 1.66677 14.9271L0.937971 13.5027ZM3.48847 12.1977L0.93797 13.5027L1.66677 14.9271L4.21728 13.6221L3.48847 12.1977ZM3.21801 12.4811C3.27551 12.3563 3.37233 12.2571 3.48847 12.1977L4.21728 13.6221C4.41993 13.5184 4.57841 13.3519 4.67114 13.1507L3.21801 12.4811ZM12.2256 2.13164L3.34238 12.2892L4.54678 13.3425L13.43 3.18493L12.2256 2.13164ZM12.2837 2.74191C12.0956 2.5952 12.0686 2.31119 12.2256 2.13164L13.43 3.18493C13.8779 2.67279 13.8043 1.89886 13.2678 1.48038L12.2837 2.74191ZM10.9718 1.71852L12.2837 2.74191L13.2678 1.48038L11.956 0.456983L10.9718 1.71852Z" fill="black" fill-opacity="0.2" mask="url(#path-2-outside-1_1598_8881)"/>
<path d="M10.8852 1.14281L10.283 0.616166L10.8852 1.14281ZM11.4639 1.08775L10.9718 1.71852L10.9718 1.71852L11.4639 1.08775ZM2.01351 11.2872L2.44921 11.9581L2.54249 11.8976L2.61571 11.8138L2.01351 11.2872ZM1.93453 11.3865L2.68832 11.6545L2.68832 11.6545L1.93453 11.3865ZM1.0113 13.9837L1.76509 14.2517L1.76509 14.2517L1.0113 13.9837ZM1.30237 14.2149L1.66677 14.9271H1.66677L1.30237 14.2149ZM3.85287 12.9099L4.21728 13.6221H4.21728L3.85287 12.9099ZM3.94458 12.8159L3.34238 12.2892L3.26635 12.3762L3.21801 12.4811L3.94458 12.8159ZM12.8278 2.65828L12.2256 2.13164V2.13164L12.8278 2.65828ZM12.7758 2.11115L13.2678 1.48038V1.48038L12.7758 2.11115ZM11.4874 1.66946C11.3534 1.82264 11.1323 1.84368 10.9718 1.71852L11.956 0.456984C11.4472 0.0600513 10.7078 0.130401 10.283 0.616166L11.4874 1.66946ZM2.61571 11.8138L11.4874 1.66946L10.283 0.616166L1.41131 10.7605L2.61571 11.8138ZM2.68832 11.6545C2.6405 11.789 2.55062 11.8923 2.44921 11.9581L1.57782 10.6162C1.40577 10.728 1.25894 10.8986 1.18074 11.1186L2.68832 11.6545ZM1.76509 14.2517L2.68832 11.6545L1.18074 11.1186L0.25751 13.7158L1.76509 14.2517ZM0.937971 13.5027C1.15554 13.3914 1.40297 13.434 1.57049 13.567C1.74283 13.7038 1.86457 13.9719 1.76509 14.2517L0.25751 13.7158C0.098619 14.1628 0.283824 14.5884 0.57551 14.82C0.862388 15.0478 1.28506 15.1224 1.66677 14.9271L0.937971 13.5027ZM3.48847 12.1977L0.93797 13.5027L1.66677 14.9271L4.21728 13.6221L3.48847 12.1977ZM3.21801 12.4811C3.27551 12.3563 3.37233 12.2571 3.48847 12.1977L4.21728 13.6221C4.41993 13.5184 4.57841 13.3519 4.67114 13.1507L3.21801 12.4811ZM12.2256 2.13164L3.34238 12.2892L4.54678 13.3425L13.43 3.18493L12.2256 2.13164ZM12.2837 2.74191C12.0956 2.5952 12.0686 2.31119 12.2256 2.13164L13.43 3.18493C13.8779 2.67279 13.8043 1.89886 13.2678 1.48038L12.2837 2.74191ZM10.9718 1.71852L12.2837 2.74191L13.2678 1.48038L11.956 0.456983L10.9718 1.71852Z" fill="black" fill-opacity="0.2" mask="url(#path-2-outside-1_1598_8881)"/>
<path d="M10.8852 1.14281L10.283 0.616166L10.8852 1.14281ZM11.4639 1.08775L10.9718 1.71852L10.9718 1.71852L11.4639 1.08775ZM2.01351 11.2872L2.44921 11.9581L2.54249 11.8976L2.61571 11.8138L2.01351 11.2872ZM1.93453 11.3865L2.68832 11.6545L2.68832 11.6545L1.93453 11.3865ZM1.0113 13.9837L1.76509 14.2517L1.76509 14.2517L1.0113 13.9837ZM1.30237 14.2149L1.66677 14.9271H1.66677L1.30237 14.2149ZM3.85287 12.9099L4.21728 13.6221H4.21728L3.85287 12.9099ZM3.94458 12.8159L3.34238 12.2892L3.26635 12.3762L3.21801 12.4811L3.94458 12.8159ZM12.8278 2.65828L12.2256 2.13164V2.13164L12.8278 2.65828ZM12.7758 2.11115L13.2678 1.48038V1.48038L12.7758 2.11115ZM11.4874 1.66946C11.3534 1.82264 11.1323 1.84368 10.9718 1.71852L11.956 0.456984C11.4472 0.0600513 10.7078 0.130401 10.283 0.616166L11.4874 1.66946ZM2.61571 11.8138L11.4874 1.66946L10.283 0.616166L1.41131 10.7605L2.61571 11.8138ZM2.68832 11.6545C2.6405 11.789 2.55062 11.8923 2.44921 11.9581L1.57782 10.6162C1.40577 10.728 1.25894 10.8986 1.18074 11.1186L2.68832 11.6545ZM1.76509 14.2517L2.68832 11.6545L1.18074 11.1186L0.25751 13.7158L1.76509 14.2517ZM0.937971 13.5027C1.15554 13.3914 1.40297 13.434 1.57049 13.567C1.74283 13.7038 1.86457 13.9719 1.76509 14.2517L0.25751 13.7158C0.098619 14.1628 0.283824 14.5884 0.57551 14.82C0.862388 15.0478 1.28506 15.1224 1.66677 14.9271L0.937971 13.5027ZM3.48847 12.1977L0.93797 13.5027L1.66677 14.9271L4.21728 13.6221L3.48847 12.1977ZM3.21801 12.4811C3.27551 12.3563 3.37233 12.2571 3.48847 12.1977L4.21728 13.6221C4.41993 13.5184 4.57841 13.3519 4.67114 13.1507L3.21801 12.4811ZM12.2256 2.13164L3.34238 12.2892L4.54678 13.3425L13.43 3.18493L12.2256 2.13164ZM12.2837 2.74191C12.0956 2.5952 12.0686 2.31119 12.2256 2.13164L13.43 3.18493C13.8779 2.67279 13.8043 1.89886 13.2678 1.48038L12.2837 2.74191ZM10.9718 1.71852L12.2837 2.74191L13.2678 1.48038L11.956 0.456983L10.9718 1.71852Z" fill="black" fill-opacity="0.2" mask="url(#path-2-outside-1_1598_8881)"/>
<path d="M2.19922 15.7998H13.3992" stroke="#212121" stroke-width="0.8" stroke-linecap="round" stroke-linejoin="round"/>
<path d="M2.19922 15.7998H13.3992" stroke="black" stroke-opacity="0.2" stroke-width="0.8" stroke-linecap="round" stroke-linejoin="round"/>
<path d="M2.19922 15.7998H13.3992" stroke="black" stroke-opacity="0.2" stroke-width="0.8" stroke-linecap="round" stroke-linejoin="round"/>
<path d="M2.19922 15.7998H13.3992" stroke="black" stroke-opacity="0.2" stroke-width="0.8" stroke-linecap="round" stroke-linejoin="round"/>
</svg>
