<svg width="16" height="11" viewBox="0 0 16 11" fill="none" xmlns="http://www.w3.org/2000/svg">
<g id="Group 1000011353">
<g id="navi/my/click">
<path id="Ellipse 3690" d="M6.20983 2.74886C6.20983 3.68081 5.49535 4.41314 4.64183 4.41314C3.78832 4.41314 3.07383 3.68081 3.07383 2.74886C3.07383 1.81691 3.78832 1.08458 4.64183 1.08458C5.49535 1.08458 6.20983 1.81691 6.20983 2.74886Z" fill="#373737" stroke="#373737" stroke-width="0.522667"/>
<path id="Ellipse 3693" d="M1.2588 8.26467C1.33832 7.5695 1.72788 6.88927 2.30298 6.35858C2.94934 5.76213 3.80297 5.38047 4.64109 5.38047C5.47921 5.38047 6.33284 5.76213 6.97919 6.35858C7.5543 6.88927 7.94386 7.5695 8.02338 8.26467H4.64109H1.2588Z" fill="#373737" stroke="#373737" stroke-width="0.522667"/>
</g>
<g id="navi/my/click_2">
<path id="Ellipse 3690_2" d="M12.872 2.88677C12.872 4.19854 11.865 5.23877 10.6506 5.23877C9.4363 5.23877 8.4293 4.19854 8.4293 2.88677C8.4293 1.575 9.4363 0.534771 10.6506 0.534771C11.865 0.534771 12.872 1.575 12.872 2.88677Z" fill="#373737" stroke="#373737" stroke-width="0.522667"/>
<path id="Ellipse 3693_2" d="M5.81881 10.5955C5.86234 9.49903 6.4491 8.42904 7.32583 7.62001C8.23701 6.77919 9.44782 6.23321 10.6509 6.23321C11.8539 6.23321 13.0648 6.77919 13.9759 7.62001C14.8527 8.42904 15.4394 9.49903 15.4829 10.5955H10.6509H5.81881Z" fill="#373737" stroke="#373737" stroke-width="0.261333"/>
</g>
</g>
</svg>
