<svg width="44" height="35" viewBox="0 0 44 35" fill="none" xmlns="http://www.w3.org/2000/svg">
<rect width="44" height="35" fill="white"/>
<mask id="path-2-inside-1_1554_9849" fill="white">
<path fill-rule="evenodd" clip-rule="evenodd" d="M17.8632 9.84668C13.4798 9.84668 9.87695 13.6244 9.87695 18.3473C9.87695 23.0702 13.4798 26.8479 17.8632 26.8479C21.3301 26.8479 24.3036 24.4904 25.4009 21.1635C25.4874 20.9013 25.7701 20.7588 26.0323 20.8453C26.2946 20.9318 26.437 21.2145 26.3506 21.4768C25.1324 25.1701 21.8057 27.8479 17.8632 27.8479C12.8729 27.8479 8.87695 23.5662 8.87695 18.3473C8.87695 13.1284 12.8729 8.84668 17.8632 8.84668C21.9546 8.84668 25.3821 11.7299 26.4795 15.6406C26.5541 15.9065 26.3991 16.1825 26.1332 16.2571C25.8673 16.3317 25.5913 16.1766 25.5167 15.9108C24.5275 12.3857 21.4605 9.84668 17.8632 9.84668Z"/>
</mask>
<path fill-rule="evenodd" clip-rule="evenodd" d="M17.8632 9.84668C13.4798 9.84668 9.87695 13.6244 9.87695 18.3473C9.87695 23.0702 13.4798 26.8479 17.8632 26.8479C21.3301 26.8479 24.3036 24.4904 25.4009 21.1635C25.4874 20.9013 25.7701 20.7588 26.0323 20.8453C26.2946 20.9318 26.437 21.2145 26.3506 21.4768C25.1324 25.1701 21.8057 27.8479 17.8632 27.8479C12.8729 27.8479 8.87695 23.5662 8.87695 18.3473C8.87695 13.1284 12.8729 8.84668 17.8632 8.84668C21.9546 8.84668 25.3821 11.7299 26.4795 15.6406C26.5541 15.9065 26.3991 16.1825 26.1332 16.2571C25.8673 16.3317 25.5913 16.1766 25.5167 15.9108C24.5275 12.3857 21.4605 9.84668 17.8632 9.84668Z" fill="#D9D9D9"/>
<path d="M25.4009 21.1635L25.9765 21.3534L25.4009 21.1635ZM26.0323 20.8453L26.2222 20.2696L26.2222 20.2696L26.0323 20.8453ZM26.3506 21.4768L25.7749 21.2869L26.3506 21.4768ZM26.4795 15.6406L27.0631 15.4768V15.4768L26.4795 15.6406ZM26.1332 16.2571L25.9694 15.6735V15.6735L26.1332 16.2571ZM25.5167 15.9108L26.1003 15.747L25.5167 15.9108ZM10.4831 18.3473C10.4831 13.9257 13.8471 10.4528 17.8632 10.4528V9.24052C13.1126 9.24052 9.27079 13.3231 9.27079 18.3473H10.4831ZM17.8632 26.2417C13.8471 26.2417 10.4831 22.7689 10.4831 18.3473H9.27079C9.27079 23.3715 13.1126 27.4541 17.8632 27.4541V26.2417ZM24.8252 20.9737C23.8013 24.0781 21.042 26.2417 17.8632 26.2417V27.4541C21.6181 27.4541 24.8059 24.9027 25.9765 21.3534L24.8252 20.9737ZM26.2222 20.2696C25.642 20.0783 25.0166 20.3935 24.8252 20.9737L25.9765 21.3534C25.9582 21.4091 25.8981 21.4393 25.8425 21.421L26.2222 20.2696ZM26.9262 21.6666C27.1176 21.0864 26.8024 20.461 26.2222 20.2696L25.8425 21.421C25.7868 21.4026 25.7565 21.3426 25.7749 21.2869L26.9262 21.6666ZM17.8632 28.4541C22.0942 28.4541 25.6349 25.5818 26.9262 21.6666L25.7749 21.2869C24.63 24.7583 21.5171 27.2417 17.8632 27.2417V28.4541ZM8.27079 18.3473C8.27079 23.8663 12.5045 28.4541 17.8632 28.4541V27.2417C13.2414 27.2417 9.48312 23.2661 9.48312 18.3473H8.27079ZM17.8632 8.24052C12.5045 8.24052 8.27079 12.8283 8.27079 18.3473H9.48312C9.48312 13.4285 13.2414 9.45284 17.8632 9.45284V8.24052ZM27.0631 15.4768C25.9002 11.3326 22.2545 8.24052 17.8632 8.24052V9.45284C21.6548 9.45284 24.864 12.1271 25.8959 15.8044L27.0631 15.4768ZM26.297 16.8407C26.8852 16.6757 27.2282 16.065 27.0631 15.4768L25.8959 15.8044C25.8801 15.7479 25.913 15.6893 25.9694 15.6735L26.297 16.8407ZM24.9331 16.0745C25.0981 16.6627 25.7088 17.0058 26.297 16.8407L25.9694 15.6735C26.0259 15.6576 26.0845 15.6906 26.1003 15.747L24.9331 16.0745ZM17.8632 10.4528C21.1613 10.4528 24.0096 12.7836 24.9331 16.0745L26.1003 15.747C25.0455 11.9879 21.7597 9.24052 17.8632 9.24052V10.4528Z" fill="#373737" mask="url(#path-2-inside-1_1554_9849)"/>
<path d="M27.9995 10.3144L26.4623 15.8655C26.3729 16.1882 26.0414 16.369 25.7218 16.2694L20.6702 14.6959" stroke="#373737" stroke-linecap="round"/>
</svg>
