<svg width="21" height="20" viewBox="0 0 21 20" fill="none" xmlns="http://www.w3.org/2000/svg">
<mask id="path-1-inside-1_1554_9851" fill="white">
<path fill-rule="evenodd" clip-rule="evenodd" d="M9.86325 1.84668C5.47985 1.84668 1.87695 5.62441 1.87695 10.3473C1.87695 15.0702 5.47985 18.8479 9.86325 18.8479C13.3301 18.8479 16.3036 16.4904 17.4009 13.1635C17.4874 12.9013 17.7701 12.7588 18.0323 12.8453C18.2946 12.9318 18.437 13.2145 18.3506 13.4768C17.1324 17.1701 13.8057 19.8479 9.86325 19.8479C4.87294 19.8479 0.876953 15.5662 0.876953 10.3473C0.876953 5.12838 4.87294 0.84668 9.86325 0.84668C13.9546 0.84668 17.3821 3.72988 18.4795 7.6406C18.5541 7.90648 18.3991 8.18249 18.1332 8.2571C17.8673 8.3317 17.5913 8.17665 17.5167 7.91078C16.5275 4.38573 13.4605 1.84668 9.86325 1.84668Z"/>
</mask>
<path fill-rule="evenodd" clip-rule="evenodd" d="M9.86325 1.84668C5.47985 1.84668 1.87695 5.62441 1.87695 10.3473C1.87695 15.0702 5.47985 18.8479 9.86325 18.8479C13.3301 18.8479 16.3036 16.4904 17.4009 13.1635C17.4874 12.9013 17.7701 12.7588 18.0323 12.8453C18.2946 12.9318 18.437 13.2145 18.3506 13.4768C17.1324 17.1701 13.8057 19.8479 9.86325 19.8479C4.87294 19.8479 0.876953 15.5662 0.876953 10.3473C0.876953 5.12838 4.87294 0.84668 9.86325 0.84668C13.9546 0.84668 17.3821 3.72988 18.4795 7.6406C18.5541 7.90648 18.3991 8.18249 18.1332 8.2571C17.8673 8.3317 17.5913 8.17665 17.5167 7.91078C16.5275 4.38573 13.4605 1.84668 9.86325 1.84668Z" fill="#D9D9D9"/>
<path d="M17.4009 13.1635L17.9765 13.3534L17.4009 13.1635ZM18.0323 12.8453L18.2222 12.2696L18.2222 12.2696L18.0323 12.8453ZM18.3506 13.4768L17.7749 13.2869L18.3506 13.4768ZM18.4795 7.6406L19.0631 7.47683V7.47683L18.4795 7.6406ZM18.1332 8.2571L17.9694 7.67347V7.67347L18.1332 8.2571ZM17.5167 7.91078L18.1003 7.74701L17.5167 7.91078ZM2.48312 10.3473C2.48312 5.92572 5.84714 2.45284 9.86325 2.45284V1.24052C5.11256 1.24052 1.27079 5.3231 1.27079 10.3473H2.48312ZM9.86325 18.2417C5.84714 18.2417 2.48312 14.7689 2.48312 10.3473H1.27079C1.27079 15.3715 5.11256 19.4541 9.86325 19.4541V18.2417ZM16.8252 12.9737C15.8013 16.0781 13.042 18.2417 9.86325 18.2417V19.4541C13.6181 19.4541 16.8059 16.9027 17.9765 13.3534L16.8252 12.9737ZM18.2222 12.2696C17.642 12.0783 17.0166 12.3935 16.8252 12.9737L17.9765 13.3534C17.9582 13.4091 17.8981 13.4393 17.8425 13.421L18.2222 12.2696ZM18.9262 13.6666C19.1176 13.0864 18.8024 12.461 18.2222 12.2696L17.8425 13.421C17.7868 13.4026 17.7565 13.3426 17.7749 13.2869L18.9262 13.6666ZM9.86325 20.4541C14.0942 20.4541 17.6349 17.5818 18.9262 13.6666L17.7749 13.2869C16.63 16.7583 13.5171 19.2417 9.86325 19.2417V20.4541ZM0.270789 10.3473C0.270789 15.8663 4.50453 20.4541 9.86325 20.4541V19.2417C5.24136 19.2417 1.48312 15.2661 1.48312 10.3473H0.270789ZM9.86325 0.240516C4.50453 0.240516 0.270789 4.82826 0.270789 10.3473H1.48312C1.48312 5.42849 5.24136 1.45284 9.86325 1.45284V0.240516ZM19.0631 7.47683C17.9002 3.33261 14.2545 0.240516 9.86325 0.240516V1.45284C13.6548 1.45284 16.864 4.12714 17.8959 7.80437L19.0631 7.47683ZM18.297 8.84072C18.8852 8.67566 19.2282 8.06503 19.0631 7.47683L17.8959 7.80437C17.8801 7.74792 17.913 7.68931 17.9694 7.67347L18.297 8.84072ZM16.9331 8.07454C17.0981 8.66274 17.7088 9.00577 18.297 8.84072L17.9694 7.67347C18.0259 7.65763 18.0845 7.69056 18.1003 7.74701L16.9331 8.07454ZM9.86325 2.45284C13.1613 2.45284 16.0096 4.78362 16.9331 8.07454L18.1003 7.74701C17.0455 3.98785 13.7597 1.24052 9.86325 1.24052V2.45284Z" fill="#373737" mask="url(#path-1-inside-1_1554_9851)"/>
<path d="M19.9995 2.31439L18.4623 7.86554C18.3729 8.18818 18.0414 8.36901 17.7218 8.26945L12.6702 6.69588" stroke="#373737" stroke-linecap="round"/>
</svg>
