<svg width="33" height="37" viewBox="0 0 33 37" fill="none" xmlns="http://www.w3.org/2000/svg">
<g id="Group">
<path id="Vector" d="M11.854 8.20083C13.9629 8.20083 15.6724 6.58887 15.6724 4.60042C15.6724 2.61196 13.9629 1 11.854 1C9.74523 1 8.0357 2.61196 8.0357 4.60042C8.0357 6.58887 9.74523 8.20083 11.854 8.20083Z" stroke="#4E32BB" stroke-linecap="round" stroke-linejoin="round"/>
<path id="Vector_2" d="M28.6898 11.4247L25.0536 18.7378H17.8723C17.8723 18.7378 16.4361 18.8303 15.4762 16.4785C14.5164 14.1266 13.5916 11.1142 11.8611 10.7641C10.1305 10.4139 7.79749 10.7641 7.79749 10.7641C7.79749 10.7641 6.102 11.0151 5.99691 13.3537C5.89182 15.6923 5.62558 24.5712 5.62558 24.5712C5.62558 24.5712 5.4154 26.9164 8.16181 27.1146C10.1025 27.2533 12.4356 27.2004 13.6406 27.1542C14.5234 27.1212 15.3221 27.7025 15.4552 28.5283C15.4902 28.7397 15.5113 28.9841 15.5113 29.2616V35.9934" stroke="#4E32BB" stroke-linecap="round" stroke-linejoin="round"/>
<g id="Vector_3">
<path d="M12.4916 17.073L12.2254 21.8956C12.2254 21.8956 12.0993 22.9328 13.9489 23.3028C15.7985 23.6727 19.5678 24.373 19.5678 26.3416V36" stroke="#212121" stroke-linecap="round" stroke-linejoin="round"/>
<path d="M12.4916 17.073L12.2254 21.8956C12.2254 21.8956 12.0993 22.9328 13.9489 23.3028C15.7985 23.6727 19.5678 24.373 19.5678 26.3416V36" stroke="black" stroke-opacity="0.2" stroke-linecap="round" stroke-linejoin="round"/>
<path d="M12.4916 17.073L12.2254 21.8956C12.2254 21.8956 12.0993 22.9328 13.9489 23.3028C15.7985 23.6727 19.5678 24.373 19.5678 26.3416V36" stroke="black" stroke-opacity="0.2" stroke-linecap="round" stroke-linejoin="round"/>
<path d="M12.4916 17.073L12.2254 21.8956C12.2254 21.8956 12.0993 22.9328 13.9489 23.3028C15.7985 23.6727 19.5678 24.373 19.5678 26.3416V36" stroke="black" stroke-opacity="0.2" stroke-linecap="round" stroke-linejoin="round"/>
</g>
<g id="Vector_4">
<path d="M17.1577 21.453H31.8846" stroke="#212121" stroke-linecap="round" stroke-linejoin="round"/>
<path d="M17.1577 21.453H31.8846" stroke="black" stroke-opacity="0.2" stroke-linecap="round" stroke-linejoin="round"/>
<path d="M17.1577 21.453H31.8846" stroke="black" stroke-opacity="0.2" stroke-linecap="round" stroke-linejoin="round"/>
<path d="M17.1577 21.453H31.8846" stroke="black" stroke-opacity="0.2" stroke-linecap="round" stroke-linejoin="round"/>
</g>
<g id="Vector_5">
<path d="M1.18369 14.0276C1.18369 14.0276 -0.0704084 27.0815 8.16882 27.1278" stroke="#212121" stroke-linecap="round" stroke-linejoin="round"/>
<path d="M1.18369 14.0276C1.18369 14.0276 -0.0704084 27.0815 8.16882 27.1278" stroke="black" stroke-opacity="0.2" stroke-linecap="round" stroke-linejoin="round"/>
<path d="M1.18369 14.0276C1.18369 14.0276 -0.0704084 27.0815 8.16882 27.1278" stroke="black" stroke-opacity="0.2" stroke-linecap="round" stroke-linejoin="round"/>
<path d="M1.18369 14.0276C1.18369 14.0276 -0.0704084 27.0815 8.16882 27.1278" stroke="black" stroke-opacity="0.2" stroke-linecap="round" stroke-linejoin="round"/>
</g>
</g>
</svg>
