<svg width="23" height="22" viewBox="0 0 23 22" fill="none" xmlns="http://www.w3.org/2000/svg">
<path d="M15.9945 8.25V14.6946H14.6504V9.52289H14.6148L13.1372 10.4486V9.26475L14.7305 8.25H15.9945Z" fill="white"/>
<path d="M11.3425 13.9114C10.9241 13.9114 10.5859 13.5731 10.5948 13.1637C10.5859 12.7542 10.9241 12.4248 11.3425 12.4248C11.7341 12.4248 12.0813 12.7542 12.0813 13.1637C12.0813 13.5731 11.7341 13.9114 11.3425 13.9114ZM11.3425 10.52C10.9241 10.52 10.5859 10.1817 10.5948 9.77226C10.5859 9.3628 10.9241 9.03345 11.3425 9.03345C11.7341 9.03345 12.0813 9.3628 12.0813 9.77226C12.0813 10.1817 11.7341 10.52 11.3425 10.52Z" fill="white"/>
<path d="M9.06411 8.25V14.6946H7.72001V9.52289H7.68441L6.20679 10.4486V9.26475L7.80012 8.25H9.06411Z" fill="white"/>
<mask id="path-4-inside-1_906_1752" fill="white">
<path fill-rule="evenodd" clip-rule="evenodd" d="M20.8379 17.1358C22.018 15.383 22.7068 13.272 22.7068 11C22.7068 4.92487 17.7819 0 11.7068 0C5.63165 0 0.706787 4.92487 0.706787 11C0.706787 17.0751 5.63165 22 11.7068 22C13.669 22 15.5112 21.4862 17.1062 20.5859L20.7301 21.6141C21.3226 21.7822 21.8748 21.2459 21.7242 20.6488L20.8379 17.1358Z"/>
</mask>
<path d="M20.8379 17.1358L19.5936 16.2981L19.2196 16.8535L19.3834 17.5027L20.8379 17.1358ZM17.1062 20.5859L17.5156 19.1428L16.9137 18.9721L16.3688 19.2796L17.1062 20.5859ZM20.7301 21.6141L21.1395 20.171L21.1395 20.171L20.7301 21.6141ZM21.7242 20.6488L23.1786 20.2818L21.7242 20.6488ZM21.2068 11C21.2068 12.9642 20.6123 14.7851 19.5936 16.2981L22.0821 17.9736C23.4237 15.981 24.2068 13.5797 24.2068 11H21.2068ZM11.7068 1.5C16.9535 1.5 21.2068 5.75329 21.2068 11H24.2068C24.2068 4.09644 18.6103 -1.5 11.7068 -1.5V1.5ZM2.20679 11C2.20679 5.75329 6.46008 1.5 11.7068 1.5V-1.5C4.80323 -1.5 -0.793213 4.09644 -0.793213 11H2.20679ZM11.7068 20.5C6.46008 20.5 2.20679 16.2467 2.20679 11H-0.793213C-0.793213 17.9036 4.80323 23.5 11.7068 23.5V20.5ZM16.3688 19.2796C14.9929 20.0563 13.4039 20.5 11.7068 20.5V23.5C13.934 23.5 16.0294 22.9162 17.8436 21.8921L16.3688 19.2796ZM21.1395 20.171L17.5156 19.1428L16.6968 22.0289L20.3207 23.0571L21.1395 20.171ZM20.2697 21.0157C20.1379 20.4932 20.6211 20.024 21.1395 20.171L20.3207 23.0571C22.024 23.5404 23.6117 21.9986 23.1786 20.2818L20.2697 21.0157ZM19.3834 17.5027L20.2697 21.0157L23.1786 20.2818L22.2923 16.7689L19.3834 17.5027Z" fill="white" mask="url(#path-4-inside-1_906_1752)"/>
</svg>
