<svg width="32" height="37" viewBox="0 0 32 37" fill="none" xmlns="http://www.w3.org/2000/svg">
<g id="Group 1000011324">
<path id="Vector" d="M18.507 6.62218H13.5919C12.9591 6.62218 12.4878 6.03415 12.6426 5.43289L13.1341 3.49038C13.2418 3.06092 13.6323 2.7636 14.0834 2.7636H18.0154C18.4666 2.7636 18.8571 3.06753 18.9648 3.49038L19.4563 5.43289C19.6111 6.04075 19.1398 6.62218 18.507 6.62218Z" stroke="#4E32BB" stroke-miterlimit="10"/>
<path id="Vector_2" d="M16.0492 2.43957V0.761353" stroke="#4E32BB" stroke-miterlimit="10" stroke-linecap="round"/>
<path id="Vector_3" d="M16.0492 9.36546V11.3476" stroke="#4E32BB" stroke-miterlimit="10" stroke-linecap="round"/>
<path id="Vector_4" d="M16.0492 23.4386V35.979" stroke="black" stroke-miterlimit="10" stroke-linecap="round"/>
<path id="Vector_5" d="M21.3559 23.4386H10.7448" stroke="black" stroke-miterlimit="10" stroke-linecap="round"/>
<path id="Vector_6" d="M12.016 8.53226L10.9387 10.2105" stroke="#4E32BB" stroke-miterlimit="10" stroke-linecap="round"/>
<path id="Vector_7" d="M20.0822 8.53226L21.1595 10.2105" stroke="#4E32BB" stroke-miterlimit="10" stroke-linecap="round"/>
<path id="Vector_8" d="M3.71424 16.0769C5.23137 16.0769 6.46125 14.87 6.46125 13.3812C6.46125 11.8923 5.23137 10.6854 3.71424 10.6854C2.1971 10.6854 0.967224 11.8923 0.967224 13.3812C0.967224 14.87 2.1971 16.0769 3.71424 16.0769Z" stroke="black" stroke-miterlimit="10" stroke-linecap="round"/>
<path id="Vector_9" d="M6.46125 23.3465V22.3753C6.46125 20.631 5.22914 19.2236 3.71424 19.2236C2.19934 19.2236 0.967224 20.6376 0.967224 22.3753V28.0971H8.69657V35.986" stroke="black" stroke-linecap="round" stroke-linejoin="round"/>
<path id="Vector_10" d="M28.3838 16.0769C29.9009 16.0769 31.1308 14.87 31.1308 13.3812C31.1308 11.8923 29.9009 10.6854 28.3838 10.6854C26.8667 10.6854 25.6368 11.8923 25.6368 13.3812C25.6368 14.87 26.8667 16.0769 28.3838 16.0769Z" stroke="black" stroke-miterlimit="10" stroke-linecap="round"/>
<path id="Vector_11" d="M25.6365 23.3465V22.3753C25.6365 20.631 26.8686 19.2236 28.3835 19.2236C29.8984 19.2236 31.1306 20.6376 31.1306 22.3753V28.0971H25.6365H23.3945V35.986" stroke="black" stroke-linecap="round" stroke-linejoin="round"/>
</g>
</svg>
