<svg width="24" height="23" viewBox="0 0 24 23" fill="none" xmlns="http://www.w3.org/2000/svg">
<g id="all/&#236;&#149;&#140;&#235;&#166;&#188;">
<path id="Subtract" fill-rule="evenodd" clip-rule="evenodd" d="M8.71206 18.25C8.23288 18.25 7.86671 18.6858 8.02655 19.1375C8.67259 20.9633 10.2278 22.25 12.0436 22.25C13.8595 22.25 15.4147 20.9633 16.0607 19.1375C16.2206 18.6858 15.8544 18.25 15.3752 18.25C15.0182 18.25 14.716 18.4993 14.5797 18.8292C14.0809 20.0364 13.0387 20.75 12.0436 20.75C11.0486 20.75 10.0064 20.0364 9.50764 18.8292C9.37131 18.4993 9.06907 18.25 8.71206 18.25Z" fill="white"/>
<path id="Vector 1885" d="M2.91211 12.25L1.41211 16.25" stroke="white" stroke-width="1.5" stroke-linecap="round" stroke-linejoin="round"/>
<path id="Vector 1886" d="M21.0258 12.25L22.5915 16.2247" stroke="white" stroke-width="1.5" stroke-linecap="round" stroke-linejoin="round"/>
<path id="Rectangle 42684" d="M5.91965 6.92101C6.29469 3.82696 8.92076 1.5 12.0375 1.5C15.2106 1.5 17.865 3.9095 18.1713 7.06782L19.0859 16.5H4.75851L5.91965 6.92101Z" stroke="white" stroke-width="1.5"/>
</g>
</svg>
