<svg width="24" height="21" viewBox="0 0 24 21" fill="none" xmlns="http://www.w3.org/2000/svg">
<g id="&#235;&#167;&#136;&#236;&#157;&#180;/&#234;&#179;&#181;&#236;&#167;&#128;">
<rect width="21.808" height="18.84" transform="translate(1 1)" fill="#E4E0F5"/>
<g id="Vector">
<path d="M13.944 2.124V18.728L7.124 13.952L6.916 13.808H3.372C2.504 13.808 1.8 13.104 1.8 12.236V8.62C1.8 7.752 2.504 7.048 3.372 7.048H6.916L7.124 6.904L13.944 2.128M14.296 1C14.208 1 14.12 1.024 14.04 1.08L6.664 6.24H3.372C2.06 6.24 1 7.304 1 8.612V12.228C1 13.54 2.064 14.6 3.372 14.6H6.664L14.04 19.76C14.12 19.816 14.208 19.84 14.296 19.84C14.528 19.84 14.744 19.656 14.744 19.392V1.448C14.744 1.184 14.528 1 14.296 1Z" fill="#212121"/>
<path d="M13.944 2.124V18.728L7.124 13.952L6.916 13.808H3.372C2.504 13.808 1.8 13.104 1.8 12.236V8.62C1.8 7.752 2.504 7.048 3.372 7.048H6.916L7.124 6.904L13.944 2.128M14.296 1C14.208 1 14.12 1.024 14.04 1.08L6.664 6.24H3.372C2.06 6.24 1 7.304 1 8.612V12.228C1 13.54 2.064 14.6 3.372 14.6H6.664L14.04 19.76C14.12 19.816 14.208 19.84 14.296 19.84C14.528 19.84 14.744 19.656 14.744 19.392V1.448C14.744 1.184 14.528 1 14.296 1Z" fill="black" fill-opacity="0.2"/>
<path d="M13.944 2.124V18.728L7.124 13.952L6.916 13.808H3.372C2.504 13.808 1.8 13.104 1.8 12.236V8.62C1.8 7.752 2.504 7.048 3.372 7.048H6.916L7.124 6.904L13.944 2.128M14.296 1C14.208 1 14.12 1.024 14.04 1.08L6.664 6.24H3.372C2.06 6.24 1 7.304 1 8.612V12.228C1 13.54 2.064 14.6 3.372 14.6H6.664L14.04 19.76C14.12 19.816 14.208 19.84 14.296 19.84C14.528 19.84 14.744 19.656 14.744 19.392V1.448C14.744 1.184 14.528 1 14.296 1Z" fill="black" fill-opacity="0.2"/>
<path d="M13.944 2.124V18.728L7.124 13.952L6.916 13.808H3.372C2.504 13.808 1.8 13.104 1.8 12.236V8.62C1.8 7.752 2.504 7.048 3.372 7.048H6.916L7.124 6.904L13.944 2.128M14.296 1C14.208 1 14.12 1.024 14.04 1.08L6.664 6.24H3.372C2.06 6.24 1 7.304 1 8.612V12.228C1 13.54 2.064 14.6 3.372 14.6H6.664L14.04 19.76C14.12 19.816 14.208 19.84 14.296 19.84C14.528 19.84 14.744 19.656 14.744 19.392V1.448C14.744 1.184 14.528 1 14.296 1Z" fill="black" fill-opacity="0.2"/>
<path d="M13.944 2.124V18.728L7.124 13.952L6.916 13.808H3.372C2.504 13.808 1.8 13.104 1.8 12.236V8.62C1.8 7.752 2.504 7.048 3.372 7.048H6.916L7.124 6.904L13.944 2.128M14.296 1C14.208 1 14.12 1.024 14.04 1.08L6.664 6.24H3.372C2.06 6.24 1 7.304 1 8.612V12.228C1 13.54 2.064 14.6 3.372 14.6H6.664L14.04 19.76C14.12 19.816 14.208 19.84 14.296 19.84C14.528 19.84 14.744 19.656 14.744 19.392V1.448C14.744 1.184 14.528 1 14.296 1Z" stroke="#3B268C" stroke-width="0.5"/>
</g>
<path id="Vector_2" d="M14.7439 7.79614C16.1959 7.79614 17.3719 8.97214 17.3719 10.4241C17.3719 11.8761 16.1959 13.0521 14.7439 13.0521" stroke="#3B268C" stroke-width="1.5" stroke-miterlimit="10"/>
<path id="Vector_3" d="M20.108 10.4241H22.808" stroke="#3B268C" stroke-width="1.5" stroke-miterlimit="10" stroke-linecap="round"/>
<path id="Vector_4" d="M18.9359 7.12805L21.6239 5.24805" stroke="#3B268C" stroke-width="1.5" stroke-miterlimit="10" stroke-linecap="round"/>
<path id="Vector_5" d="M18.9243 13.712L21.6083 15.592" stroke="#3B268C" stroke-width="1.5" stroke-miterlimit="10" stroke-linecap="round"/>
</g>
</svg>
