<svg width="37" height="40" viewBox="0 0 37 40" fill="none" xmlns="http://www.w3.org/2000/svg">
<g id="&#236;&#152;&#136;&#236;&#149;&#189;/&#235;&#166;&#172;&#236;&#176;&#168;&#236;&#167;&#149;&#235;&#163;&#184;">
<g id="Vector">
<path d="M24.2005 38.9998H8.90377L6.68578 21.5528H24.2005V38.9998Z" stroke="#212121" stroke-miterlimit="10"/>
<path d="M24.2005 38.9998H8.90377L6.68578 21.5528H24.2005V38.9998Z" stroke="black" stroke-opacity="0.2" stroke-miterlimit="10"/>
<path d="M24.2005 38.9998H8.90377L6.68578 21.5528H24.2005V38.9998Z" stroke="black" stroke-opacity="0.2" stroke-miterlimit="10"/>
<path d="M24.2005 38.9998H8.90377L6.68578 21.5528H24.2005V38.9998Z" stroke="black" stroke-opacity="0.2" stroke-miterlimit="10"/>
</g>
<g id="Vector_2">
<path d="M34.4033 35.0304H24.2005V39H34.4033V35.0304Z" stroke="#212121" stroke-miterlimit="10"/>
<path d="M34.4033 35.0304H24.2005V39H34.4033V35.0304Z" stroke="black" stroke-opacity="0.2" stroke-miterlimit="10"/>
<path d="M34.4033 35.0304H24.2005V39H34.4033V35.0304Z" stroke="black" stroke-opacity="0.2" stroke-miterlimit="10"/>
<path d="M34.4033 35.0304H24.2005V39H34.4033V35.0304Z" stroke="black" stroke-opacity="0.2" stroke-miterlimit="10"/>
</g>
<g id="Vector_3">
<path d="M8.89615 39H4.4158V35.0304H8.39341L8.89615 39Z" stroke="#212121" stroke-miterlimit="10"/>
<path d="M8.89615 39H4.4158V35.0304H8.39341L8.89615 39Z" stroke="black" stroke-opacity="0.2" stroke-miterlimit="10"/>
<path d="M8.89615 39H4.4158V35.0304H8.39341L8.89615 39Z" stroke="black" stroke-opacity="0.2" stroke-miterlimit="10"/>
<path d="M8.89615 39H4.4158V35.0304H8.39341L8.89615 39Z" stroke="black" stroke-opacity="0.2" stroke-miterlimit="10"/>
</g>
<g id="Vector_4">
<path d="M11.3436 16.3756H25.1395C26.4925 16.3756 27.5867 17.4656 27.5867 18.8133V21.553H8.90376V18.8133C8.90376 17.4656 9.99797 16.3756 11.351 16.3756H11.3436Z" stroke="#212121" stroke-miterlimit="10"/>
<path d="M11.3436 16.3756H25.1395C26.4925 16.3756 27.5867 17.4656 27.5867 18.8133V21.553H8.90376V18.8133C8.90376 17.4656 9.99797 16.3756 11.351 16.3756H11.3436Z" stroke="black" stroke-opacity="0.2" stroke-miterlimit="10"/>
<path d="M11.3436 16.3756H25.1395C26.4925 16.3756 27.5867 17.4656 27.5867 18.8133V21.553H8.90376V18.8133C8.90376 17.4656 9.99797 16.3756 11.351 16.3756H11.3436Z" stroke="black" stroke-opacity="0.2" stroke-miterlimit="10"/>
<path d="M11.3436 16.3756H25.1395C26.4925 16.3756 27.5867 17.4656 27.5867 18.8133V21.553H8.90376V18.8133C8.90376 17.4656 9.99797 16.3756 11.351 16.3756H11.3436Z" stroke="black" stroke-opacity="0.2" stroke-miterlimit="10"/>
</g>
<g id="Vector_5">
<path d="M12.467 16.3757L8.39331 2.74363C8.00886 1.45481 6.64849 0.718337 5.35466 1.1013L1 2.39012L6.72242 21.5383" stroke="#212121" stroke-miterlimit="10"/>
<path d="M12.467 16.3757L8.39331 2.74363C8.00886 1.45481 6.64849 0.718337 5.35466 1.1013L1 2.39012L6.72242 21.5383" stroke="black" stroke-opacity="0.2" stroke-miterlimit="10"/>
<path d="M12.467 16.3757L8.39331 2.74363C8.00886 1.45481 6.64849 0.718337 5.35466 1.1013L1 2.39012L6.72242 21.5383" stroke="black" stroke-opacity="0.2" stroke-miterlimit="10"/>
<path d="M12.467 16.3757L8.39331 2.74363C8.00886 1.45481 6.64849 0.718337 5.35466 1.1013L1 2.39012L6.72242 21.5383" stroke="black" stroke-opacity="0.2" stroke-miterlimit="10"/>
</g>
<g id="Vector_6">
<path d="M13.3765 36.0394C14.5158 36.0394 15.4393 35.1195 15.4393 33.9847C15.4393 32.8499 14.5158 31.9299 13.3765 31.9299C12.2373 31.9299 11.3138 32.8499 11.3138 33.9847C11.3138 35.1195 12.2373 36.0394 13.3765 36.0394Z" stroke="#212121" stroke-miterlimit="10"/>
<path d="M13.3765 36.0394C14.5158 36.0394 15.4393 35.1195 15.4393 33.9847C15.4393 32.8499 14.5158 31.9299 13.3765 31.9299C12.2373 31.9299 11.3138 32.8499 11.3138 33.9847C11.3138 35.1195 12.2373 36.0394 13.3765 36.0394Z" stroke="black" stroke-opacity="0.2" stroke-miterlimit="10"/>
<path d="M13.3765 36.0394C14.5158 36.0394 15.4393 35.1195 15.4393 33.9847C15.4393 32.8499 14.5158 31.9299 13.3765 31.9299C12.2373 31.9299 11.3138 32.8499 11.3138 33.9847C11.3138 35.1195 12.2373 36.0394 13.3765 36.0394Z" stroke="black" stroke-opacity="0.2" stroke-miterlimit="10"/>
<path d="M13.3765 36.0394C14.5158 36.0394 15.4393 35.1195 15.4393 33.9847C15.4393 32.8499 14.5158 31.9299 13.3765 31.9299C12.2373 31.9299 11.3138 32.8499 11.3138 33.9847C11.3138 35.1195 12.2373 36.0394 13.3765 36.0394Z" stroke="black" stroke-opacity="0.2" stroke-miterlimit="10"/>
</g>
<g id="Vector_7">
<path d="M24.2005 25.8097H26.9212C26.9212 25.8097 29.2279 25.3973 29.9081 27.3563C30.5883 29.3153 32.1261 35.0303 32.1261 35.0303" stroke="#212121" stroke-miterlimit="10"/>
<path d="M24.2005 25.8097H26.9212C26.9212 25.8097 29.2279 25.3973 29.9081 27.3563C30.5883 29.3153 32.1261 35.0303 32.1261 35.0303" stroke="black" stroke-opacity="0.2" stroke-miterlimit="10"/>
<path d="M24.2005 25.8097H26.9212C26.9212 25.8097 29.2279 25.3973 29.9081 27.3563C30.5883 29.3153 32.1261 35.0303 32.1261 35.0303" stroke="black" stroke-opacity="0.2" stroke-miterlimit="10"/>
<path d="M24.2005 25.8097H26.9212C26.9212 25.8097 29.2279 25.3973 29.9081 27.3563C30.5883 29.3153 32.1261 35.0303 32.1261 35.0303" stroke="black" stroke-opacity="0.2" stroke-miterlimit="10"/>
</g>
<path id="Vector_8" d="M20.4518 9.88715C21.7974 8.14172 23.9045 7.00755 26.2926 7.00755C28.6806 7.00755 30.7877 8.14172 32.1333 9.88715" stroke="#4E32BB" stroke-miterlimit="10"/>
<path id="Vector_9" d="M36 7.44965C33.8338 4.43013 30.2998 2.45639 26.2926 2.45639C22.2854 2.45639 18.7514 4.43013 16.5852 7.44965" stroke="#4E32BB" stroke-miterlimit="10"/>
<path id="Vector_10" d="M28.2889 12.3176C27.7788 11.8168 27.069 11.5001 26.2927 11.5001C25.5164 11.5001 24.814 11.8094 24.2965 12.3176" stroke="#4E32BB" stroke-miterlimit="10"/>
<g id="Vector_11">
<path d="M21.5312 24.3146H19.3132V26.524H21.5312V24.3146Z" fill="#212121"/>
<path d="M21.5312 24.3146H19.3132V26.524H21.5312V24.3146Z" fill="black" fill-opacity="0.2"/>
<path d="M21.5312 24.3146H19.3132V26.524H21.5312V24.3146Z" fill="black" fill-opacity="0.2"/>
<path d="M21.5312 24.3146H19.3132V26.524H21.5312V24.3146Z" fill="black" fill-opacity="0.2"/>
</g>
</g>
</svg>
