<svg width="13" height="12" viewBox="0 0 13 12" fill="none" xmlns="http://www.w3.org/2000/svg">
<path id="&#236;&#187;&#164;&#235;&#174;&#164;&#235;&#139;&#136;&#237;&#139;&#176;/&#236;&#162;&#139;&#236;&#149;&#132;&#236;&#154;&#148;/normal" fill-rule="evenodd" clip-rule="evenodd" d="M6.21782 2.81365L5.684 2.28485C4.59239 1.20349 2.83085 1.21179 1.74948 2.30341C0.668121 3.39502 0.676431 5.15657 1.76804 6.23793L6.25443 10.6822L10.7238 6.17048C11.805 5.07901 11.7967 3.31769 10.7052 2.23646C9.61375 1.15524 7.85243 1.16355 6.77121 2.25502L6.21782 2.81365ZM6.37336 1.86091C7.67225 0.549718 9.78813 0.539738 11.0993 1.83862C12.4105 3.1375 12.4205 5.25339 11.1216 6.56459L6.47266 11.2576C6.44336 11.2872 6.40847 11.3079 6.37136 11.3196C6.27596 11.3782 6.14949 11.3665 6.06642 11.2842L1.37394 6.63577C0.0626002 5.33675 0.0526173 3.22064 1.35164 1.9093C2.65066 0.597965 4.76678 0.587984 6.07811 1.88701L6.21408 2.0217L6.37336 1.86091Z" fill="#919191"/>
</svg>
