<svg width="18" height="17" viewBox="0 0 18 17" fill="none" xmlns="http://www.w3.org/2000/svg">
<g id="&#235;&#167;&#136;&#236;&#157;&#180;/&#236;&#136;&#152;&#236;&#160;&#149;">
<mask id="path-1-inside-1_837_6178" fill="white">
<path fill-rule="evenodd" clip-rule="evenodd" d="M12.48 0H5.44L4.71287 1.81781H1.6C0.716344 1.81781 0 2.53416 0 3.41781V14.5019C0 15.3856 0.716347 16.1019 1.6 16.1019H16.32C17.2037 16.1019 17.92 15.3856 17.92 14.5019V3.41781C17.92 2.53416 17.2037 1.81781 16.32 1.81781H13.2071L12.48 0ZM12 8.99994C12 10.6568 10.6569 11.9999 9 11.9999C7.34315 11.9999 6 10.6568 6 8.99994C6 7.34309 7.34315 5.99994 9 5.99994C10.6569 5.99994 12 7.34309 12 8.99994Z"/>
</mask>
<path d="M5.44 0V-1.5H4.42445L4.04729 -0.557086L5.44 0ZM12.48 0L13.8727 -0.557086L13.4956 -1.5H12.48V0ZM4.71287 1.81781V3.31781H5.72842L6.10559 2.3749L4.71287 1.81781ZM13.2071 1.81781L11.8144 2.3749L12.1916 3.31781H13.2071V1.81781ZM5.44 1.5H12.48V-1.5H5.44V1.5ZM6.10559 2.3749L6.83272 0.557086L4.04729 -0.557086L3.32016 1.26073L6.10559 2.3749ZM4.71287 0.317813H1.6V3.31781H4.71287V0.317813ZM1.6 0.317813C-0.112084 0.317813 -1.5 1.70573 -1.5 3.41781H1.5C1.5 3.36258 1.54477 3.31781 1.6 3.31781V0.317813ZM-1.5 3.41781V14.5019H1.5V3.41781H-1.5ZM-1.5 14.5019C-1.5 16.214 -0.112077 17.6019 1.6 17.6019V14.6019C1.54477 14.6019 1.5 14.5571 1.5 14.5019H-1.5ZM1.6 17.6019H16.32V14.6019H1.6V17.6019ZM16.32 17.6019C18.0321 17.6019 19.42 16.214 19.42 14.5019H16.42C16.42 14.5571 16.3752 14.6019 16.32 14.6019V17.6019ZM19.42 14.5019V3.41781H16.42V14.5019H19.42ZM19.42 3.41781C19.42 1.70573 18.0321 0.317813 16.32 0.317813V3.31781C16.3752 3.31781 16.42 3.36259 16.42 3.41781H19.42ZM16.32 0.317813H13.2071V3.31781H16.32V0.317813ZM11.0873 0.557086L11.8144 2.3749L14.5998 1.26073L13.8727 -0.557086L11.0873 0.557086ZM9 13.4999C11.4853 13.4999 13.5 11.4852 13.5 8.99994H10.5C10.5 9.82837 9.82843 10.4999 9 10.4999V13.4999ZM4.5 8.99994C4.5 11.4852 6.51472 13.4999 9 13.4999V10.4999C8.17157 10.4999 7.5 9.82837 7.5 8.99994H4.5ZM9 4.49994C6.51472 4.49994 4.5 6.51466 4.5 8.99994H7.5C7.5 8.17151 8.17157 7.49994 9 7.49994V4.49994ZM13.5 8.99994C13.5 6.51466 11.4853 4.49994 9 4.49994V7.49994C9.82843 7.49994 10.5 8.17151 10.5 8.99994H13.5Z" fill="#919191" mask="url(#path-1-inside-1_837_6178)"/>
</g>
</svg>
