<svg width="10" height="10" viewBox="0 0 10 10" fill="none" xmlns="http://www.w3.org/2000/svg">
<g id="&#236;&#187;&#164;&#235;&#174;&#164;&#235;&#139;&#136;&#237;&#139;&#176;/&#235;&#140;&#147;&#234;&#184;&#128;">
<mask id="path-1-inside-1_688_4177" fill="white">
<path fill-rule="evenodd" clip-rule="evenodd" d="M9.01863 7.67698C9.54739 6.89171 9.856 5.94589 9.856 4.928C9.856 2.20634 7.64966 0 4.928 0C2.20634 0 0 2.20634 0 4.928C0 7.64966 2.20634 9.856 4.928 9.856C5.80704 9.856 6.63233 9.62584 7.34688 9.2225L8.74637 9.61958C9.11132 9.72313 9.45151 9.39277 9.35871 9.02494L9.01863 7.67698Z"/>
</mask>
<path d="M9.01863 7.67698L8.56241 7.36979L8.42528 7.57345L8.48534 7.81153L9.01863 7.67698ZM7.34688 9.2225L7.49701 8.69339L7.27631 8.63077L7.07652 8.74354L7.34688 9.2225ZM8.74637 9.61958L8.8965 9.09047L8.74637 9.61958ZM9.35871 9.02494L9.892 8.8904V8.8904L9.35871 9.02494ZM9.306 4.928C9.306 5.83306 9.03196 6.67245 8.56241 7.36979L9.47485 7.98417C10.0628 7.11096 10.406 6.05873 10.406 4.928H9.306ZM4.928 0.55C7.3459 0.55 9.306 2.5101 9.306 4.928H10.406C10.406 1.90258 7.95342 -0.55 4.928 -0.55V0.55ZM0.55 4.928C0.55 2.5101 2.5101 0.55 4.928 0.55V-0.55C1.90258 -0.55 -0.55 1.90258 -0.55 4.928H0.55ZM4.928 9.306C2.5101 9.306 0.55 7.3459 0.55 4.928H-0.55C-0.55 7.95342 1.90258 10.406 4.928 10.406V9.306ZM7.07652 8.74354C6.44231 9.10153 5.70986 9.306 4.928 9.306V10.406C5.90422 10.406 6.82234 10.1502 7.61724 9.70147L7.07652 8.74354ZM8.8965 9.09047L7.49701 8.69339L7.19676 9.75162L8.59625 10.1487L8.8965 9.09047ZM8.82542 9.15949C8.82378 9.15296 8.82324 9.14099 8.8271 9.12824C8.83047 9.1171 8.83588 9.10946 8.84103 9.10446C8.84619 9.09945 8.85398 9.09427 8.86521 9.09123C8.87807 9.08774 8.89002 9.08863 8.8965 9.09047L8.59625 10.1487C9.36851 10.3678 10.0884 9.66875 9.892 8.8904L8.82542 9.15949ZM8.48534 7.81153L8.82542 9.15949L9.892 8.8904L9.55192 7.54244L8.48534 7.81153Z" fill="#919191" mask="url(#path-1-inside-1_688_4177)"/>
</g>
</svg>
