<svg width="20" height="21" viewBox="0 0 20 21" fill="none" xmlns="http://www.w3.org/2000/svg">
<g id="Group 1000011261">
<path id="Subtract" fill-rule="evenodd" clip-rule="evenodd" d="M7.68003 2.98242H0.96C0.429807 2.98242 0 3.41223 0 3.94242V19.3024C0 19.8326 0.429804 20.2624 0.959997 20.2624H16.32C16.8502 20.2624 17.28 19.8326 17.28 19.3024V10.6625H16.32L16.32 19.3024L0.959997 19.3024L0.96 3.94242L7.68003 3.94242V2.98242Z" fill="#F8F8F8"/>
<g id="Union">
<mask id="path-2-outside-1_799_3540" maskUnits="userSpaceOnUse" x="4.76001" y="0" width="15" height="17" fill="black">
<rect fill="white" x="4.76001" width="15" height="17"/>
<path fill-rule="evenodd" clip-rule="evenodd" d="M16.6539 1.10993C16.4495 0.94111 16.1469 0.969943 15.9781 1.17433L6.76088 12.3335C6.75237 12.3438 6.74487 12.3546 6.73836 12.3657C6.72145 12.387 6.70777 12.4116 6.69844 12.4394L5.7731 15.1956C5.70375 15.4021 5.92336 15.5868 6.11494 15.483L8.67125 14.0981C8.70307 14.0809 8.72903 14.0579 8.74893 14.0315C8.75979 14.0223 8.76999 14.012 8.77935 14.0007L17.9966 2.84155C18.1654 2.63716 18.1366 2.33462 17.9322 2.16579L16.6539 1.10993Z"/>
</mask>
<path d="M15.9781 1.17433L15.238 0.562974V0.562974L15.9781 1.17433ZM16.6539 1.10993L16.0425 1.85009L16.0425 1.85009L16.6539 1.10993ZM6.76088 12.3335L6.02072 11.7221L6.0207 11.7221L6.76088 12.3335ZM6.73836 12.3657L7.48889 12.9643L7.5326 12.9095L7.56788 12.849L6.73836 12.3657ZM6.69844 12.4394L7.60851 12.745L7.60852 12.745L6.69844 12.4394ZM5.7731 15.1956L6.68318 15.5011L5.7731 15.1956ZM6.11494 15.483L5.65766 14.6389L5.65766 14.6389L6.11494 15.483ZM8.67125 14.0981L8.21398 13.254L8.21397 13.254L8.67125 14.0981ZM8.74893 14.0315L8.12971 13.2979L8.04683 13.3678L7.98164 13.4545L8.74893 14.0315ZM8.77935 14.0007L8.03919 13.3893L8.03918 13.3894L8.77935 14.0007ZM17.9966 2.84155L18.7368 3.45291L18.7368 3.45291L17.9966 2.84155ZM17.9322 2.16579L17.3208 2.90596L17.3208 2.90596L17.9322 2.16579ZM16.7183 1.78569C16.5495 1.99008 16.2469 2.01892 16.0425 1.85009L17.2652 0.369771C16.6521 -0.136697 15.7444 -0.0501958 15.238 0.562974L16.7183 1.78569ZM7.50104 12.9448L16.7183 1.78569L15.238 0.562974L6.02072 11.7221L7.50104 12.9448ZM7.56788 12.849C7.54823 12.8827 7.52588 12.9148 7.50105 12.9448L6.0207 11.7221C5.97886 11.7728 5.94151 11.8265 5.90885 11.8825L7.56788 12.849ZM7.60852 12.745C7.58195 12.8241 7.54141 12.8985 7.48889 12.9643L5.98783 11.7672C5.90149 11.8754 5.83359 11.9991 5.78836 12.1339L7.60852 12.745ZM6.68318 15.5011L7.60851 12.745L5.78836 12.1339L4.86302 14.89L6.68318 15.5011ZM5.65766 14.6389C6.23241 14.3275 6.89123 14.8814 6.68318 15.5011L4.86302 14.89C4.51628 15.9228 5.61431 16.846 6.57223 16.3271L5.65766 14.6389ZM8.21397 13.254L5.65766 14.6389L6.57223 16.3271L9.12854 14.9422L8.21397 13.254ZM7.98164 13.4545C8.04362 13.3721 8.12292 13.3033 8.21398 13.254L9.12853 14.9422C9.28322 14.8584 9.41445 14.7438 9.51622 14.6084L7.98164 13.4545ZM8.03918 13.3894C8.06658 13.3562 8.09691 13.3256 8.12971 13.2979L9.36815 14.7651C9.42268 14.7191 9.47339 14.6679 9.51953 14.6121L8.03918 13.3894ZM17.2564 2.2302L8.03919 13.3893L9.51952 14.6121L18.7368 3.45291L17.2564 2.2302ZM17.3208 2.90596C17.1164 2.73713 17.0876 2.43459 17.2564 2.2302L18.7368 3.45291C19.2432 2.83974 19.1567 1.9321 18.5435 1.42563L17.3208 2.90596ZM16.0425 1.85009L17.3208 2.90596L18.5435 1.42563L17.2652 0.36977L16.0425 1.85009Z" fill="#F8F8F8" mask="url(#path-2-outside-1_799_3540)"/>
</g>
</g>
</svg>
