<svg width="18" height="21" viewBox="0 0 18 21" fill="none" xmlns="http://www.w3.org/2000/svg">
<g id="&#235;&#167;&#136;&#236;&#157;&#180;/&#236;&#157;&#180;&#236;&#154;&#169;&#234;&#176;&#128;&#236;&#157;&#180;&#235;&#147;&#156;">
<path id="Vector" d="M1 17.5801V3.58008C1 3.04965 1.21071 2.54094 1.58579 2.16586C1.96086 1.79079 2.46957 1.58008 3 1.58008H16.4C16.5591 1.58008 16.7117 1.64329 16.8243 1.75581C16.9368 1.86834 17 2.02095 17 2.18008V15.2941M3 15.5801H17M3 19.5801H17" stroke="#373737" stroke-width="1.5" stroke-linecap="round"/>
<path id="Vector_2" d="M3 19.5799C2.46957 19.5799 1.96086 19.3692 1.58579 18.9941C1.21071 18.619 1 18.1103 1 17.5799C1 17.0495 1.21071 16.5408 1.58579 16.1657C1.96086 15.7906 2.46957 15.5799 3 15.5799" stroke="#373737" stroke-width="1.5" stroke-linecap="round" stroke-linejoin="round"/>
<path id="Vector_3" d="M6 5.58026H12" stroke="#373737" stroke-width="1.5" stroke-linecap="round"/>
</g>
</svg>
