<svg width="24" height="20" viewBox="0 0 24 20" fill="none" xmlns="http://www.w3.org/2000/svg">
<g id="&#235;&#167;&#136;&#236;&#157;&#180;/&#234;&#179;&#181;&#236;&#167;&#128;">
<g id="Vector">
<path d="M14.0402 1.70399V18.308L7.22019 13.532L7.01219 13.388H3.46819C2.60019 13.388 1.89619 12.684 1.89619 11.816V8.19999C1.89619 7.33199 2.60019 6.62799 3.46819 6.62799H7.01219L7.22019 6.48399L14.0402 1.70799M14.3922 0.579987C14.3042 0.579987 14.2162 0.603987 14.1362 0.659987L6.76019 5.81999H3.46819C2.15619 5.81999 1.09619 6.88399 1.09619 8.19199V11.808C1.09619 13.12 2.16019 14.18 3.46819 14.18H6.76019L14.1362 19.34C14.2162 19.396 14.3042 19.42 14.3922 19.42C14.6242 19.42 14.8402 19.236 14.8402 18.972V1.02799C14.8402 0.763987 14.6242 0.579987 14.3922 0.579987Z" fill="#373737"/>
<path d="M14.0402 1.70399V18.308L7.22019 13.532L7.01219 13.388H3.46819C2.60019 13.388 1.89619 12.684 1.89619 11.816V8.19999C1.89619 7.33199 2.60019 6.62799 3.46819 6.62799H7.01219L7.22019 6.48399L14.0402 1.70799M14.3922 0.579987C14.3042 0.579987 14.2162 0.603987 14.1362 0.659987L6.76019 5.81999H3.46819C2.15619 5.81999 1.09619 6.88399 1.09619 8.19199V11.808C1.09619 13.12 2.16019 14.18 3.46819 14.18H6.76019L14.1362 19.34C14.2162 19.396 14.3042 19.42 14.3922 19.42C14.6242 19.42 14.8402 19.236 14.8402 18.972V1.02799C14.8402 0.763987 14.6242 0.579987 14.3922 0.579987Z" stroke="#373737" stroke-width="0.5"/>
</g>
<path id="Vector_2" d="M14.8403 7.37613C16.2923 7.37613 17.4683 8.55213 17.4683 10.0041C17.4683 11.4561 16.2923 12.6321 14.8403 12.6321" stroke="#373737" stroke-width="1.5" stroke-miterlimit="10"/>
<path id="Vector_3" d="M20.2041 10.0041H22.9041" stroke="#373737" stroke-width="1.5" stroke-miterlimit="10" stroke-linecap="round"/>
<path id="Vector_4" d="M19.0322 6.70809L21.7202 4.82809" stroke="#373737" stroke-width="1.5" stroke-miterlimit="10" stroke-linecap="round"/>
<path id="Vector_5" d="M19.0205 13.2921L21.7045 15.1721" stroke="#373737" stroke-width="1.5" stroke-miterlimit="10" stroke-linecap="round"/>
</g>
</svg>
