<svg width="28" height="29" viewBox="0 0 28 29" fill="none" xmlns="http://www.w3.org/2000/svg">
<circle cx="14" cy="14.1409" r="14" fill="#EDEBF8"/>
<path d="M13.5088 13.6001C13.5088 15.6304 12.2871 16.8696 10.6436 16.8696C8.98242 16.8696 7.76953 15.6304 7.76953 13.6001C7.76953 11.561 8.98242 10.3306 10.6436 10.3306C12.2871 10.3306 13.5088 11.561 13.5088 13.6001ZM12.5508 13.6001C12.5508 12.0532 11.7334 11.2183 10.6436 11.2183C9.54492 11.2183 8.72754 12.0532 8.72754 13.6001C8.72754 15.147 9.54492 15.9819 10.6436 15.9819C11.7334 15.9819 12.5508 15.147 12.5508 13.6001ZM14.5986 16.7817V10.4185H15.5654V13.4507H15.6445L18.3076 10.4185H19.5205L16.9541 13.2837L19.5293 16.7817H18.3604L16.3125 13.9429L15.5654 14.8042V16.7817H14.5986Z" fill="#4E32BB"/>
</svg>
