<svg width="12" height="12" viewBox="0 0 12 12" fill="none" xmlns="http://www.w3.org/2000/svg">
<g id="Group 1000011548">
<circle id="Ellipse 3817" cx="6" cy="6" r="6" fill="#3850FB"/>
<g id="Group 1000011542">
<path id="Rectangle 43306" d="M2.51758 7.8938H9.46995V7.99989C9.46995 9.10446 8.57452 9.99989 7.46995 9.99989H4.51758C3.41301 9.99989 2.51758 9.10446 2.51758 7.99989V7.8938Z" fill="#F8F7FC"/>
<path id="Union" fill-rule="evenodd" clip-rule="evenodd" d="M8.07036 7.45106L8.07068 7.45181H3.91211L3.91243 7.45106H2.51911L1.9865 4.1223C1.94237 3.84644 2.2661 3.6653 2.4781 3.84723L4.66245 5.72171L5.99139 2.65747L7.32129 5.72389L9.50817 3.84723C9.72018 3.6653 10.0439 3.84644 9.99977 4.1223L9.46717 7.45106H8.07036Z" fill="#F8F7FC"/>
<ellipse id="Ellipse 3816" cx="5.99396" cy="2.65726" rx="0.661931" ry="0.65726" fill="#F8F7FC"/>
</g>
</g>
</svg>
