<svg width="23" height="18" viewBox="0 0 23 18" fill="none" xmlns="http://www.w3.org/2000/svg">
<g id="&#236;&#152;&#136;&#236;&#149;&#189;/&#235;&#130;&#180;&#236;&#151;&#173;">
<g id="Ellipse 3795">
<circle cx="2.25352" cy="1.65" r="0.9" fill="#212121"/>
<circle cx="2.25352" cy="1.65" r="0.9" fill="black" fill-opacity="0.2"/>
<circle cx="2.25352" cy="1.65" r="0.9" fill="black" fill-opacity="0.2"/>
<circle cx="2.25352" cy="1.65" r="0.9" fill="black" fill-opacity="0.2"/>
</g>
<g id="Ellipse 3796">
<circle cx="2.25352" cy="8.4498" r="0.9" fill="#212121"/>
<circle cx="2.25352" cy="8.4498" r="0.9" fill="black" fill-opacity="0.2"/>
<circle cx="2.25352" cy="8.4498" r="0.9" fill="black" fill-opacity="0.2"/>
<circle cx="2.25352" cy="8.4498" r="0.9" fill="black" fill-opacity="0.2"/>
</g>
<g id="Ellipse 3797">
<circle cx="2.25352" cy="15.2496" r="0.9" fill="#212121"/>
<circle cx="2.25352" cy="15.2496" r="0.9" fill="black" fill-opacity="0.2"/>
<circle cx="2.25352" cy="15.2496" r="0.9" fill="black" fill-opacity="0.2"/>
<circle cx="2.25352" cy="15.2496" r="0.9" fill="black" fill-opacity="0.2"/>
</g>
<g id="Rectangle 42884">
<rect x="6.15234" y="0.75" width="16" height="1.6" rx="0.8" fill="#212121"/>
<rect x="6.15234" y="0.75" width="16" height="1.6" rx="0.8" fill="black" fill-opacity="0.2"/>
<rect x="6.15234" y="0.75" width="16" height="1.6" rx="0.8" fill="black" fill-opacity="0.2"/>
<rect x="6.15234" y="0.75" width="16" height="1.6" rx="0.8" fill="black" fill-opacity="0.2"/>
</g>
<g id="Rectangle 42885">
<rect x="6.15234" y="7.5498" width="16" height="1.6" rx="0.8" fill="#212121"/>
<rect x="6.15234" y="7.5498" width="16" height="1.6" rx="0.8" fill="black" fill-opacity="0.2"/>
<rect x="6.15234" y="7.5498" width="16" height="1.6" rx="0.8" fill="black" fill-opacity="0.2"/>
<rect x="6.15234" y="7.5498" width="16" height="1.6" rx="0.8" fill="black" fill-opacity="0.2"/>
</g>
<g id="Rectangle 42886">
<rect x="6.15234" y="14.3496" width="16" height="1.6" rx="0.8" fill="#212121"/>
<rect x="6.15234" y="14.3496" width="16" height="1.6" rx="0.8" fill="black" fill-opacity="0.2"/>
<rect x="6.15234" y="14.3496" width="16" height="1.6" rx="0.8" fill="black" fill-opacity="0.2"/>
<rect x="6.15234" y="14.3496" width="16" height="1.6" rx="0.8" fill="black" fill-opacity="0.2"/>
</g>
</g>
</svg>
