<svg width="11" height="15" viewBox="0 0 11 15" fill="none" xmlns="http://www.w3.org/2000/svg">
<g id="Group 1000011393">
<g id="Exclude">
<path fill-rule="evenodd" clip-rule="evenodd" d="M5.14339 14.2742C5.14339 14.2742 10.0184 9.14912 10.0184 5.4751C10.0184 2.32072 7.8927 0 5.14339 0C2.39408 0 0 2.32072 0 5.4751C0 9.14912 5.14339 14.2742 5.14339 14.2742ZM5.0091 7.22243C6.07314 7.22243 6.93571 6.35986 6.93571 5.29582C6.93571 4.23178 6.07314 3.36921 5.0091 3.36921C3.94507 3.36921 3.08249 4.23178 3.08249 5.29582C3.08249 6.35986 3.94507 7.22243 5.0091 7.22243Z" fill="#212121"/>
<path fill-rule="evenodd" clip-rule="evenodd" d="M5.14339 14.2742C5.14339 14.2742 10.0184 9.14912 10.0184 5.4751C10.0184 2.32072 7.8927 0 5.14339 0C2.39408 0 0 2.32072 0 5.4751C0 9.14912 5.14339 14.2742 5.14339 14.2742ZM5.0091 7.22243C6.07314 7.22243 6.93571 6.35986 6.93571 5.29582C6.93571 4.23178 6.07314 3.36921 5.0091 3.36921C3.94507 3.36921 3.08249 4.23178 3.08249 5.29582C3.08249 6.35986 3.94507 7.22243 5.0091 7.22243Z" fill="black" fill-opacity="0.2"/>
<path fill-rule="evenodd" clip-rule="evenodd" d="M5.14339 14.2742C5.14339 14.2742 10.0184 9.14912 10.0184 5.4751C10.0184 2.32072 7.8927 0 5.14339 0C2.39408 0 0 2.32072 0 5.4751C0 9.14912 5.14339 14.2742 5.14339 14.2742ZM5.0091 7.22243C6.07314 7.22243 6.93571 6.35986 6.93571 5.29582C6.93571 4.23178 6.07314 3.36921 5.0091 3.36921C3.94507 3.36921 3.08249 4.23178 3.08249 5.29582C3.08249 6.35986 3.94507 7.22243 5.0091 7.22243Z" fill="black" fill-opacity="0.2"/>
<path fill-rule="evenodd" clip-rule="evenodd" d="M5.14339 14.2742C5.14339 14.2742 10.0184 9.14912 10.0184 5.4751C10.0184 2.32072 7.8927 0 5.14339 0C2.39408 0 0 2.32072 0 5.4751C0 9.14912 5.14339 14.2742 5.14339 14.2742ZM5.0091 7.22243C6.07314 7.22243 6.93571 6.35986 6.93571 5.29582C6.93571 4.23178 6.07314 3.36921 5.0091 3.36921C3.94507 3.36921 3.08249 4.23178 3.08249 5.29582C3.08249 6.35986 3.94507 7.22243 5.0091 7.22243Z" fill="black" fill-opacity="0.2"/>
</g>
</g>
</svg>
