<svg width="15" height="11" viewBox="0 0 15 11" fill="none" xmlns="http://www.w3.org/2000/svg">
<g id="Group 1000011353">
<g id="navi/my/click">
<path id="Ellipse 3690" d="M5.22741 2.47566C5.22741 3.40762 4.51292 4.13995 3.65941 4.13995C2.8059 4.13995 2.09141 3.40762 2.09141 2.47566C2.09141 1.54371 2.8059 0.811382 3.65941 0.811382C4.51292 0.811382 5.22741 1.54371 5.22741 2.47566Z" fill="#919191" stroke="#919191" stroke-width="0.522667"/>
<path id="Ellipse 3693" d="M0.276377 7.99123C0.355897 7.29606 0.745457 6.61584 1.32056 6.08514C1.96692 5.48869 2.82055 5.10704 3.65867 5.10704C4.49678 5.10704 5.35041 5.48869 5.99677 6.08514C6.57188 6.61584 6.96144 7.29606 7.04096 7.99123H3.65867H0.276377Z" fill="#919191" stroke="#919191" stroke-width="0.522667"/>
</g>
<g id="navi/my/click_2">
<path id="Ellipse 3690_2" d="M11.8895 2.61334C11.8895 3.9251 10.8826 4.96534 9.66821 4.96534C8.45387 4.96534 7.44688 3.9251 7.44688 2.61334C7.44688 1.30157 8.45387 0.261333 9.66821 0.261333C10.8826 0.261333 11.8895 1.30157 11.8895 2.61334Z" fill="#919191" stroke="#919191" stroke-width="0.522667"/>
<path id="Ellipse 3693_2" d="M4.83639 10.3225C4.87991 9.22608 5.46668 8.15609 6.34341 7.34706C7.25458 6.50624 8.4654 5.96026 9.66846 5.96026C10.8715 5.96026 12.0823 6.50624 12.9935 7.34706C13.8702 8.15609 14.457 9.22608 14.5005 10.3225H9.66846H4.83639Z" fill="#919191" stroke="#919191" stroke-width="0.261333"/>
</g>
</g>
</svg>
