<svg width="15" height="12" viewBox="0 0 15 12" fill="none" xmlns="http://www.w3.org/2000/svg">
<g id="Group 1000011353">
<g id="navi/my/click">
<path id="Ellipse 3690" d="M5.22546 3.24886C5.22546 4.18081 4.51097 4.91314 3.65746 4.91314C2.80395 4.91314 2.08946 4.18081 2.08946 3.24886C2.08946 2.31691 2.80395 1.58458 3.65746 1.58458C4.51097 1.58458 5.22546 2.31691 5.22546 3.24886Z" fill="#696969" stroke="#696969" stroke-width="0.522667"/>
<path id="Ellipse 3693" d="M0.276377 8.76467C0.355897 8.0695 0.745457 7.38927 1.32056 6.85858C1.96692 6.26213 2.82055 5.88047 3.65867 5.88047C4.49678 5.88047 5.35041 6.26213 5.99677 6.85858C6.57188 7.38927 6.96144 8.0695 7.04096 8.76467H3.65867H0.276377Z" fill="#696969" stroke="#696969" stroke-width="0.522667"/>
</g>
<g id="navi/my/click_2">
<path id="Ellipse 3690_2" d="M11.8915 3.38677C11.8915 4.69854 10.8845 5.73877 9.67017 5.73877C8.45583 5.73877 7.44883 4.69854 7.44883 3.38677C7.44883 2.075 8.45583 1.03477 9.67017 1.03477C10.8845 1.03477 11.8915 2.075 11.8915 3.38677Z" fill="#696969" stroke="#696969" stroke-width="0.522667"/>
<path id="Ellipse 3693_2" d="M4.83639 11.0955C4.87991 9.99903 5.46668 8.92904 6.34341 8.12001C7.25458 7.27919 8.4654 6.73321 9.66846 6.73321C10.8715 6.73321 12.0823 7.27919 12.9935 8.12001C13.8702 8.92904 14.457 9.99903 14.5005 11.0955H9.66846H4.83639Z" fill="#696969" stroke="#696969" stroke-width="0.261333"/>
</g>
</g>
</svg>
