<svg width="15" height="14" viewBox="0 0 15 14" fill="none" xmlns="http://www.w3.org/2000/svg">
<g id="&#236;&#178;&#180;&#237;&#129;&#172;">
<path id="Exclude" fill-rule="evenodd" clip-rule="evenodd" d="M7.63281 14C11.4988 14 14.6328 10.866 14.6328 7C14.6328 3.13401 11.4988 0 7.63281 0C3.76682 0 0.632812 3.13401 0.632812 7C0.632812 10.866 3.76682 14 7.63281 14ZM10.9927 5.35997C11.1915 5.16116 11.1915 4.83882 10.9927 4.64001C10.7939 4.4412 10.4716 4.4412 10.2728 4.64001L6.63274 8.28003L4.99272 6.64001C4.79391 6.4412 4.47157 6.4412 4.27276 6.64001C4.07394 6.83882 4.07394 7.16116 4.27276 7.35997L6.63274 9.71995L10.9927 5.35997Z" fill="#696969"/>
</g>
</svg>
