<svg width="11" height="16" viewBox="0 0 11 16" fill="none" xmlns="http://www.w3.org/2000/svg">
<g id="Group 1000011393">
<g id="Vector">
<path d="M10.5278 6.25349C10.5278 10.1143 5.40491 15.5 5.40491 15.5C5.40491 15.5 0 10.1143 0 6.25349C0 2.93873 2.51581 0.5 5.40491 0.5C8.29402 0.5 10.5278 2.93873 10.5278 6.25349Z" fill="#212121"/>
<path d="M10.5278 6.25349C10.5278 10.1143 5.40491 15.5 5.40491 15.5C5.40491 15.5 0 10.1143 0 6.25349C0 2.93873 2.51581 0.5 5.40491 0.5C8.29402 0.5 10.5278 2.93873 10.5278 6.25349Z" fill="black" fill-opacity="0.2"/>
<path d="M10.5278 6.25349C10.5278 10.1143 5.40491 15.5 5.40491 15.5C5.40491 15.5 0 10.1143 0 6.25349C0 2.93873 2.51581 0.5 5.40491 0.5C8.29402 0.5 10.5278 2.93873 10.5278 6.25349Z" fill="black" fill-opacity="0.2"/>
<path d="M10.5278 6.25349C10.5278 10.1143 5.40491 15.5 5.40491 15.5C5.40491 15.5 0 10.1143 0 6.25349C0 2.93873 2.51581 0.5 5.40491 0.5C8.29402 0.5 10.5278 2.93873 10.5278 6.25349Z" fill="black" fill-opacity="0.2"/>
</g>
<circle id="Ellipse 3768" cx="5.26383" cy="6.0651" r="2.02457" fill="#F8F8F8"/>
</g>
</svg>
